CommissionerFlair-MediumItalic.ufo
<glyph name="numbersign" format="2">
  <advance width="688.6526315789474"/>
  <unicode hex="0023"/>
  <outline>
    <contour>
      <point x="-6.673684210526315" y="140.67368421052632" type="line"/>
      <point x="58.71578947368421" y="144.7263157894737"/>
      <point x="120.69473684210526" y="145.13684210526316"/>
      <point x="173.85263157894735" y="145.13684210526316" type="curve"/>
      <point x="417.2842105263158" y="145.13684210526316" type="line"/>
      <point x="470.4421052631579" y="145.13684210526316"/>
      <point x="531.5999999999999" y="144.7263157894737"/>
      <point x="596.1684210526315" y="140.67368421052632" type="curve"/>
      <point x="614.8947368421053" y="231.78947368421052" type="line"/>
      <point x="549.5052631578948" y="227.73684210526315"/>
      <point x="487.9368421052631" y="227.32631578947368"/>
      <point x="434.77894736842103" y="227.32631578947368" type="curve"/>
      <point x="191.34736842105264" y="227.32631578947368" type="line"/>
      <point x="138.18947368421053" y="227.32631578947368"/>
      <point x="76.62105263157895" y="227.73684210526315"/>
      <point x="12.052631578947368" y="231.78947368421052" type="curve"/>
    </contour>
    <contour>
      <point x="52.42105263157895" y="0.0" type="curve"/>
      <point x="156.33684210526317" y="0.0" type="line"/>
      <point x="177.53684210526316" y="68.41052631578947"/>
      <point x="200.94736842105263" y="129.2842105263158"/>
      <point x="234.71578947368423" y="213.10526315789474" type="curve"/>
      <point x="327.61052631578946" y="443.5684210526316" type="line"/>
      <point x="363.9684210526316" y="533.8"/>
      <point x="387.9157894736842" y="589.5684210526317"/>
      <point x="422.43157894736845" y="661.2105263157895" type="curve"/>
      <point x="319.33684210526314" y="661.2105263157895" type="line"/>
      <point x="296.67368421052635" y="587.9263157894738"/>
      <point x="274.5473684210526" y="531.3894736842105"/>
      <point x="239.18947368421053" y="443.56842105263155" type="curve"/>
      <point x="146.29473684210527" y="213.10526315789474" type="line"/>
      <point x="112.52631578947368" y="129.87368421052633"/>
      <point x="85.29473684210527" y="66.76842105263157"/>
    </contour>
    <contour>
      <point x="107.57894736842105" y="426.4210526315789" type="line"/>
      <point x="173.37894736842105" y="430.4736842105263"/>
      <point x="234.94736842105263" y="430.88421052631577"/>
      <point x="288.10526315789474" y="430.88421052631577" type="curve"/>
      <point x="531.5368421052631" y="430.88421052631577" type="line"/>
      <point x="584.6947368421053" y="430.88421052631577"/>
      <point x="646.2631578947369" y="430.4736842105263"/>
      <point x="710.421052631579" y="426.4210526315789" type="curve"/>
      <point x="729.5578947368421" y="517.5368421052631" type="line"/>
      <point x="663.7578947368421" y="513.4842105263158"/>
      <point x="602.1894736842105" y="513.0736842105263"/>
      <point x="549.0315789473683" y="513.0736842105263" type="curve"/>
      <point x="305.6" y="513.0736842105263" type="line"/>
      <point x="252.44210526315788" y="513.0736842105263"/>
      <point x="190.8736842105263" y="513.4842105263158"/>
      <point x="126.71578947368421" y="517.5368421052631" type="curve"/>
    </contour>
    <contour>
      <point x="294.7368421052632" y="0.0" type="curve"/>
      <point x="398.65263157894736" y="0.0" type="line"/>
      <point x="419.85263157894735" y="68.41052631578947"/>
      <point x="443.2631578947368" y="129.2842105263158"/>
      <point x="477.0315789473684" y="213.10526315789474" type="curve"/>
      <point x="569.9263157894737" y="443.5684210526316" type="line"/>
      <point x="606.2842105263157" y="533.8"/>
      <point x="630.2315789473685" y="589.5684210526317"/>
      <point x="664.7473684210527" y="661.2105263157895" type="curve"/>
      <point x="561.6526315789474" y="661.2105263157895" type="line"/>
      <point x="538.9894736842105" y="587.9263157894738"/>
      <point x="516.8631578947369" y="531.3894736842105"/>
      <point x="481.5052631578947" y="443.56842105263155" type="curve"/>
      <point x="388.61052631578946" y="213.10526315789474" type="line"/>
      <point x="354.8421052631579" y="129.87368421052633"/>
      <point x="327.6105263157895" y="66.76842105263157"/>
    </contour>
  </outline>
</glyph>
<glyph name="dollar" format="2">
  <advance width="566.7789473684211"/>
  <unicode hex="0024"/>
  <outline>
    <contour>
      <point x="258.4631578947368" y="-11.463157894736842" type="curve" smooth="yes"/>
      <point x="414.93684210526317" y="-11.463157894736842"/>
      <point x="490.04210526315796" y="46.84210526315789"/>
      <point x="514.3263157894737" y="164.26315789473685" type="curve" smooth="yes"/>
      <point x="535.2" y="264.2210526315789"/>
      <point x="496.37894736842105" y="326.6315789473684"/>
      <point x="349.0736842105263" y="385.8842105263158" type="curve" smooth="yes"/>
      <point x="234.31578947368422" y="432.6210526315789"/>
      <point x="196.06315789473686" y="463.2315789473684"/>
      <point x="208.7263157894737" y="521.3684210526316" type="curve" smooth="yes"/>
      <point x="222.1578947368421" y="586.1684210526315"/>
      <point x="288.11578947368423" y="602.8315789473684"/>
      <point x="354.69473684210527" y="602.8315789473684" type="curve"/>
      <point x="388.6947368421052" y="602.8315789473684"/>
      <point x="460.62105263157895" y="582.7789473684212"/>
      <point x="542.3157894736843" y="541.1894736842105" type="curve"/>
      <point x="574.7894736842105" y="639.2842105263157" type="line"/>
      <point x="521.7368421052631" y="659.5894736842106"/>
      <point x="425.0315789473684" y="697.6421052631579"/>
      <point x="349.3578947368421" y="697.6421052631579" type="curve" smooth="yes"/>
      <point x="205.9894736842105" y="697.6421052631579"/>
      <point x="129.16842105263157" y="641.1789473684211"/>
      <point x="106.88421052631578" y="534.3473684210527" type="curve" smooth="yes"/>
      <point x="82.42105263157895" y="418.3894736842105"/>
      <point x="141.47368421052633" y="364.2842105263158"/>
      <point x="264.5684210526316" y="312.67368421052635" type="curve" smooth="yes"/>
      <point x="362.32631578947365" y="271.7052631578947"/>
      <point x="425.14736842105265" y="237.14736842105265"/>
      <point x="412.0736842105263" y="174.3684210526316" type="curve" smooth="yes"/>
      <point x="396.69473684210527" y="99.6"/>
      <point x="331.7894736842105" y="81.70526315789473"/>
      <point x="260.9263157894737" y="81.70526315789473" type="curve"/>
      <point x="200.3894736842105" y="81.70526315789473"/>
      <point x="118.3578947368421" y="111.57894736842105"/>
      <point x="46.821052631578944" y="152.5263157894737" type="curve"/>
      <point x="15.34736842105263" y="50.55789473684211" type="line"/>
      <point x="68.7578947368421" y="27.84210526315789"/>
      <point x="153.68421052631578" y="-11.463157894736842"/>
    </contour>
    <contour>
      <point x="159.42105263157896" y="-137.0" type="curve"/>
      <point x="255.0" y="-137.0" type="line"/>
      <point x="274.30526315789473" y="-20.0"/>
      <point x="295.89473684210526" y="84.0"/>
      <point x="318.89473684210526" y="192.0" type="curve"/>
      <point x="378.89473684210526" y="474.0" type="line"/>
      <point x="401.89473684210526" y="582.0"/>
      <point x="424.30526315789473" y="686.0"/>
      <point x="455.0" y="803.0" type="curve"/>
      <point x="359.42105263157896" y="803.0" type="line"/>
      <point x="340.11578947368423" y="686.0"/>
      <point x="318.5263157894737" y="582.0"/>
      <point x="295.5263157894737" y="474.0" type="curve"/>
      <point x="235.5263157894737" y="192.0" type="line"/>
      <point x="212.5263157894737" y="84.0"/>
      <point x="189.70526315789476" y="-20.0"/>
    </contour>
  </outline>
</glyph>
<glyph name="ampersand" format="2">
  <advance width="749.448275862069"/>
  <unicode hex="0026"/>
  <outline>
    <contour>
      <point x="544.3793103448276" y="0.0" type="curve"/>
      <point x="687.1034482758622" y="0.0" type="line"/>
      <point x="630.4482758620688" y="64.55172413793103"/>
      <point x="578.4827586206897" y="130.10344827586206"/>
      <point x="529.0" y="193.86206896551724" type="curve"/>
      <point x="354.9310344827586" y="419.68965517241384" type="line" smooth="yes"/>
      <point x="312.48275862068965" y="475.0344827586207"/>
      <point x="299.55172413793105" y="519.4827586206897"/>
      <point x="310.86206896551727" y="571.1379310344828" type="curve" smooth="yes"/>
      <point x="322.2758620689655" y="621.2068965517241"/>
      <point x="356.1379310344828" y="642.6896551724138"/>
      <point x="407.0344827586207" y="644.6896551724138" type="curve"/>
      <point x="458.58620689655174" y="641.7931034482759"/>
      <point x="494.51724137931035" y="609.6206896551724"/>
      <point x="484.0" y="555.3448275862069" type="curve" smooth="yes"/>
      <point x="473.2758620689655" y="498.448275862069"/>
      <point x="411.68965517241384" y="468.7241379310345"/>
      <point x="341.41379310344826" y="432.2068965517241" type="curve"/>
      <point x="391.6896551724138" y="368.7586206896552" type="line"/>
      <point x="467.7241379310345" y="408.6551724137931"/>
      <point x="564.0344827586207" y="450.7586206896552"/>
      <point x="583.0344827586207" y="542.1724137931035" type="curve" smooth="yes"/>
      <point x="603.8275862068965" y="643.3448275862069"/>
      <point x="522.9999999999999" y="726.7931034482758"/>
      <point x="407.13793103448273" y="726.7931034482758" type="curve" smooth="yes"/>
      <point x="311.48275862068965" y="726.7931034482758"/>
      <point x="225.3448275862069" y="680.9655172413793"/>
      <point x="205.44827586206898" y="581.5172413793103" type="curve" smooth="yes"/>
      <point x="189.24137931034483" y="501.7931034482758"/>
      <point x="219.6551724137931" y="430.51724137931035"/>
      <point x="266.48275862068965" y="369.0" type="curve" smooth="yes"/>
      <point x="446.93103448275866" y="136.0" type="line"/>
      <point x="482.2413793103448" y="91.0"/>
      <point x="518.551724137931" y="44.0"/>
    </contour>
    <contour>
      <point x="236.10344827586204" y="-10.793103448275861" type="curve" smooth="yes"/>
      <point x="321.0344827586207" y="-10.793103448275861"/>
      <point x="385.551724137931" y="35.75862068965517"/>
      <point x="464.17241379310343" y="99.99999999999999" type="curve"/>
      <point x="477.9655172413793" y="99.99999999999999" type="line"/>
      <point x="471.58620689655174" y="119.06896551724138" type="line"/>
      <point x="424.2758620689655" y="181.89655172413794" type="line"/>
      <point x="363.1724137931035" y="115.82758620689654"/>
      <point x="305.3448275862069" y="81.17241379310346"/>
      <point x="250.44827586206895" y="81.17241379310346" type="curve"/>
      <point x="162.0344827586207" y="84.0689655172414"/>
      <point x="127.3448275862069" y="141.6551724137931"/>
      <point x="141.96551724137933" y="210.86206896551724" type="curve" smooth="yes"/>
      <point x="156.6896551724138" y="281.2758620689655"/>
      <point x="210.58620689655172" y="319.3103448275862"/>
      <point x="291.10344827586204" y="349.9310344827586" type="curve"/>
      <point x="251.51724137931032" y="418.17241379310343" type="line"/>
      <point x="152.20689655172416" y="385.2758620689655"/>
      <point x="60.86206896551724" y="328.8965517241379"/>
      <point x="36.6551724137931" y="212.27586206896552" type="curve" smooth="yes"/>
      <point x="13.758620689655169" y="102.10344827586206"/>
      <point x="84.93103448275862" y="-10.793103448275861"/>
    </contour>
    <contour>
      <point x="541.8620689655173" y="170.20689655172413" type="line"/>
      <point x="602.2413793103448" y="231.6206896551724"/>
      <point x="659.5172413793103" y="290.82758620689657"/>
      <point x="723.5862068965517" y="348.44827586206895" type="curve"/>
      <point x="628.9310344827586" y="415.9655172413793" type="line"/>
      <point x="585.4137931034484" y="351.9655172413793"/>
      <point x="537.3103448275863" y="294.86206896551727"/>
      <point x="486.0" y="234.34482758620692" type="curve"/>
    </contour>
  </outline>
</glyph>
<glyph name="parenleft" format="2">
  <advance width="395.61052631578946"/>
  <unicode hex="0028"/>
  <outline>
    <contour>
      <point x="202.78947368421052" y="-125.54736842105262" type="curve"/>
      <point x="294.4421052631579" y="-94.43157894736842" type="line"/>
      <point x="207.4210526315789" y="27.568421052631578"/>
      <point x="145.57894736842107" y="155.71578947368423"/>
      <point x="184.16842105263157" y="336.0736842105263" type="curve" smooth="yes"/>
      <point x="222.7578947368421" y="517.4315789473685"/>
      <point x="336.9578947368421" y="635.7894736842106"/>
      <point x="468.80000000000007" y="736.4315789473684" type="curve"/>
      <point x="379.37894736842105" y="772.7263157894737" type="line"/>
      <point x="254.0526315789474" y="680.6842105263158"/>
      <point x="117.45263157894738" y="549.6526315789473"/>
      <point x="74.98947368421052" y="348.9263157894737" type="curve" smooth="yes"/>
      <point x="32.526315789473685" y="148.78947368421052"/>
      <point x="118.71578947368423" y="-13.147368421052626"/>
    </contour>
  </outline>
</glyph>
<glyph name="asterisk" format="2">
  <advance width="480.57894736842104"/>
  <unicode hex="002A"/>
  <outline>
    <contour>
      <point x="436.41052631578947" y="330.11578947368423" type="curve"/>
      <point x="491.37894736842105" y="390.1894736842105" type="line"/>
      <point x="430.4526315789473" y="436.31578947368416"/>
      <point x="371.1684210526316" y="484.44210526315794"/>
      <point x="313.06315789473683" y="532.978947368421" type="curve"/>
      <point x="259.4736842105263" y="589.0315789473684"/>
      <point x="208.29473684210527" y="644.9052631578948"/>
      <point x="157.52631578947367" y="702.6" type="curve"/>
      <point x="103.14736842105263" y="642.5263157894738" type="line"/>
      <point x="163.07368421052632" y="596.4"/>
      <point x="223.17894736842103" y="547.8631578947368"/>
      <point x="280.87368421052633" y="498.32631578947365" type="curve"/>
      <point x="334.05263157894734" y="443.2736842105263"/>
      <point x="385.6421052631579" y="386.9894736842105"/>
    </contour>
    <contour>
      <point x="94.31578947368422" y="403.24210526315795" type="line"/>
      <point x="163.7263157894737" y="434.93684210526317"/>
      <point x="233.54736842105262" y="464.8105263157895"/>
      <point x="304.9578947368421" y="494.2736842105263" type="curve"/>
      <point x="377.8315789473684" y="515.1684210526315"/>
      <point x="451.88421052631577" y="535.0631578947368"/>
      <point x="525.7578947368421" y="552.9578947368421" type="curve"/>
      <point x="499.62105263157895" y="629.4736842105264" type="line"/>
      <point x="430.2105263157895" y="597.3684210526316"/>
      <point x="360.3894736842105" y="567.4947368421052"/>
      <point x="289.9789473684211" y="539.0315789473684" type="curve"/>
      <point x="216.10526315789474" y="517.1368421052632"/>
      <point x="142.6421052631579" y="497.83157894736837"/>
      <point x="67.76842105263157" y="479.7578947368421" type="curve"/>
    </contour>
    <contour>
      <point x="209.27368421052628" y="301.58947368421053" type="curve"/>
      <point x="289.021052631579" y="284.14736842105265" type="line"/>
      <point x="297.91578947368424" y="360.2"/>
      <point x="308.63157894736844" y="436.25263157894733"/>
      <point x="319.7578947368421" y="512.4842105263158" type="curve"/>
      <point x="340.4526315789474" y="585.3052631578947"/>
      <point x="361.14736842105265" y="658.7157894736841"/>
      <point x="384.2526315789474" y="731.5368421052632" type="curve"/>
      <point x="304.9157894736842" y="748.5684210526316" type="line"/>
      <point x="296.0210526315789" y="672.5157894736842"/>
      <point x="285.30526315789473" y="596.8736842105262"/>
      <point x="274.17894736842106" y="522.0" type="curve"/>
      <point x="253.4842105263158" y="447.41052631578947"/>
      <point x="232.78947368421052" y="374.0"/>
    </contour>
  </outline>
</glyph>
<glyph name="plus" format="2">
  <advance width="592.9052631578946"/>
  <unicode hex="002B"/>
  <outline>
    <contour>
      <point x="201.1578947368421" y="56.37894736842105" type="curve"/>
      <point x="309.64210526315793" y="56.37894736842105" type="line"/>
      <point x="319.82105263157894" y="120.76842105263157"/>
      <point x="332.05263157894734" y="182.92631578947368"/>
      <point x="343.2842105263158" y="235.67368421052632" type="curve"/>
      <point x="370.82105263157894" y="364.58947368421053" type="line"/>
      <point x="382.4631578947368" y="418.5684210526316"/>
      <point x="396.10526315789474" y="480.13684210526316"/>
      <point x="413.8" y="545.1157894736842" type="curve"/>
      <point x="305.3157894736842" y="545.1157894736842" type="line"/>
      <point x="295.1368421052632" y="480.7263157894737"/>
      <point x="282.90526315789475" y="418.5684210526316"/>
      <point x="271.2631578947369" y="364.17894736842106" type="curve"/>
      <point x="243.7263157894737" y="235.67368421052632" type="line"/>
      <point x="232.49473684210525" y="182.92631578947368"/>
      <point x="218.85263157894738" y="120.76842105263157"/>
    </contour>
    <contour>
      <point x="57.70526315789473" y="248.4421052631579" type="line"/>
      <point x="124.09473684210528" y="252.49473684210528"/>
      <point x="185.66315789473686" y="252.90526315789475"/>
      <point x="238.82105263157894" y="252.90526315789475" type="curve"/>
      <point x="356.3578947368421" y="252.90526315789475" type="line"/>
      <point x="409.51578947368426" y="252.90526315789475"/>
      <point x="471.0842105263158" y="252.49473684210528"/>
      <point x="534.6526315789474" y="248.4421052631579" type="curve"/>
      <point x="557.4315789473684" y="353.0526315789474" type="line"/>
      <point x="491.4526315789474" y="349.0"/>
      <point x="429.8842105263158" y="348.58947368421053"/>
      <point x="376.7263157894737" y="348.58947368421053" type="curve"/>
      <point x="259.1894736842105" y="348.58947368421053" type="line"/>
      <point x="206.03157894736844" y="348.58947368421053"/>
      <point x="144.46315789473687" y="349.0"/>
      <point x="80.48421052631579" y="353.0526315789474" type="curve"/>
    </contour>
  </outline>
</glyph>
<glyph name="comma" format="2">
  <advance width="237.81052631578947"/>
  <unicode hex="002C"/>
  <outline>
    <contour>
      <point x="-60.93684210526315" y="-157.0" type="curve"/>
      <point x="4.957894736842103" y="-155.58947368421053" type="line"/>
      <point x="52.36842105263156" y="-109.28421052631579"/>
      <point x="135.64210526315787" y="-17.66315789473684"/>
      <point x="150.69473684210527" y="55.599999999999994" type="curve" smooth="yes"/>
      <point x="159.38947368421051" y="98.66315789473686"/>
      <point x="147.46315789473684" y="131.67368421052632"/>
      <point x="104.1157894736842" y="141.0105263157895" type="curve"/>
      <point x="42.57894736842106" y="136.7263157894737" type="line"/>
      <point x="42.22105263157895" y="100.0"/>
      <point x="37.400000000000006" y="63.27368421052631"/>
      <point x="30.34736842105264" y="29.010526315789473" type="curve"/>
      <point x="17.936842105263164" y="-30.452631578947365"/>
      <point x="-15.273684210526318" y="-98.41052631578948"/>
    </contour>
  </outline>
</glyph>
<glyph name="hyphen" format="2">
  <advance width="424.10526315789474"/>
  <unicode hex="002D"/>
  <outline>
    <contour>
      <point x="57.29473684210525" y="246.38947368421051" type="line"/>
      <point x="113.63157894736842" y="250.44210526315788"/>
      <point x="166.55789473684212" y="250.85263157894735"/>
      <point x="212.07368421052632" y="250.85263157894735" type="curve"/>
      <point x="257.58947368421053" y="250.85263157894735"/>
      <point x="310.5157894736842" y="250.44210526315788"/>
      <point x="366.0315789473684" y="246.38947368421051" type="curve"/>
      <point x="387.8105263157895" y="351.0" type="line"/>
      <point x="330.8842105263158" y="346.9473684210526"/>
      <point x="277.5473684210527" y="346.53684210526313"/>
      <point x="232.03157894736842" y="346.53684210526313" type="curve"/>
      <point x="186.5157894736842" y="346.53684210526313"/>
      <point x="134.0" y="346.9473684210526"/>
      <point x="79.0736842105263" y="351.0" type="curve"/>
    </contour>
  </outline>
</glyph>
<glyph name="slash" format="2">
  <advance width="457.29473684210524"/>
  <unicode hex="002F"/>
  <outline>
    <contour>
      <point x="-31.65263157894737" y="0.0" type="curve"/>
      <point x="96.19999999999999" y="0.0" type="line"/>
      <point x="134.9894736842105" y="74.0"/>
      <point x="172.29473684210527" y="137.0"/>
      <point x="228.77894736842106" y="228.0" type="curve"/>
      <point x="379.8736842105263" y="474.0" type="line"/>
      <point x="439.3578947368421" y="571.0"/>
      <point x="479.89473684210526" y="636.0"/>
      <point x="534.1263157894737" y="713.0" type="curve"/>
      <point x="406.6842105263158" y="713.0" type="line"/>
      <point x="365.7157894736842" y="636.0"/>
      <point x="327.0" y="571.0"/>
      <point x="268.9263157894737" y="476.41052631578947" type="curve"/>
      <point x="116.42105263157895" y="228.0" type="line"/>
      <point x="59.93684210526315" y="137.0"/>
      <point x="19.399999999999995" y="74.0"/>
    </contour>
  </outline>
</glyph>
<glyph name="zero" format="2">
  <advance width="657.3684210526316"/>
  <unicode hex="0030"/>
  <outline>
    <contour>
      <point x="307.4421052631579" y="-11.463157894736842" type="curve" smooth="yes"/>
      <point x="478.32631578947365" y="-11.463157894736842"/>
      <point x="575.5578947368421" y="99.23157894736842"/>
      <point x="620.5578947368421" y="310.87368421052633" type="curve" smooth="yes"/>
      <point x="666.3263157894736" y="528.0"/>
      <point x="590.2736842105263" y="700.1052631578947"/>
      <point x="395.41052631578947" y="700.1052631578947" type="curve" smooth="yes"/>
      <point x="217.93684210526317" y="700.1052631578947"/>
      <point x="119.81052631578947" y="582.4105263157894"/>
      <point x="77.4" y="378.12631578947367" type="curve" smooth="yes"/>
      <point x="33.452631578947376" y="167.69473684210527"/>
      <point x="101.63157894736844" y="-11.463157894736842"/>
    </contour>
    <contour>
      <point x="310.7263157894737" y="84.16842105263157" type="curve"/>
      <point x="191.29473684210524" y="88.81052631578947"/>
      <point x="159.17894736842103" y="210.2"/>
      <point x="192.14736842105262" y="365.9684210526316" type="curve" smooth="yes"/>
      <point x="222.9894736842105" y="512.0526315789474"/>
      <point x="281.2842105263158" y="599.421052631579"/>
      <point x="393.3578947368421" y="604.0631578947368" type="curve"/>
      <point x="502.4842105263158" y="599.421052631579"/>
      <point x="541.0105263157894" y="483.74736842105267"/>
      <point x="506.6315789473684" y="322.0315789473684" type="curve" smooth="yes"/>
      <point x="475.7894736842105" y="177.58947368421053"/>
      <point x="421.44210526315794" y="88.81052631578947"/>
    </contour>
  </outline>
</glyph>
<glyph name="one" format="2">
  <advance width="441.66315789473686"/>
  <unicode hex="0031"/>
  <outline>
    <contour>
      <point x="102.02105263157895" y="458.36842105263156" type="line"/>
      <point x="184.66315789473686" y="503.59999999999997"/>
      <point x="268.5368421052632" y="542.7263157894737"/>
      <point x="352.58947368421053" y="581.0315789473684" type="curve"/>
      <point x="378.06315789473683" y="690.1052631578947" type="line"/>
      <point x="282.8" y="646.1052631578947"/>
      <point x="188.1263157894737" y="602.6947368421053"/>
      <point x="92.68421052631578" y="565.8" type="curve"/>
    </contour>
    <contour>
      <point x="165.56842105263158" y="0.0" type="curve"/>
      <point x="295.4" y="0.0" type="line"/>
      <point x="305.47368421052636" y="72.53684210526316"/>
      <point x="315.6" y="135.4842105263158"/>
      <point x="333.0105263157895" y="217.7157894736842" type="curve"/>
      <point x="381.8315789473684" y="447.82105263157894" type="line"/>
      <point x="399.0105263157895" y="530.3578947368421"/>
      <point x="418.2421052631579" y="610.5368421052631"/>
      <point x="440.9894736842105" y="686.4631578947368" type="curve"/>
      <point x="378.06315789473683" y="690.1052631578947" type="line"/>
      <point x="304.8736842105263" y="638.8526315789474" type="line"/>
      <point x="294.15789473684214" y="567.5473684210527"/>
      <point x="280.38947368421054" y="499.0105263157895"/>
      <point x="265.2105263157895" y="427.70526315789476" type="curve"/>
      <point x="220.90526315789472" y="217.7157894736842" type="line"/>
      <point x="203.49473684210525" y="135.4842105263158"/>
      <point x="186.85263157894738" y="72.53684210526316"/>
    </contour>
  </outline>
</glyph>
<glyph name="two" format="2">
  <advance width="560.2421052631579"/>
  <unicode hex="0032"/>
  <outline>
    <contour>
      <point x="-5.568421052631578" y="0.0" type="line"/>
      <point x="458.5052631578947" y="0.0" type="line"/>
      <point x="481.51578947368415" y="108.12631578947368" type="line"/>
      <point x="406.9052631578947" y="98.73684210526315"/>
      <point x="333.1684210526316" y="97.32631578947368"/>
      <point x="260.61052631578946" y="97.32631578947368" type="curve"/>
      <point x="127.26315789473684" y="97.32631578947368" type="line"/>
      <point x="140.42105263157896" y="71.13684210526316" type="line"/>
      <point x="264.53684210526313" y="158.43157894736842" type="line"/>
      <point x="435.36842105263156" y="278.38947368421054"/>
      <point x="524.2526315789473" y="360.94736842105266"/>
      <point x="547.6105263157895" y="472.9157894736842" type="curve" smooth="yes"/>
      <point x="573.8947368421053" y="599.0526315789474"/>
      <point x="505.4736842105263" y="700.1052631578947"/>
      <point x="350.2315789473684" y="700.1052631578947" type="curve" smooth="yes"/>
      <point x="284.64210526315793" y="700.1052631578947"/>
      <point x="185.82105263157894" y="666.0315789473684"/>
      <point x="126.07368421052632" y="646.4947368421053" type="curve"/>
      <point x="114.39999999999999" y="529.3157894736842" type="line"/>
      <point x="200.77894736842103" y="575.6736842105264"/>
      <point x="292.2421052631579" y="603.2421052631579"/>
      <point x="325.59999999999997" y="603.2421052631579" type="curve"/>
      <point x="412.86315789473684" y="601.421052631579"/>
      <point x="447.88421052631577" y="548.9473684210526"/>
      <point x="431.81052631578945" y="474.1684210526316" type="curve" smooth="yes"/>
      <point x="411.5052631578947" y="377.4631578947368"/>
      <point x="309.76842105263154" y="297.5473684210526"/>
      <point x="148.98947368421054" y="179.07368421052632" type="curve"/>
      <point x="102.5578947368421" y="145.41052631578947"/>
      <point x="57.768421052631574" y="115.03157894736842"/>
      <point x="12.336842105263159" y="86.2421052631579" type="curve"/>
    </contour>
  </outline>
</glyph>
<glyph name="three" format="2">
  <advance width="576.2413793103448"/>
  <unicode hex="0033"/>
  <outline>
    <contour>
      <point x="242.58620689655174" y="-11.689655172413794" type="curve" smooth="yes"/>
      <point x="410.2068965517241" y="-11.689655172413794"/>
      <point x="488.99999999999994" y="49.41379310344828"/>
      <point x="512.7931034482758" y="161.48275862068965" type="curve" smooth="yes"/>
      <point x="535.7931034482758" y="270.8965517241379"/>
      <point x="463.6551724137931" y="336.62068965517244"/>
      <point x="402.7586206896552" y="353.41379310344826" type="curve"/>
      <point x="404.6551724137931" y="363.89655172413796" type="line"/>
      <point x="481.17241379310343" y="378.0"/>
      <point x="543.5862068965517" y="415.82758620689657"/>
      <point x="561.5862068965517" y="500.72413793103453" type="curve" smooth="yes"/>
      <point x="584.6896551724138" y="610.5172413793103"/>
      <point x="501.20689655172407" y="700.4827586206897"/>
      <point x="358.0" y="700.4827586206897" type="curve" smooth="yes"/>
      <point x="294.0" y="700.4827586206897"/>
      <point x="197.31034482758622" y="665.9655172413794"/>
      <point x="138.13793103448276" y="646.6551724137931" type="curve"/>
      <point x="126.37931034482759" y="530.448275862069" type="line"/>
      <point x="211.20689655172416" y="575.7586206896551"/>
      <point x="301.68965517241384" y="603.0344827586207"/>
      <point x="334.6896551724137" y="603.0344827586207" type="curve"/>
      <point x="414.2758620689656" y="601.1379310344828"/>
      <point x="458.2413793103448" y="561.1724137931035"/>
      <point x="443.6206896551724" y="493.0689655172414" type="curve" smooth="yes"/>
      <point x="430.10344827586204" y="431.3793103448276"/>
      <point x="376.51724137931035" y="401.3103448275862"/>
      <point x="265.6551724137931" y="399.51724137931035" type="curve"/>
      <point x="243.3793103448276" y="399.51724137931035"/>
      <point x="220.89655172413794" y="400.41379310344826"/>
      <point x="199.51724137931035" y="404.1034482758621" type="curve"/>
      <point x="178.17241379310346" y="304.86206896551727" type="line"/>
      <point x="202.24137931034483" y="307.65517241379314"/>
      <point x="226.6206896551724" y="308.55172413793105"/>
      <point x="250.68965517241375" y="308.55172413793105" type="curve"/>
      <point x="362.55172413793105" y="307.6551724137931"/>
      <point x="417.0344827586207" y="257.6551724137931"/>
      <point x="400.31034482758616" y="181.82758620689654" type="curve" smooth="yes"/>
      <point x="386.6896551724138" y="118.72413793103448"/>
      <point x="341.6206896551724" y="86.75862068965517"/>
      <point x="243.48275862068965" y="84.86206896551724" type="curve"/>
      <point x="182.86206896551724" y="84.86206896551724"/>
      <point x="103.6896551724138" y="115.55172413793103"/>
      <point x="31.965517241379317" y="156.75862068965517" type="curve"/>
      <point x="0.13793103448275712" y="51.03448275862069" type="line"/>
      <point x="54.137931034482754" y="29.51724137931035"/>
      <point x="138.93103448275863" y="-11.689655172413794"/>
    </contour>
  </outline>
</glyph>
<glyph name="four" format="2">
  <advance width="605.1379310344828"/>
  <unicode hex="0034"/>
  <outline>
    <contour>
      <point x="288.448275862069" y="0.0" type="curve"/>
      <point x="418.48275862068965" y="0.0" type="line"/>
      <point x="424.10344827586204" y="64.58620689655173"/>
      <point x="435.0" y="117.06896551724137"/>
      <point x="450.8965517241379" y="193.44827586206898" type="curve"/>
      <point x="504.2068965517241" y="445.6896551724138" type="line"/>
      <point x="520.3103448275863" y="524.6896551724138"/>
      <point x="538.1034482758621" y="603.6896551724138"/>
      <point x="564.4827586206897" y="686.6896551724138" type="curve"/>
      <point x="432.44827586206895" y="686.6896551724138" type="line"/>
      <point x="399.62068965517244" y="643.3793103448276"/>
      <point x="360.10344827586204" y="598.8620689655172"/>
      <point x="320.6896551724138" y="555.448275862069" type="curve"/>
      <point x="208.75862068965517" y="432.62068965517244" type="line"/>
      <point x="153.13793103448276" y="371.10344827586204"/>
      <point x="76.51724137931035" y="289.27586206896547"/>
      <point x="25.79310344827586" y="238.24137931034483" type="curve"/>
      <point x="8.241379310344827" y="152.86206896551724" type="line"/>
      <point x="374.551724137931" y="152.86206896551724" type="line"/>
      <point x="429.6206896551724" y="152.86206896551724"/>
      <point x="508.48275862068965" y="151.9655172413793"/>
      <point x="557.6551724137931" y="147.27586206896552" type="curve"/>
      <point x="580.7931034482758" y="256.58620689655174" type="line"/>
      <point x="529.7241379310344" y="251.0"/>
      <point x="449.0689655172414" y="250.10344827586206"/>
      <point x="394.0" y="250.10344827586206" type="curve"/>
      <point x="379.2068965517242" y="250.10344827586206" type="line"/>
      <point x="118.44827586206897" y="250.10344827586206" type="line"/>
      <point x="124.93103448275862" y="208.89655172413794" type="line"/>
      <point x="160.6551724137931" y="252.41379310344828"/>
      <point x="199.06896551724137" y="296.7241379310345"/>
      <point x="238.58620689655172" y="340.2413793103448" type="curve"/>
      <point x="388.44827586206895" y="504.10344827586204" type="line"/>
      <point x="434.8620689655172" y="555.5172413793103"/>
      <point x="479.58620689655174" y="603.3448275862069"/>
      <point x="525.1034482758621" y="646.4827586206895" type="curve"/>
      <point x="428.6551724137931" y="636.1034482758621" type="line"/>
      <point x="420.0344827586207" y="565.7931034482758"/>
      <point x="405.9310344827586" y="496.2758620689655"/>
      <point x="390.82758620689657" y="425.0689655172414" type="curve"/>
      <point x="345.8965517241379" y="212.72413793103448" type="line"/>
      <point x="338.4137931034483" y="193.44827586206898" type="line"/>
      <point x="322.51724137931035" y="117.06896551724137"/>
      <point x="310.62068965517244" y="64.58620689655173"/>
    </contour>
  </outline>
</glyph>
<glyph name="five" format="2">
  <advance width="578.7586206896551"/>
  <unicode hex="0035"/>
  <outline>
    <contour>
      <point x="237.58620689655172" y="-11.689655172413794" type="curve" smooth="yes"/>
      <point x="403.0" y="-11.689655172413794"/>
      <point x="492.20689655172407" y="59.6896551724138"/>
      <point x="522.103448275862" y="201.9655172413793" type="curve" smooth="yes"/>
      <point x="553.2068965517241" y="349.9655172413793"/>
      <point x="463.37931034482756" y="446.44827586206895"/>
      <point x="346.8620689655172" y="446.44827586206895" type="curve" smooth="yes"/>
      <point x="303.8965517241379" y="446.44827586206895"/>
      <point x="271.8620689655172" y="435.03448275862075"/>
      <point x="235.6206896551724" y="418.2068965517241" type="curve"/>
      <point x="226.0344827586207" y="418.2068965517241" type="line"/>
      <point x="234.34482758620692" y="456.8620689655172" type="line"/>
      <point x="246.6551724137931" y="512.8275862068966"/>
      <point x="260.06896551724134" y="570.6896551724137"/>
      <point x="275.9655172413793" y="626.7586206896551" type="curve"/>
      <point x="224.10344827586206" y="589.448275862069" type="line"/>
      <point x="325.4137931034482" y="589.448275862069" type="line"/>
      <point x="403.7241379310345" y="589.448275862069"/>
      <point x="484.9310344827586" y="588.551724137931"/>
      <point x="562.344827586207" y="578.3793103448276" type="curve"/>
      <point x="584.5862068965517" y="686.6896551724138" type="line"/>
      <point x="166.17241379310346" y="686.6896551724138" type="line"/>
      <point x="157.6551724137931" y="607.5172413793103"/>
      <point x="139.86206896551727" y="520.3448275862069"/>
      <point x="120.06896551724138" y="427.2758620689655" type="curve"/>
      <point x="97.27586206896552" y="317.3103448275862" type="line"/>
      <point x="145.44827586206895" y="313.51724137931035" type="line"/>
      <point x="200.51724137931035" y="344.0689655172414"/>
      <point x="240.0344827586207" y="354.37931034482756"/>
      <point x="287.5862068965517" y="354.37931034482756" type="curve"/>
      <point x="369.96551724137936" y="352.48275862068965"/>
      <point x="426.8620689655172" y="304.4137931034483"/>
      <point x="407.8275862068965" y="209.6551724137931" type="curve" smooth="yes"/>
      <point x="390.0" y="121.62068965517241"/>
      <point x="331.62068965517244" y="86.75862068965517"/>
      <point x="237.48275862068968" y="84.86206896551724" type="curve"/>
      <point x="177.9655172413793" y="84.86206896551724"/>
      <point x="101.6896551724138" y="115.55172413793103"/>
      <point x="31.965517241379317" y="156.75862068965517" type="curve"/>
      <point x="0.13793103448275712" y="51.03448275862069" type="line"/>
      <point x="53.13793103448276" y="29.51724137931035"/>
      <point x="135.93103448275863" y="-11.689655172413794"/>
    </contour>
  </outline>
</glyph>
<glyph name="six" format="2">
  <advance width="611.551724137931"/>
  <unicode hex="0036"/>
  <outline>
    <contour>
      <point x="294.0689655172414" y="-11.689655172413794" type="curve" smooth="yes"/>
      <point x="451.0" y="-11.689655172413794"/>
      <point x="533.1034482758621" y="88.27586206896551"/>
      <point x="557.1034482758621" y="201.6896551724138" type="curve" smooth="yes"/>
      <point x="585.7931034482759" y="335.6551724137931"/>
      <point x="512.1034482758621" y="448.44827586206895"/>
      <point x="378.17241379310343" y="448.44827586206895" type="curve" smooth="yes"/>
      <point x="317.4137931034483" y="448.44827586206895"/>
      <point x="244.93103448275858" y="412.0"/>
      <point x="200.31034482758622" y="374.6896551724138" type="curve"/>
      <point x="184.7241379310345" y="375.6896551724138" type="line"/>
      <point x="152.82758620689654" y="334.7931034482759"/>
      <point x="148.82758620689657" y="318.58620689655174"/>
      <point x="165.65517241379308" y="281.44827586206895" type="curve"/>
      <point x="216.44827586206895" y="326.72413793103453"/>
      <point x="284.65517241379314" y="356.2758620689655"/>
      <point x="337.7241379310345" y="357.2758620689655" type="curve"/>
      <point x="430.48275862068965" y="354.48275862068965"/>
      <point x="464.7241379310345" y="287.7586206896552"/>
      <point x="449.10344827586204" y="214.75862068965517" type="curve" smooth="yes"/>
      <point x="433.48275862068965" y="141.75862068965517"/>
      <point x="383.5172413793104" y="87.75862068965517"/>
      <point x="296.65517241379314" y="84.86206896551724" type="curve"/>
      <point x="193.17241379310346" y="90.44827586206897"/>
      <point x="145.82758620689657" y="177.58620689655172"/>
      <point x="181.44827586206898" y="343.68965517241384" type="curve" smooth="yes"/>
      <point x="220.48275862068968" y="528.3448275862069"/>
      <point x="288.7586206896551" y="600.1379310344828"/>
      <point x="409.9655172413793" y="603.0344827586207" type="curve"/>
      <point x="437.86206896551727" y="603.0344827586207"/>
      <point x="507.6551724137931" y="584.3448275862069"/>
      <point x="576.2758620689655" y="549.8275862068966" type="curve"/>
      <point x="608.8965517241379" y="652.8620689655172" type="line"/>
      <point x="560.4137931034484" y="670.0689655172414"/>
      <point x="470.34482758620686" y="700.4827586206897"/>
      <point x="409.9655172413793" y="700.4827586206897" type="curve" smooth="yes"/>
      <point x="245.55172413793102" y="700.4827586206897"/>
      <point x="125.93103448275863" y="606.6896551724138"/>
      <point x="73.3448275862069" y="358.55172413793105" type="curve" smooth="yes"/>
      <point x="26.551724137931036" y="133.8965517241379"/>
      <point x="110.24137931034483" y="-11.689655172413794"/>
    </contour>
  </outline>
</glyph>
<glyph name="seven" format="2">
  <advance width="536.4526315789474"/>
  <unicode hex="0037"/>
  <outline>
    <contour>
      <point x="44.77894736842106" y="0.0" type="curve"/>
      <point x="189.41052631578947" y="0.0" type="line"/>
      <point x="232.50526315789472" y="79.84210526315789"/>
      <point x="281.4736842105263" y="159.86315789473684"/>
      <point x="332.7263157894737" y="238.1157894736842" type="curve"/>
      <point x="421.46315789473687" y="373.4421052631579" type="line"/>
      <point x="474.4842105263158" y="454.64210526315793"/>
      <point x="522.9157894736841" y="528.8421052631579"/>
      <point x="573.3473684210527" y="600.5263157894738" type="curve"/>
      <point x="591.6631578947369" y="686.4631578947368" type="line"/>
      <point x="117.0" y="686.4631578947368" type="line"/>
      <point x="93.98947368421052" y="577.1052631578948" type="line"/>
      <point x="177.42105263157896" y="586.6736842105264"/>
      <point x="259.0315789473685" y="589.1368421052632"/>
      <point x="339.2315789473684" y="589.1368421052632" type="curve"/>
      <point x="475.0947368421053" y="589.1368421052632" type="line"/>
      <point x="445.3368421052632" y="612.6842105263158" type="line"/>
      <point x="417.5473684210526" y="563.2"/>
      <point x="387.88421052631577" y="515.1263157894737"/>
      <point x="354.7578947368421" y="464.41052631578947" type="curve"/>
      <point x="221.94736842105266" y="263.06315789473683" type="line"/>
      <point x="164.69473684210524" y="176.22105263157894"/>
      <point x="105.44210526315791" y="87.2"/>
    </contour>
  </outline>
</glyph>
<glyph name="less" format="2">
  <advance width="572.3157894736842"/>
  <unicode hex="003C"/>
  <outline>
    <contour>
      <point x="474.8842105263158" y="60.136842105263156" type="curve"/>
      <point x="498.0736842105263" y="167.56842105263158" type="line"/>
      <point x="436.5684210526316" y="188.89473684210526"/>
      <point x="372.29473684210524" y="217.45263157894738"/>
      <point x="311.021052631579" y="245.42105263157896" type="curve"/>
      <point x="212.54736842105262" y="290.0526315789474" type="line"/>
      <point x="214.9578947368421" y="300.15789473684214" type="line"/>
      <point x="331.2736842105263" y="343.9684210526315" type="line"/>
      <point x="405.2631578947368" y="371.9368421052631"/>
      <point x="481.43157894736845" y="399.6736842105263"/>
      <point x="552.0105263157894" y="421.0" type="curve"/>
      <point x="576.4315789473684" y="540.178947368421" type="line"/>
      <point x="505.63157894736844" y="509.4842105263158"/>
      <point x="438.0631578947369" y="483.4842105263158"/>
      <point x="379.7263157894737" y="461.4842105263158" type="curve"/>
      <point x="274.0105263157895" y="421.41052631578947" type="line"/>
      <point x="216.4421052631579" y="400.0"/>
      <point x="149.28421052631577" y="375.41052631578947"/>
      <point x="80.30526315789473" y="353.87368421052633" type="curve"/>
      <point x="57.1157894736842" y="246.44210526315788" type="line"/>
      <point x="117.32631578947368" y="224.90526315789475"/>
      <point x="174.07368421052632" y="200.31578947368422"/>
      <point x="222.05263157894737" y="178.90526315789475" type="curve"/>
      <point x="311.0" y="138.83157894736843" type="line"/>
      <point x="359.74736842105267" y="116.83157894736843"/>
      <point x="417.3157894736842" y="90.24210526315788"/>
    </contour>
  </outline>
</glyph>
<glyph name="equal" format="2">
  <advance width="572.3157894736842"/>
  <unicode hex="003D"/>
  <outline>
    <contour>
      <point x="37.757894736842104" y="133.17894736842106" type="line"/>
      <point x="103.5578947368421" y="137.23157894736843"/>
      <point x="165.12631578947367" y="137.6421052631579"/>
      <point x="218.28421052631577" y="137.6421052631579" type="curve"/>
      <point x="307.61052631578946" y="137.6421052631579" type="line"/>
      <point x="360.7684210526316" y="137.6421052631579"/>
      <point x="422.33684210526314" y="137.23157894736843"/>
      <point x="486.4947368421053" y="133.17894736842106" type="curve"/>
      <point x="508.6842105263158" y="237.78947368421052" type="line"/>
      <point x="442.7052631578947" y="233.73684210526315"/>
      <point x="381.13684210526316" y="233.32631578947368"/>
      <point x="327.978947368421" y="233.32631578947368" type="curve"/>
      <point x="238.65263157894736" y="233.32631578947368" type="line"/>
      <point x="185.49473684210525" y="233.32631578947368"/>
      <point x="123.92631578947368" y="233.73684210526315"/>
      <point x="59.94736842105264" y="237.78947368421052" type="curve"/>
    </contour>
    <contour>
      <point x="85.6842105263158" y="363.7052631578947" type="line"/>
      <point x="151.4842105263158" y="367.7578947368421"/>
      <point x="213.05263157894734" y="368.1684210526316"/>
      <point x="266.2105263157894" y="368.1684210526316" type="curve"/>
      <point x="355.53684210526313" y="368.1684210526316" type="line"/>
      <point x="408.69473684210527" y="368.1684210526316"/>
      <point x="470.2631578947368" y="367.7578947368421"/>
      <point x="534.421052631579" y="363.7052631578947" type="curve"/>
      <point x="556.6105263157896" y="468.3157894736842" type="line"/>
      <point x="490.6315789473684" y="464.2631578947368"/>
      <point x="429.06315789473683" y="463.85263157894735"/>
      <point x="375.9052631578947" y="463.85263157894735" type="curve"/>
      <point x="286.578947368421" y="463.85263157894735" type="line"/>
      <point x="233.42105263157893" y="463.85263157894735"/>
      <point x="171.85263157894738" y="464.2631578947368"/>
      <point x="107.8736842105263" y="468.3157894736842" type="curve"/>
    </contour>
  </outline>
</glyph>
<glyph name="greater" format="2">
  <advance width="572.3157894736842"/>
  <unicode hex="003E"/>
  <outline>
    <contour>
      <point x="17.936842105263157" y="60.136842105263156" type="line"/>
      <point x="88.73684210526315" y="90.83157894736841"/>
      <point x="156.30526315789476" y="116.83157894736843"/>
      <point x="214.6421052631579" y="138.83157894736843" type="curve"/>
      <point x="320.3578947368421" y="178.90526315789475" type="line"/>
      <point x="377.92631578947373" y="200.31578947368422"/>
      <point x="445.0842105263158" y="224.90526315789475"/>
      <point x="514.0631578947368" y="246.44210526315788" type="curve"/>
      <point x="537.2526315789474" y="353.87368421052633" type="line"/>
      <point x="477.0421052631579" y="375.41052631578947"/>
      <point x="420.2947368421053" y="400.0"/>
      <point x="372.3157894736842" y="421.41052631578947" type="curve"/>
      <point x="283.36842105263156" y="461.4842105263158" type="line"/>
      <point x="234.62105263157895" y="483.4842105263158"/>
      <point x="177.05263157894737" y="510.0736842105263"/>
      <point x="119.48421052631578" y="540.178947368421" type="curve"/>
      <point x="96.29473684210527" y="432.74736842105267" type="line"/>
      <point x="157.8" y="411.42105263157896"/>
      <point x="222.07368421052632" y="382.86315789473684"/>
      <point x="283.34736842105264" y="354.89473684210526" type="curve"/>
      <point x="381.82105263157894" y="310.2631578947368" type="line"/>
      <point x="379.41052631578947" y="300.1578947368421" type="line"/>
      <point x="263.09473684210525" y="256.34736842105264" type="line"/>
      <point x="189.10526315789474" y="228.37894736842105"/>
      <point x="112.93684210526315" y="200.64210526315787"/>
      <point x="42.357894736842105" y="179.31578947368422" type="curve"/>
    </contour>
  </outline>
</glyph>
<glyph name="at" format="2">
  <advance width="886.0842105263158"/>
  <unicode hex="0040"/>
  <outline>
    <contour>
      <point x="480.2105263157895" y="-136.3684210526316" type="curve" smooth="yes"/>
      <point x="565.0315789473684" y="-136.3684210526316"/>
      <point x="680.3894736842105" y="-100.8842105263158"/>
      <point x="763.0315789473684" y="-66.1157894736842" type="curve"/>
      <point x="763.0315789473684" y="13.757894736842104" type="line"/>
      <point x="656.6947368421052" y="-38.526315789473685"/>
      <point x="544.6421052631579" y="-65.01052631578948"/>
      <point x="480.2105263157895" y="-68.83157894736843" type="curve"/>
      <point x="207.98947368421054" y="-65.01052631578948"/>
      <point x="85.73684210526316" y="117.82105263157895"/>
      <point x="132.37894736842105" y="335.05263157894734" type="curve" smooth="yes"/>
      <point x="171.45263157894738" y="517.9578947368421"/>
      <point x="297.10526315789474" y="612.0421052631579"/>
      <point x="475.2105263157895" y="615.8631578947368" type="curve"/>
      <point x="686.2526315789473" y="612.0421052631579"/>
      <point x="807.6842105263157" y="466.4947368421053"/>
      <point x="767.5052631578947" y="264.0105263157895" type="curve" smooth="yes"/>
      <point x="753.5578947368421" y="193.86315789473684"/>
      <point x="692.1052631578948" y="131.58947368421053"/>
      <point x="650.3157894736843" y="129.94736842105263" type="curve"/>
      <point x="603.1684210526315" y="132.76842105263157"/>
      <point x="585.9157894736842" y="160.7157894736842"/>
      <point x="600.9684210526316" y="233.92631578947368" type="curve"/>
      <point x="617.2210526315789" y="311.6" type="line"/>
      <point x="630.6315789473684" y="368.90526315789475"/>
      <point x="645.8631578947368" y="425.85263157894735"/>
      <point x="666.5052631578948" y="482.9263157894737" type="curve"/>
      <point x="578.4421052631578" y="477.87368421052633" type="line"/>
      <point x="562.0315789473684" y="424.9263157894737" type="line"/>
      <point x="553.7473684210526" y="424.9263157894737" type="line"/>
      <point x="526.4421052631578" y="462.0315789473684"/>
      <point x="474.42105263157896" y="488.5157894736842"/>
      <point x="429.8105263157895" y="488.5157894736842" type="curve" smooth="yes"/>
      <point x="336.63157894736844" y="488.5157894736842"/>
      <point x="267.9684210526316" y="412.53684210526313"/>
      <point x="246.02105263157895" y="305.7473684210526" type="curve" smooth="yes"/>
      <point x="220.61052631578949" y="182.41052631578947"/>
      <point x="271.53684210526313" y="70.53684210526316"/>
      <point x="386.7894736842105" y="70.53684210526316" type="curve" smooth="yes"/>
      <point x="424.63157894736844" y="70.53684210526316"/>
      <point x="472.2210526315789" y="93.3578947368421"/>
      <point x="512.8842105263158" y="137.30526315789473" type="curve"/>
      <point x="520.7578947368421" y="137.30526315789473" type="line"/>
      <point x="534.5578947368421" y="97.8421052631579"/>
      <point x="576.1578947368421" y="61.357894736842105"/>
      <point x="653.2105263157894" y="61.357894736842105" type="curve" smooth="yes"/>
      <point x="704.3157894736842" y="61.357894736842105"/>
      <point x="814.0421052631579" y="128.78947368421052"/>
      <point x="837.7368421052631" y="249.8" type="curve" smooth="yes"/>
      <point x="884.021052631579" y="487.88421052631577"/>
      <point x="728.1684210526315" y="683.4"/>
      <point x="476.62105263157895" y="683.4" type="curve" smooth="yes"/>
      <point x="283.33684210526314" y="683.4"/>
      <point x="109.84210526315789" y="579.9368421052632"/>
      <point x="61.968421052631584" y="349.3157894736842" type="curve" smooth="yes"/>
      <point x="9.221052631578946" y="97.14736842105263"/>
      <point x="162.4842105263158" y="-136.3684210526316"/>
    </contour>
    <contour>
      <point x="411.7263157894737" y="150.21052631578948" type="curve"/>
      <point x="343.56842105263155" y="152.21052631578948"/>
      <point x="317.2421052631579" y="214.2736842105263"/>
      <point x="333.2631578947368" y="290.8421052631579" type="curve" smooth="yes"/>
      <point x="347.33684210526314" y="357.2631578947368"/>
      <point x="386.37894736842105" y="404.61052631578946"/>
      <point x="450.2842105263158" y="407.0210526315789" type="curve"/>
      <point x="485.6842105263158" y="406.7894736842105"/>
      <point x="516.8526315789472" y="388.2315789473684"/>
      <point x="539.7157894736841" y="363.9578947368421" type="curve"/>
      <point x="507.15789473684214" y="212.4736842105263" type="line"/>
      <point x="476.57894736842104" y="169.41052631578947"/>
      <point x="441.82105263157894" y="152.21052631578948"/>
    </contour>
  </outline>
</glyph>
<glyph name="A" format="2">
  <advance width="702.8947368421052"/>
  <unicode hex="0041"/>
  <anchor x="299.2421052631579" y="0.0" name="bottom"/>
  <anchor x="631.0315789473684" y="0.0" name="ogonek"/>
  <anchor x="448.42105263157896" y="713.0" name="top"/>
  <outline>
    <contour>
      <point x="-35.77894736842105" y="0.0" type="curve"/>
      <point x="112.67368421052632" y="0.0" type="line"/>
      <point x="148.8947368421053" y="81.55789473684212"/>
      <point x="191.1157894736842" y="167.11578947368423"/>
      <point x="233.4421052631579" y="247.0842105263158" type="curve"/>
      <point x="425.41052631578947" y="608.4421052631579" type="line"/>
      <point x="435.5157894736842" y="608.4421052631579" type="line"/>
      <point x="477.01052631578943" y="245.67368421052632" type="line"/>
      <point x="485.85263157894735" y="167.70526315789473"/>
      <point x="494.23157894736846" y="80.2"/>
      <point x="495.1473684210527" y="0.0" type="curve"/>
      <point x="633.4947368421053" y="0.0" type="line"/>
      <point x="618.0842105263157" y="75.0"/>
      <point x="601.6736842105263" y="163.0"/>
      <point x="590.9578947368421" y="241.3578947368421" type="curve"/>
      <point x="557.9894736842105" y="486.58947368421053" type="line"/>
      <point x="546.2736842105263" y="574.0"/>
      <point x="540.1999999999999" y="640.5368421052631"/>
      <point x="538.5894736842105" y="713.0" type="curve"/>
      <point x="361.2526315789474" y="713.0" type="line"/>
      <point x="327.0526315789474" y="638.1789473684211"/>
      <point x="292.1578947368421" y="571.5894736842105"/>
      <point x="245.0315789473684" y="486.7684210526316" type="curve"/>
      <point x="109.29473684210527" y="243.0" type="line"/>
      <point x="66.16842105263159" y="166.0"/>
      <point x="14.22105263157895" y="76.17894736842106"/>
    </contour>
    <contour>
      <point x="157.14736842105262" y="167.2842105263158" type="line"/>
      <point x="522.5894736842106" y="167.2842105263158" type="line"/>
      <point x="531.8736842105263" y="258.86315789473684" type="line"/>
      <point x="187.36842105263156" y="258.86315789473684" type="line"/>
    </contour>
  </outline>
</glyph>
<glyph name="B" format="2">
  <advance width="654.5172413793103"/>
  <unicode hex="0042"/>
  <outline>
    <contour>
      <point x="288.55172413793105" y="-4.586206896551724" type="curve"/>
      <point x="515.9655172413793" y="-4.586206896551724"/>
      <point x="580.3793103448277" y="68.20689655172414"/>
      <point x="604.0689655172414" y="178.17241379310343" type="curve" smooth="yes"/>
      <point x="626.1724137931035" y="284.68965517241384"/>
      <point x="567.551724137931" y="344.2758620689655"/>
      <point x="499.58620689655174" y="366.27586206896547" type="curve"/>
      <point x="501.58620689655174" y="376.7586206896552" type="line"/>
      <point x="579.2758620689655" y="396.27586206896547"/>
      <point x="636.8620689655172" y="433.2068965517241"/>
      <point x="655.7586206896551" y="522.0" type="curve" smooth="yes"/>
      <point x="676.9655172413793" y="625.9310344827587"/>
      <point x="624.4137931034483" y="716.6896551724138"/>
      <point x="435.8965517241379" y="716.6896551724138" type="curve"/>
      <point x="339.72413793103453" y="716.6896551724138"/>
      <point x="251.10344827586204" y="713.0"/>
      <point x="174.6206896551724" y="713.0" type="curve"/>
      <point x="164.10344827586206" y="633.7931034482758"/>
      <point x="152.79310344827587" y="564.6896551724138"/>
      <point x="133.79310344827587" y="473.0" type="curve"/>
      <point x="82.89655172413794" y="234.41379310344828" type="line"/>
      <point x="63.99999999999999" y="145.6206896551724"/>
      <point x="47.206896551724135" y="78.3103448275862"/>
      <point x="24.620689655172413" y="0.0" type="curve"/>
      <point x="78.13793103448276" y="0.0"/>
      <point x="177.51724137931035" y="-4.586206896551724"/>
    </contour>
    <contour>
      <point x="175.20689655172413" y="97.3448275862069" type="line"/>
      <point x="183.6206896551724" y="147.41379310344828"/>
      <point x="193.03448275862073" y="196.9655172413793"/>
      <point x="206.34482758620692" y="259.51724137931035" type="curve"/>
      <point x="246.48275862068968" y="449.0" type="line"/>
      <point x="259.7931034482759" y="512.448275862069"/>
      <point x="271.1034482758621" y="561.1034482758621"/>
      <point x="286.2068965517242" y="615.6551724137931" type="curve"/>
      <point x="422.13793103448273" y="615.6551724137931" type="line" smooth="yes"/>
      <point x="506.3793103448276" y="615.6551724137931"/>
      <point x="544.3448275862069" y="577.5862068965517"/>
      <point x="530.5172413793102" y="510.7586206896552" type="curve" smooth="yes"/>
      <point x="517.8965517241379" y="450.0689655172414"/>
      <point x="465.34482758620686" y="406.6896551724138"/>
      <point x="369.27586206896547" y="406.6896551724138" type="curve" smooth="yes"/>
      <point x="208.82758620689657" y="406.6896551724138" type="line"/>
      <point x="189.27586206896555" y="313.0344827586207" type="line"/>
      <point x="355.7241379310345" y="313.0344827586207" type="line" smooth="yes"/>
      <point x="451.551724137931" y="313.0344827586207"/>
      <point x="499.13793103448273" y="270.17241379310343"/>
      <point x="483.31034482758616" y="195.72413793103448" type="curve" smooth="yes"/>
      <point x="468.6896551724138" y="126.31034482758619"/>
      <point x="417.41379310344826" y="97.3448275862069"/>
      <point x="300.8965517241379" y="97.3448275862069" type="curve" smooth="yes"/>
    </contour>
  </outline>
</glyph>
<glyph name="C" format="2">
  <advance width="683.9473684210526"/>
  <unicode hex="0043"/>
  <anchor x="345.30526315789473" y="0.0" name="bottom"/>
  <anchor x="489.41052631578947" y="713.0" name="top"/>
  <outline>
    <contour>
      <point x="383.0526315789474" y="-11.873684210526315" type="curve" smooth="yes"/>
      <point x="452.51578947368415" y="-11.873684210526315"/>
      <point x="530.7473684210527" y="8.126315789473685"/>
      <point x="586.1052631578947" y="32.37894736842105" type="curve"/>
      <point x="602.8842105263159" y="151.32631578947368" type="line"/>
      <point x="539.0105263157895" y="111.68421052631578"/>
      <point x="460.4947368421053" y="88.86315789473684"/>
      <point x="400.93684210526317" y="88.86315789473684" type="curve"/>
      <point x="227.22105263157894" y="92.27368421052631"/>
      <point x="164.33684210526317" y="235.2"/>
      <point x="195.71578947368423" y="383.9684210526316" type="curve" smooth="yes"/>
      <point x="230.9157894736842" y="550.6631578947369"/>
      <point x="341.87368421052633" y="619.6210526315789"/>
      <point x="473.2736842105263" y="623.0315789473684" type="curve"/>
      <point x="511.4526315789474" y="623.0315789473684"/>
      <point x="591.9368421052632" y="604.2105263157895"/>
      <point x="691.8105263157895" y="557.9263157894737" type="curve"/>
      <point x="725.5684210526315" y="672.7473684210527" type="line"/>
      <point x="665.3368421052633" y="695.1052631578947"/>
      <point x="570.1578947368421" y="726.6421052631579"/>
      <point x="484.71578947368425" y="726.6421052631579" type="curve" smooth="yes"/>
      <point x="264.2421052631579" y="726.6421052631579"/>
      <point x="119.63157894736841" y="613.6421052631579"/>
      <point x="75.0421052631579" y="400.64210526315793" type="curve" smooth="yes"/>
      <point x="29.400000000000002" y="184.02105263157895"/>
      <point x="138.61052631578949" y="-11.873684210526315"/>
    </contour>
  </outline>
</glyph>
<glyph name="D" format="2">
  <advance width="737.3578947368421"/>
  <unicode hex="0044"/>
  <anchor x="299.6421052631579" y="0.0" name="bottom"/>
  <anchor x="392.211" y="357.0" name="center"/>
  <anchor x="449.6421052631579" y="713.0" name="top"/>
  <outline>
    <contour>
      <point x="24.389473684210532" y="0.0" type="curve"/>
      <point x="110.8" y="0.0"/>
      <point x="186.6315789473684" y="-4.284210526315789"/>
      <point x="288.178947368421" y="-4.284210526315789" type="curve"/>
      <point x="560.6736842105263" y="-4.284210526315789"/>
      <point x="668.7263157894737" y="129.41052631578947"/>
      <point x="710.9052631578948" y="332.17894736842106" type="curve" smooth="yes"/>
      <point x="753.3157894736843" y="537.6947368421053"/>
      <point x="648.6736842105263" y="716.4631578947368"/>
      <point x="418.06315789473683" y="716.4631578947368" type="curve"/>
      <point x="333.89473684210526" y="716.4631578947368"/>
      <point x="253.7473684210526" y="713.0"/>
      <point x="174.38947368421054" y="713.0" type="curve"/>
      <point x="163.90526315789475" y="633.6421052631579"/>
      <point x="152.77894736842106" y="564.8736842105263"/>
      <point x="133.3684210526316" y="473.41052631578947" type="curve"/>
      <point x="82.54736842105264" y="234.30526315789473" type="line"/>
      <point x="64.13684210526316" y="145.66315789473686"/>
      <point x="47.08421052631579" y="78.12631578947368"/>
    </contour>
    <contour>
      <point x="177.0" y="97.50526315789473" type="line"/>
      <point x="185.30526315789473" y="148.67368421052632"/>
      <point x="195.02105263157893" y="198.94736842105263"/>
      <point x="208.14736842105262" y="261.4" type="curve"/>
      <point x="247.88421052631577" y="449.5473684210526" type="line"/>
      <point x="261.4210526315789" y="513.642105263158"/>
      <point x="273.36842105263156" y="563.0947368421052"/>
      <point x="286.90526315789475" y="615.4947368421052" type="curve"/>
      <point x="389.53684210526313" y="615.4947368421052" type="line"/>
      <point x="563.0105263157894" y="611.2631578947368"/>
      <point x="619.7894736842106" y="489.8"/>
      <point x="588.5894736842106" y="344.5157894736842" type="curve" smooth="yes"/>
      <point x="557.2105263157895" y="195.38947368421051"/>
      <point x="491.55789473684206" y="102.14736842105263"/>
      <point x="298.2105263157894" y="97.50526315789473" type="curve"/>
    </contour>
  </outline>
</glyph>
<glyph name="E" format="2">
  <advance width="596.3793103448276"/>
  <unicode hex="0045"/>
  <anchor x="260.82758620689657" y="0.0" name="bottom"/>
  <anchor x="488.55172413793105" y="0.0" name="ogonek"/>
  <anchor x="410.82758620689657" y="713.0" name="top"/>
  <anchor x="135.0" y="713.0" name="topleft"/>
  <outline>
    <contour>
      <point x="24.620689655172413" y="0.0" type="curve"/>
      <point x="160.24137931034483" y="0.0" type="line"/>
      <point x="164.82758620689654" y="18.344827586206897" type="line"/>
      <point x="173.44827586206898" y="96.65517241379311"/>
      <point x="185.65517241379314" y="163.86206896551724"/>
      <point x="204.65517241379314" y="252.75862068965517" type="curve"/>
      <point x="247.37931034482762" y="456.7586206896552" type="line"/>
      <point x="266.2758620689656" y="547.448275862069"/>
      <point x="284.0689655172414" y="615.551724137931"/>
      <point x="306.65517241379314" y="694.7586206896551" type="curve"/>
      <point x="310.2413793103449" y="713.0" type="line"/>
      <point x="174.6206896551724" y="713.0" type="line"/>
      <point x="164.10344827586206" y="633.7931034482758"/>
      <point x="152.79310344827587" y="564.6896551724138"/>
      <point x="133.79310344827587" y="473.0" type="curve"/>
      <point x="82.89655172413794" y="234.41379310344828" type="line"/>
      <point x="64.0" y="145.6206896551724"/>
      <point x="47.206896551724135" y="78.3103448275862"/>
    </contour>
    <contour>
      <point x="136.89655172413794" y="0.0" type="line"/>
      <point x="490.3448275862069" y="0.0" type="line"/>
      <point x="514.3793103448276" y="111.20689655172414" type="line"/>
      <point x="442.75862068965523" y="102.82758620689656"/>
      <point x="368.82758620689657" y="100.93103448275862"/>
      <point x="284.7931034482759" y="100.93103448275862" type="curve"/>
      <point x="158.24137931034483" y="100.93103448275862" type="line"/>
    </contour>
    <contour>
      <point x="189.27586206896555" y="312.0344827586207" type="line"/>
      <point x="324.3103448275862" y="312.0344827586207" type="line"/>
      <point x="412.0344827586207" y="312.0344827586207"/>
      <point x="471.44827586206895" y="311.1379310344828"/>
      <point x="535.0689655172414" y="307.44827586206895" type="curve"/>
      <point x="558.2068965517241" y="415.9655172413793" type="line"/>
      <point x="495.89655172413796" y="410.27586206896547"/>
      <point x="435.48275862068965" y="409.37931034482756"/>
      <point x="345.7586206896552" y="409.37931034482756" type="curve"/>
      <point x="209.7241379310345" y="409.37931034482756" type="line"/>
    </contour>
    <contour>
      <point x="258.37931034482756" y="612.0689655172414" type="line"/>
      <point x="382.7241379310345" y="612.0689655172414" type="line"/>
      <point x="482.8620689655172" y="612.0689655172414"/>
      <point x="551.6896551724137" y="609.2758620689656"/>
      <point x="615.5172413793102" y="601.7931034482759" type="curve"/>
      <point x="638.655172413793" y="713.0" type="line"/>
      <point x="279.7241379310345" y="713.0" type="line"/>
    </contour>
  </outline>
</glyph>
<glyph name="F" format="2">
  <advance width="577.1578947368421"/>
  <unicode hex="0046"/>
  <outline>
    <contour>
      <point x="24.389473684210532" y="0.0" type="curve"/>
      <point x="160.32631578947368" y="0.0" type="line"/>
      <point x="169.81052631578945" y="78.12631578947368"/>
      <point x="180.93684210526314" y="144.48421052631582"/>
      <point x="199.93684210526314" y="234.30526315789473" type="curve"/>
      <point x="247.06315789473683" y="456.4" type="line"/>
      <point x="265.88421052631577" y="547.2736842105263"/>
      <point x="283.93684210526317" y="615.4526315789474"/>
      <point x="307.0421052631579" y="694.8105263157895" type="curve"/>
      <point x="310.3263157894737" y="713.0" type="line"/>
      <point x="174.38947368421054" y="713.0" type="line"/>
      <point x="163.90526315789475" y="633.6421052631579"/>
      <point x="152.77894736842106" y="564.8736842105263"/>
      <point x="133.3684210526316" y="473.41052631578947" type="curve"/>
      <point x="82.54736842105264" y="234.30526315789473" type="line"/>
      <point x="64.13684210526316" y="145.66315789473686"/>
      <point x="47.08421052631579" y="78.12631578947368"/>
    </contour>
    <contour>
      <point x="185.73684210526315" y="305.12631578947367" type="line"/>
      <point x="314.81052631578945" y="305.12631578947367" type="line"/>
      <point x="402.65263157894736" y="305.12631578947367"/>
      <point x="461.5473684210526" y="304.30526315789473"/>
      <point x="525.2105263157895" y="300.0210526315789" type="curve"/>
      <point x="548.221052631579" y="409.3263157894737" type="line"/>
      <point x="486.5052631578947" y="403.4526315789474"/>
      <point x="426.2" y="402.63157894736844"/>
      <point x="335.9473684210526" y="402.63157894736844" type="curve"/>
      <point x="206.28421052631577" y="402.63157894736844" type="line"/>
    </contour>
    <contour>
      <point x="256.5578947368421" y="611.8" type="line"/>
      <point x="374.7578947368421" y="611.8" type="line"/>
      <point x="474.90526315789475" y="611.8"/>
      <point x="543.5157894736842" y="608.7473684210526"/>
      <point x="607.5368421052632" y="602.0526315789473" type="curve"/>
      <point x="630.5473684210526" y="713.0" type="line"/>
      <point x="277.9263157894737" y="713.0" type="line"/>
    </contour>
  </outline>
</glyph>
<glyph name="G" format="2">
  <advance width="730.8421052631579"/>
  <unicode hex="0047"/>
  <anchor x="345.30526315789473" y="0.0" name="bottom"/>
  <anchor x="495.30526315789473" y="713.0" name="top"/>
  <outline>
    <contour>
      <point x="400.46315789473687" y="-11.463157894736842" type="curve" smooth="yes"/>
      <point x="471.5894736842105" y="-11.463157894736842"/>
      <point x="570.0315789473684" y="9.715789473684211"/>
      <point x="625.8526315789475" y="26.557894736842105" type="curve"/>
      <point x="626.7263157894737" y="139.0421052631579" type="line"/>
      <point x="551.6736842105263" y="102.81052631578946"/>
      <point x="484.65263157894736" y="86.81052631578947"/>
      <point x="407.62105263157895" y="86.81052631578947" type="curve"/>
      <point x="223.3263157894737" y="90.22105263157894"/>
      <point x="162.69473684210527" y="232.73684210526315"/>
      <point x="194.89473684210526" y="384.7894736842106" type="curve" smooth="yes"/>
      <point x="231.09473684210525" y="555.0736842105263"/>
      <point x="347.2631578947368" y="620.0315789473684"/>
      <point x="476.2" y="623.0315789473684" type="curve"/>
      <point x="516.3789473684211" y="623.0315789473684"/>
      <point x="601.8631578947369" y="602.4421052631578"/>
      <point x="708.1473684210526" y="550.8526315789475" type="curve"/>
      <point x="741.9052631578946" y="665.263157894737" type="line"/>
      <point x="675.6210526315789" y="690.5684210526316"/>
      <point x="571.978947368421" y="726.6421052631579"/>
      <point x="478.07368421052627" y="726.6421052631579" type="curve" smooth="yes"/>
      <point x="263.2210526315789" y="726.6421052631579"/>
      <point x="120.45263157894736" y="615.7473684210526"/>
      <point x="75.0421052631579" y="400.64210526315793" type="curve" smooth="yes"/>
      <point x="29.631578947368425" y="185.35789473684213"/>
      <point x="131.09473684210528" y="-11.463157894736842"/>
    </contour>
    <contour>
      <point x="502.4105263157895" y="26.55789473684211" type="curve"/>
      <point x="625.8526315789475" y="26.557894736842105" type="line"/>
      <point x="636.3894736842105" y="97.48421052631579"/>
      <point x="645.8000000000001" y="148.76842105263157"/>
      <point x="657.0315789473685" y="202.8736842105263" type="curve"/>
      <point x="670.4421052631579" y="266.5684210526316"/>
      <point x="683.3157894736842" y="311.4421052631579"/>
      <point x="700.2421052631579" y="362.13684210526316" type="curve"/>
      <point x="567.6421052631579" y="362.13684210526316" type="line"/>
      <point x="563.9263157894737" y="311.4421052631579"/>
      <point x="557.5684210526316" y="266.5684210526316"/>
      <point x="544.1578947368422" y="202.8736842105263" type="curve"/>
      <point x="532.9263157894737" y="148.76842105263157"/>
      <point x="520.8736842105262" y="97.48421052631579"/>
    </contour>
  </outline>
</glyph>
<glyph name="H" format="2">
  <advance width="754.5157894736842"/>
  <unicode hex="0048"/>
  <anchor x="325.05263157894734" y="0.0" name="bottom"/>
  <anchor x="400.05263157894734" y="357.0" name="center"/>
  <anchor x="475.05263157894734" y="713.0" name="top"/>
  <anchor x="136.46315789473684" y="713.0" name="topleft"/>
  <outline>
    <contour>
      <point x="486.90526315789475" y="0.0" type="curve"/>
      <point x="625.3052631578946" y="0.0" type="line"/>
      <point x="634.7894736842105" y="78.12631578947368"/>
      <point x="645.9157894736843" y="144.48421052631582"/>
      <point x="664.9157894736842" y="234.30526315789473" type="curve"/>
      <point x="715.7368421052631" y="473.41052631578947" type="line"/>
      <point x="735.1473684210526" y="564.8736842105263"/>
      <point x="752.1999999999999" y="633.6421052631579"/>
      <point x="775.3052631578947" y="713.0" type="curve"/>
      <point x="636.9052631578946" y="713.0" type="line"/>
      <point x="626.421052631579" y="633.6421052631579"/>
      <point x="615.2947368421053" y="564.8736842105263"/>
      <point x="595.8842105263158" y="473.41052631578947" type="curve"/>
      <point x="545.0631578947368" y="234.30526315789473" type="line"/>
      <point x="526.6526315789474" y="145.66315789473686"/>
      <point x="509.6" y="78.12631578947368"/>
    </contour>
    <contour>
      <point x="24.389473684210532" y="0.0" type="curve"/>
      <point x="162.78947368421052" y="0.0" type="line"/>
      <point x="172.2736842105263" y="78.12631578947368"/>
      <point x="183.39999999999998" y="144.48421052631582"/>
      <point x="202.4" y="234.30526315789473" type="curve"/>
      <point x="253.22105263157894" y="473.41052631578947" type="line"/>
      <point x="272.6315789473684" y="564.8736842105263"/>
      <point x="289.6842105263158" y="633.6421052631579"/>
      <point x="312.7894736842105" y="713.0" type="curve"/>
      <point x="174.38947368421054" y="713.0" type="line"/>
      <point x="163.90526315789475" y="633.6421052631579"/>
      <point x="152.77894736842106" y="564.8736842105263"/>
      <point x="133.3684210526316" y="473.41052631578947" type="curve"/>
      <point x="82.54736842105264" y="234.30526315789473" type="line"/>
      <point x="64.13684210526316" y="145.66315789473686"/>
      <point x="47.08421052631579" y="78.12631578947368"/>
    </contour>
    <contour>
      <point x="181.0" y="309.6421052631579" type="line"/>
      <point x="600.6842105263157" y="309.6421052631579" type="line"/>
      <point x="622.4631578947368" y="410.8421052631579" type="line"/>
      <point x="202.77894736842106" y="410.8421052631579" type="line"/>
    </contour>
  </outline>
</glyph>
<glyph name="I" format="2">
  <advance width="298.15789473684214"/>
  <unicode hex="0049"/>
  <anchor x="94.5263157894737" y="0.0" name="bottom"/>
  <anchor x="164.8421052631579" y="0.0" name="ogonek"/>
  <anchor x="244.5263157894737" y="713.0" name="top"/>
  <anchor x="132.1263157894737" y="713.0" name="topleft"/>
  <outline>
    <contour>
      <point x="26.442105263157902" y="0.0" type="curve"/>
      <point x="166.89473684210526" y="0.0" type="line"/>
      <point x="176.37894736842102" y="78.12631578947368"/>
      <point x="187.50526315789472" y="144.48421052631582"/>
      <point x="206.50526315789472" y="234.30526315789473" type="curve"/>
      <point x="257.32631578947365" y="473.41052631578947" type="line"/>
      <point x="276.7368421052631" y="564.8736842105263"/>
      <point x="293.7894736842105" y="633.6421052631579"/>
      <point x="316.89473684210526" y="713.0" type="curve"/>
      <point x="176.4421052631579" y="713.0" type="line"/>
      <point x="165.95789473684212" y="633.6421052631579"/>
      <point x="154.83157894736843" y="564.8736842105263"/>
      <point x="135.42105263157896" y="473.41052631578947" type="curve"/>
      <point x="84.60000000000001" y="234.30526315789473" type="line"/>
      <point x="66.18947368421053" y="145.66315789473686"/>
      <point x="49.13684210526316" y="78.12631578947368"/>
    </contour>
  </outline>
</glyph>
<glyph name="J" format="2">
  <advance width="306.30526315789473"/>
  <unicode hex="004A"/>
  <anchor x="103.72631578947369" y="0.0" name="bottom"/>
  <anchor x="253.7263157894737" y="713.0" name="top"/>
  <outline>
    <contour>
      <point x="-79.36842105263159" y="-156.7157894736842" type="curve"/>
      <point x="50.98947368421053" y="-156.7157894736842" type="line"/>
      <point x="97.81052631578946" y="-110.89473684210526"/>
      <point x="163.6315789473684" y="-39.48421052631579"/>
      <point x="185.86315789473684" y="65.44210526315788" type="curve" smooth="yes"/>
      <point x="201.9157894736842" y="141.1157894736842"/>
      <point x="212.04210526315788" y="222.2"/>
      <point x="230.68421052631578" y="310.41052631578947" type="curve"/>
      <point x="265.4736842105263" y="473.41052631578947" type="line"/>
      <point x="284.88421052631577" y="564.8736842105263"/>
      <point x="301.93684210526317" y="633.6421052631579"/>
      <point x="325.0421052631579" y="713.0" type="curve"/>
      <point x="186.6421052631579" y="713.0" type="line"/>
      <point x="176.1578947368421" y="633.6421052631579"/>
      <point x="165.03157894736842" y="564.8736842105263"/>
      <point x="145.62105263157895" y="473.41052631578947" type="curve"/>
      <point x="106.70526315789473" y="290.9578947368421" type="line"/>
      <point x="59.905263157894744" y="72.13684210526316" type="line"/>
      <point x="41.315789473684205" y="-15.22105263157895"/>
      <point x="-12.24210526315789" y="-89.96842105263158"/>
    </contour>
  </outline>
</glyph>
<glyph name="K" format="2">
  <advance width="683.8947368421053"/>
  <unicode hex="004B"/>
  <anchor x="297.65263157894736" y="0.0" name="bottom"/>
  <anchor x="447.65263157894736" y="713.0" name="top"/>
  <outline>
    <contour>
      <point x="457.9894736842105" y="0.0" type="curve"/>
      <point x="616.1368421052631" y="0.0" type="line"/>
      <point x="566.5263157894738" y="61.05263157894737"/>
      <point x="496.5368421052632" y="161.44210526315788"/>
      <point x="446.08421052631576" y="236.3684210526316" type="curve"/>
      <point x="335.99999999999994" y="399.4526315789474" type="line"/>
      <point x="336.35789473684207" y="344.5052631578947" type="line"/>
      <point x="491.36842105263156" y="486.8421052631579" type="line"/>
      <point x="574.0526315789473" y="561.5368421052632"/>
      <point x="656.3263157894736" y="636.0"/>
      <point x="749.2421052631578" y="713.0" type="curve"/>
      <point x="579.2210526315789" y="713.0" type="line"/>
      <point x="510.8842105263158" y="641.621052631579"/>
      <point x="458.76842105263154" y="590.7263157894737"/>
      <point x="398.7052631578947" y="535.2947368421053" type="curve"/>
      <point x="270.2736842105263" y="417.4842105263158" type="line"/>
      <point x="229.50526315789475" y="417.4842105263158" type="line"/>
      <point x="209.3684210526316" y="321.62105263157895" type="line"/>
      <point x="251.18947368421053" y="321.62105263157895" type="line"/>
      <point x="346.2105263157895" y="179.57894736842104" type="line"/>
      <point x="383.1473684210526" y="124.91578947368421"/>
      <point x="419.6736842105263" y="68.66315789473686"/>
    </contour>
    <contour>
      <point x="24.389473684210532" y="0.0" type="curve"/>
      <point x="162.37894736842105" y="0.0" type="line"/>
      <point x="171.86315789473682" y="78.12631578947368"/>
      <point x="182.9894736842105" y="144.48421052631582"/>
      <point x="201.9894736842105" y="234.30526315789473" type="curve"/>
      <point x="252.81052631578947" y="473.41052631578947" type="line"/>
      <point x="272.2210526315789" y="564.8736842105263"/>
      <point x="289.2736842105263" y="633.6421052631579"/>
      <point x="312.37894736842105" y="713.0" type="curve"/>
      <point x="174.38947368421054" y="713.0" type="line"/>
      <point x="163.90526315789475" y="633.6421052631579"/>
      <point x="152.77894736842106" y="564.8736842105263"/>
      <point x="133.3684210526316" y="473.41052631578947" type="curve"/>
      <point x="82.54736842105264" y="234.30526315789473" type="line"/>
      <point x="64.13684210526316" y="145.66315789473686"/>
      <point x="47.08421052631579" y="78.12631578947368"/>
    </contour>
  </outline>
</glyph>
<glyph name="L" format="2">
  <advance width="571.3368421052631"/>
  <unicode hex="004C"/>
  <anchor x="257.9684210526316" y="0.0" name="bottom"/>
  <anchor x="452.65263157894736" y="358.2315789473684" name="center"/>
  <anchor x="310.37894736842105" y="713.0" name="top"/>
  <anchor x="344.22105263157897" y="497.2842105263158" name="topright"/>
  <outline>
    <contour>
      <point x="24.389473684210532" y="0.0" type="curve"/>
      <point x="162.78947368421052" y="0.0" type="line"/>
      <point x="167.0736842105263" y="18.77894736842105" type="line"/>
      <point x="176.14736842105262" y="96.90526315789474"/>
      <point x="188.2736842105263" y="164.44210526315788"/>
      <point x="206.68421052631578" y="253.0842105263158" type="curve"/>
      <point x="253.22105263157894" y="473.41052631578947" type="line"/>
      <point x="272.6315789473684" y="564.8736842105263"/>
      <point x="289.6842105263158" y="633.6421052631579"/>
      <point x="312.7894736842105" y="713.0" type="curve"/>
      <point x="174.38947368421054" y="713.0" type="line"/>
      <point x="163.90526315789475" y="633.6421052631579"/>
      <point x="152.77894736842106" y="564.8736842105263"/>
      <point x="133.3684210526316" y="473.41052631578947" type="curve"/>
      <point x="82.54736842105264" y="234.30526315789473" type="line"/>
      <point x="64.13684210526316" y="145.66315789473686"/>
      <point x="47.08421052631579" y="78.12631578947368"/>
    </contour>
    <contour>
      <point x="136.54736842105265" y="0.0" type="line"/>
      <point x="486.6736842105263" y="0.0" type="line"/>
      <point x="511.32631578947365" y="117.92631578947369" type="line"/>
      <point x="434.71578947368414" y="109.17894736842106"/>
      <point x="370.6947368421052" y="105.30526315789474"/>
      <point x="260.83157894736837" y="105.30526315789474" type="curve"/>
      <point x="159.14736842105265" y="105.30526315789474" type="line"/>
    </contour>
  </outline>
</glyph>
<glyph name="M" format="2">
  <advance width="958.6210526315789"/>
  <unicode hex="004D"/>
  <anchor x="426.69473684210527" y="0.0" name="bottom"/>
  <anchor x="576.6947368421052" y="713.0" name="top"/>
  <outline>
    <contour>
      <point x="-1.4526315789473658" y="0.0" type="curve"/>
      <point x="131.96842105263158" y="0.0" type="line"/>
      <point x="162.13684210526316" y="114.03157894736842"/>
      <point x="193.58947368421053" y="221.06315789473683"/>
      <point x="223.78947368421052" y="311.8421052631579" type="curve"/>
      <point x="288.36842105263156" y="507.7052631578947" type="line"/>
      <point x="296.7052631578947" y="507.7052631578947" type="line"/>
      <point x="336.4631578947368" y="295.58947368421053" type="line"/>
      <point x="354.07368421052627" y="197.2736842105263"/>
      <point x="369.34736842105264" y="85.1157894736842"/>
      <point x="379.6736842105263" y="0.0" type="curve"/>
      <point x="478.82105263157894" y="0.0" type="line"/>
      <point x="526.8842105263158" y="88.83157894736841"/>
      <point x="586.4315789473683" y="195.2736842105263"/>
      <point x="645.6736842105263" y="296.7684210526316" type="curve"/>
      <point x="769.1052631578947" y="507.7052631578947" type="line"/>
      <point x="777.4421052631578" y="507.7052631578947" type="line"/>
      <point x="759.957894736842" y="311.8421052631579" type="line"/>
      <point x="752.0105263157894" y="221.06315789473683"/>
      <point x="738.0105263157895" y="115.38947368421053"/>
      <point x="719.1368421052631" y="0.0" type="curve"/>
      <point x="855.2526315789473" y="0.0" type="line"/>
      <point x="856.7368421052631" y="77.71578947368421"/>
      <point x="859.4526315789474" y="147.89473684210526"/>
      <point x="867.0421052631579" y="234.30526315789473" type="curve"/>
      <point x="887.8105263157894" y="472.58947368421053" type="line"/>
      <point x="895.4" y="559.7684210526315"/>
      <point x="904.4526315789474" y="632.6421052631579"/>
      <point x="916.3263157894737" y="713.0" type="curve"/>
      <point x="775.1578947368421" y="713.0" type="line"/>
      <point x="725.0947368421054" y="616.9368421052632"/>
      <point x="675.5684210526316" y="531.7473684210527"/>
      <point x="623.4" y="444.5052631578947" type="curve"/>
      <point x="469.4842105263158" y="187.18947368421053" type="line"/>
      <point x="460.9684210526316" y="187.18947368421053" type="line"/>
      <point x="413.4421052631579" y="444.5052631578947" type="line"/>
      <point x="397.6" y="531.7473684210527"/>
      <point x="382.1684210526316" y="618.1684210526316"/>
      <point x="373.66315789473686" y="713.0" type="curve"/>
      <point x="236.77894736842106" y="713.0" type="line"/>
      <point x="216.47368421052633" y="631.6421052631579"/>
      <point x="194.29473684210527" y="558.5894736842105"/>
      <point x="165.29473684210527" y="472.58947368421053" type="curve"/>
      <point x="86.06315789473685" y="234.30526315789473" type="line"/>
      <point x="57.06315789473685" y="147.7157894736842"/>
      <point x="30.189473684210533" y="76.48421052631579"/>
    </contour>
  </outline>
</glyph>
<glyph name="N" format="2">
  <advance width="758.9473684210526"/>
  <unicode hex="004E"/>
  <anchor x="326.58947368421053" y="0.0" name="bottom"/>
  <anchor x="476.58947368421053" y="713.0" name="top"/>
  <outline>
    <contour>
      <point x="24.389473684210532" y="0.0" type="curve"/>
      <point x="155.81052631578947" y="0.0" type="line"/>
      <point x="165.29473684210524" y="78.12631578947368"/>
      <point x="176.42105263157893" y="144.48421052631582"/>
      <point x="195.42105263157893" y="234.30526315789473" type="curve"/>
      <point x="256.09473684210525" y="522.6526315789474" type="line"/>
      <point x="265.0210526315789" y="522.6526315789474" type="line"/>
      <point x="362.5894736842105" y="317.89473684210526" type="line"/>
      <point x="420.47368421052624" y="196.78947368421052"/>
      <point x="465.64210526315793" y="96.88421052631578"/>
      <point x="502.93684210526317" y="0.0" type="curve"/>
      <point x="627.9684210526317" y="0.0" type="line"/>
      <point x="637.4526315789474" y="78.12631578947368"/>
      <point x="648.578947368421" y="144.48421052631582"/>
      <point x="667.578947368421" y="234.30526315789473" type="curve"/>
      <point x="718.4" y="473.41052631578947" type="line"/>
      <point x="737.8105263157895" y="564.8736842105263"/>
      <point x="754.8631578947368" y="633.6421052631579"/>
      <point x="777.9684210526316" y="713.0" type="curve"/>
      <point x="646.5473684210525" y="713.0" type="line"/>
      <point x="636.0631578947368" y="633.6421052631579"/>
      <point x="624.9368421052632" y="564.8736842105263"/>
      <point x="605.5263157894736" y="473.41052631578947" type="curve"/>
      <point x="545.6736842105263" y="192.70526315789473" type="line"/>
      <point x="536.3368421052631" y="192.70526315789473" type="line"/>
      <point x="440.58947368421053" y="395.8736842105263" type="line"/>
      <point x="394.0105263157895" y="494.54736842105257"/>
      <point x="348.7157894736842" y="598.6315789473684"/>
      <point x="303.2947368421053" y="713.0" type="curve"/>
      <point x="174.38947368421054" y="713.0" type="line"/>
      <point x="163.90526315789475" y="633.6421052631579"/>
      <point x="152.77894736842106" y="564.8736842105263"/>
      <point x="133.3684210526316" y="473.41052631578947" type="curve"/>
      <point x="82.54736842105264" y="234.30526315789473" type="line"/>
      <point x="64.13684210526316" y="145.66315789473686"/>
      <point x="47.08421052631579" y="78.12631578947368"/>
    </contour>
  </outline>
</glyph>
<glyph name="O" format="2">
  <advance width="815.7157894736843"/>
  <unicode hex="004F"/>
  <anchor x="355.94736842105266" y="0.0" name="bottom"/>
  <anchor x="430.94736842105266" y="357.0" name="center"/>
  <anchor x="486.1684210526316" y="0.0" name="ogonek"/>
  <anchor x="505.94736842105266" y="713.0" name="top"/>
  <anchor x="123.94736842105263" y="713.0" name="topleft"/>
  <anchor x="791.8210526315789" y="713.0" name="topright"/>
  <outline>
    <contour>
      <point x="401.7684210526316" y="-11.873684210526315" type="curve" smooth="yes"/>
      <point x="604.1368421052632" y="-11.873684210526315"/>
      <point x="744.2631578947368" y="120.17894736842106"/>
      <point x="785.0842105263157" y="311.46315789473687" type="curve" smooth="yes"/>
      <point x="832.4947368421052" y="532.6947368421053"/>
      <point x="708.7263157894737" y="726.6421052631579"/>
      <point x="463.66315789473686" y="726.6421052631579" type="curve" smooth="yes"/>
      <point x="258.93684210526317" y="726.6421052631579"/>
      <point x="117.63157894736841" y="599.4631578947368"/>
      <point x="74.45263157894736" y="397.10526315789474" type="curve" smooth="yes"/>
      <point x="28.452631578947372" y="179.69473684210527"/>
      <point x="150.2421052631579" y="-11.873684210526315"/>
    </contour>
    <contour>
      <point x="403.4105263157895" y="88.86315789473684" type="curve"/>
      <point x="249.13684210526316" y="96.14736842105265"/>
      <point x="160.5684210526316" y="216.0"/>
      <point x="195.53684210526316" y="381.2526315789474" type="curve" smooth="yes"/>
      <point x="226.73684210526318" y="524.9473684210526"/>
      <point x="316.69473684210527" y="619.4421052631579"/>
      <point x="462.43157894736845" y="625.9052631578948" type="curve"/>
      <point x="617.4" y="618.621052631579"/>
      <point x="698.3263157894737" y="491.23157894736846"/>
      <point x="663.1789473684211" y="325.85263157894735" type="curve" smooth="yes"/>
      <point x="635.1052631578948" y="189.71578947368423"/>
      <point x="545.1473684210526" y="94.50526315789475"/>
    </contour>
  </outline>
</glyph>
<glyph name="P" format="2">
  <advance width="637.7931034482758"/>
  <unicode hex="0050"/>
  <outline>
    <contour>
      <point x="362.17241379310343" y="268.7586206896552" type="curve"/>
      <point x="553.7241379310344" y="268.7586206896552"/>
      <point x="622.1724137931034" y="343.44827586206895"/>
      <point x="649.9655172413793" y="478.89655172413796" type="curve" smooth="yes"/>
      <point x="681.3448275862069" y="630.5862068965517"/>
      <point x="604.4827586206897" y="716.6896551724138"/>
      <point x="437.9310344827586" y="716.6896551724138" type="curve"/>
      <point x="322.99999999999994" y="716.6896551724138"/>
      <point x="239.3793103448276" y="713.0"/>
      <point x="174.6206896551724" y="713.0" type="curve"/>
      <point x="269.51724137931035" y="615.6551724137931" type="line"/>
      <point x="415.10344827586204" y="615.6551724137931" type="line" smooth="yes"/>
      <point x="479.48275862068965" y="615.6551724137931"/>
      <point x="551.2413793103447" y="588.8620689655173"/>
      <point x="529.103448275862" y="484.7931034482758" type="curve" smooth="yes"/>
      <point x="510.17241379310343" y="395.82758620689657"/>
      <point x="464.8965517241379" y="367.8965517241379"/>
      <point x="355.3103448275862" y="367.8965517241379" type="curve" smooth="yes"/>
      <point x="214.37931034482762" y="367.8965517241379" type="line"/>
      <point x="193.93103448275866" y="270.6551724137931" type="line"/>
      <point x="233.93103448275863" y="270.6551724137931"/>
      <point x="312.0689655172414" y="268.7586206896552"/>
    </contour>
    <contour>
      <point x="24.620689655172413" y="0.0" type="curve"/>
      <point x="162.03448275862067" y="0.0" type="line"/>
      <point x="171.55172413793102" y="78.3103448275862"/>
      <point x="181.96551724137936" y="144.51724137931035"/>
      <point x="200.96551724137933" y="234.41379310344828" type="curve"/>
      <point x="248.27586206896555" y="456.7586206896552" type="line"/>
      <point x="267.17241379310343" y="547.448275862069"/>
      <point x="284.96551724137936" y="615.551724137931"/>
      <point x="308.448275862069" y="694.7586206896551" type="curve"/>
      <point x="174.6206896551724" y="713.0" type="line"/>
      <point x="164.10344827586206" y="633.7931034482758"/>
      <point x="152.79310344827587" y="564.6896551724138"/>
      <point x="133.79310344827587" y="473.0" type="curve"/>
      <point x="82.89655172413794" y="234.41379310344828" type="line"/>
      <point x="64.0" y="145.6206896551724"/>
      <point x="47.20689655172414" y="78.3103448275862"/>
    </contour>
  </outline>
</glyph>
<glyph name="R" format="2">
  <advance width="683.0"/>
  <unicode hex="0052"/>
  <anchor x="289.551724137931" y="0.0" name="bottom"/>
  <anchor x="437.5862068965517" y="713.0" name="top"/>
  <outline>
    <contour>
      <point x="460.0344827586207" y="0.0" type="curve"/>
      <point x="612.7241379310345" y="0.0" type="line"/>
      <point x="577.1034482758621" y="54.10344827586207"/>
      <point x="527.1724137931034" y="139.68965517241378"/>
      <point x="492.0344827586207" y="205.48275862068965" type="curve"/>
      <point x="414.7586206896551" y="347.2758620689655" type="line"/>
      <point x="365.2413793103449" y="297.8965517241379" type="line"/>
      <point x="550.8965517241379" y="296.7931034482759"/>
      <point x="621.3448275862069" y="367.7931034482759"/>
      <point x="647.2413793103448" y="491.1724137931034" type="curve" smooth="yes"/>
      <point x="676.7241379310344" y="630.4827586206897"/>
      <point x="598.0689655172414" y="716.6896551724138"/>
      <point x="430.6206896551723" y="716.6896551724138" type="curve"/>
      <point x="329.13793103448273" y="716.6896551724138"/>
      <point x="244.7586206896552" y="713.0"/>
      <point x="174.6206896551724" y="713.0" type="curve"/>
      <point x="245.31034482758622" y="615.6551724137931" type="line"/>
      <point x="408.6896551724138" y="615.6551724137931" type="line" smooth="yes"/>
      <point x="473.06896551724134" y="615.6551724137931"/>
      <point x="543.8275862068966" y="592.3448275862069"/>
      <point x="522.7931034482759" y="492.58620689655174" type="curve" smooth="yes"/>
      <point x="502.0689655172414" y="395.9655172413793"/>
      <point x="453.10344827586204" y="370.7241379310345"/>
      <point x="347.10344827586204" y="370.7241379310345" type="curve" smooth="yes"/>
      <point x="207.20689655172416" y="370.7241379310345" type="line"/>
      <point x="186.7586206896552" y="273.48275862068965" type="line"/>
      <point x="357.13793103448273" y="273.48275862068965" type="line"/>
      <point x="296.6896551724138" y="338.2758620689655" type="line"/>
      <point x="384.6551724137931" y="163.86206896551724" type="line"/>
      <point x="410.31034482758616" y="113.03448275862068"/>
      <point x="435.96551724137936" y="60.31034482758621"/>
    </contour>
    <contour>
      <point x="24.620689655172413" y="0.0" type="curve"/>
      <point x="162.0344827586207" y="0.0" type="line"/>
      <point x="171.55172413793105" y="78.3103448275862"/>
      <point x="181.9655172413793" y="144.51724137931035"/>
      <point x="200.9655172413793" y="234.41379310344828" type="curve"/>
      <point x="248.27586206896552" y="456.7586206896552" type="line"/>
      <point x="267.1724137931035" y="547.448275862069"/>
      <point x="284.9655172413793" y="615.551724137931"/>
      <point x="308.44827586206895" y="694.7586206896551" type="curve"/>
      <point x="174.6206896551724" y="713.0" type="line"/>
      <point x="164.10344827586206" y="633.7931034482758"/>
      <point x="152.79310344827587" y="564.6896551724138"/>
      <point x="133.79310344827587" y="473.0" type="curve"/>
      <point x="82.89655172413794" y="234.41379310344828" type="line"/>
      <point x="64.0" y="145.6206896551724"/>
      <point x="47.20689655172414" y="78.3103448275862"/>
    </contour>
  </outline>
</glyph>
<glyph name="S" format="2">
  <advance width="592.0344827586207"/>
  <unicode hex="0053"/>
  <anchor x="246.3793103448276" y="0.0" name="bottom"/>
  <anchor x="396.3793103448276" y="713.0" name="top"/>
  <outline>
    <contour>
      <point x="272.4827586206896" y="-11.689655172413794" type="curve" smooth="yes"/>
      <point x="436.2068965517241" y="-11.689655172413794"/>
      <point x="514.896551724138" y="48.724137931034484"/>
      <point x="540.4827586206897" y="170.6551724137931" type="curve" smooth="yes"/>
      <point x="561.2758620689656" y="269.72413793103453"/>
      <point x="520.3793103448276" y="339.1034482758621"/>
      <point x="365.8620689655172" y="403.51724137931035" type="curve" smooth="yes"/>
      <point x="257.2413793103448" y="449.17241379310343"/>
      <point x="222.0" y="483.6896551724138"/>
      <point x="235.6206896551724" y="547.5862068965517" type="curve" smooth="yes"/>
      <point x="248.55172413793102" y="608.9310344827587"/>
      <point x="313.17241379310343" y="623.6551724137931"/>
      <point x="375.9655172413793" y="625.6551724137931" type="curve"/>
      <point x="411.06896551724134" y="625.6551724137931"/>
      <point x="486.65517241379314" y="604.8620689655173"/>
      <point x="570.3448275862069" y="560.6551724137931" type="curve"/>
      <point x="603.0689655172413" y="671.9655172413793" type="line"/>
      <point x="546.3793103448274" y="691.5862068965517"/>
      <point x="445.7586206896552" y="726.7931034482758"/>
      <point x="366.1034482758621" y="726.7931034482758" type="curve" smooth="yes"/>
      <point x="216.17241379310346" y="726.7931034482758"/>
      <point x="134.9655172413793" y="667.4137931034483"/>
      <point x="112.27586206896551" y="558.0689655172413" type="curve" smooth="yes"/>
      <point x="88.37931034482757" y="444.7931034482759"/>
      <point x="147.17241379310346" y="376.6551724137931"/>
      <point x="278.82758620689657" y="321.82758620689657" type="curve" smooth="yes"/>
      <point x="377.4137931034483" y="280.6896551724138"/>
      <point x="430.75862068965523" y="245.44827586206898"/>
      <point x="417.1379310344828" y="179.3448275862069" type="curve" smooth="yes"/>
      <point x="402.00000000000006" y="104.37931034482759"/>
      <point x="338.1724137931035" y="90.55172413793103"/>
      <point x="272.5862068965517" y="88.55172413793103" type="curve"/>
      <point x="209.27586206896552" y="88.55172413793103"/>
      <point x="125.20689655172416" y="120.3448275862069"/>
      <point x="49.89655172413793" y="163.7586206896552" type="curve"/>
      <point x="17.96551724137931" y="55.13793103448276" type="line"/>
      <point x="73.96551724137932" y="30.82758620689655"/>
      <point x="163.24137931034485" y="-11.689655172413794"/>
    </contour>
  </outline>
</glyph>
<glyph name="T" format="2">
  <advance width="642.7473684210527"/>
  <unicode hex="0054"/>
  <anchor x="270.46315789473687" y="0.0" name="bottom"/>
  <anchor x="340.1263157894737" y="333.1894736842105" name="center"/>
  <anchor x="420.46315789473687" y="713.0" name="top"/>
  <outline>
    <contour>
      <point x="201.1473684210526" y="0.0" type="curve"/>
      <point x="339.1368421052632" y="0.0" type="line"/>
      <point x="348.621052631579" y="78.12631578947368"/>
      <point x="359.7473684210526" y="144.48421052631582"/>
      <point x="378.74736842105267" y="234.30526315789473" type="curve"/>
      <point x="426.2842105263158" y="456.4" type="line"/>
      <point x="445.10526315789474" y="547.2736842105263"/>
      <point x="463.1578947368421" y="615.4526315789474"/>
      <point x="486.2631578947369" y="694.8105263157895" type="curve"/>
      <point x="489.5473684210527" y="713.0" type="line"/>
      <point x="351.55789473684206" y="713.0" type="line"/>
      <point x="347.6842105263157" y="694.8105263157895" type="line"/>
      <point x="338.2" y="615.4526315789474"/>
      <point x="326.25263157894733" y="546.6842105263158"/>
      <point x="306.84210526315786" y="456.4" type="curve"/>
      <point x="259.30526315789473" y="234.30526315789473" type="line"/>
      <point x="240.89473684210523" y="145.66315789473686"/>
      <point x="223.84210526315786" y="78.12631578947368"/>
    </contour>
    <contour>
      <point x="102.77894736842106" y="595.0736842105264" type="line"/>
      <point x="158.90526315789475" y="603.2315789473685"/>
      <point x="217.21052631578948" y="607.6947368421053"/>
      <point x="296.05263157894734" y="607.6947368421053" type="curve"/>
      <point x="358.12631578947367" y="607.6947368421053" type="line"/>
      <point x="380.3157894736842" y="713.0" type="line"/>
      <point x="127.43157894736842" y="713.0" type="line"/>
    </contour>
    <contour>
      <point x="437.4210526315789" y="607.6947368421053" type="line"/>
      <point x="499.4947368421052" y="607.6947368421053" type="line"/>
      <point x="578.3368421052631" y="607.6947368421053"/>
      <point x="635.5894736842105" y="603.8210526315789"/>
      <point x="687.8421052631579" y="595.0736842105264" type="curve"/>
      <point x="712.4947368421052" y="713.0" type="line"/>
      <point x="459.61052631578946" y="713.0" type="line"/>
    </contour>
  </outline>
</glyph>
<glyph name="U" format="2">
  <advance width="729.5368421052632"/>
  <unicode hex="0055"/>
  <anchor x="313.3578947368421" y="0.0" name="bottom"/>
  <anchor x="435.4736842105263" y="0.0" name="ogonek"/>
  <anchor x="463.3578947368421" y="713.0" name="top"/>
  <anchor x="797.6736842105263" y="713.0" name="topright"/>
  <outline>
    <contour>
      <point x="331.17894736842106" y="-11.873684210526315" type="curve" smooth="yes"/>
      <point x="540.2947368421053" y="-11.873684210526315"/>
      <point x="623.757894736842" y="96.94736842105263"/>
      <point x="655.2210526315789" y="243.38947368421051" type="curve" smooth="yes"/>
      <point x="664.4" y="286.8736842105263"/>
      <point x="682.7578947368421" y="383.33684210526314"/>
      <point x="701.5263157894736" y="473.41052631578947" type="curve"/>
      <point x="720.9368421052632" y="564.8736842105263"/>
      <point x="737.9894736842105" y="633.6421052631579"/>
      <point x="761.0947368421052" y="713.0" type="curve"/>
      <point x="622.6947368421053" y="713.0" type="line"/>
      <point x="612.2105263157895" y="633.6421052631579"/>
      <point x="601.0842105263158" y="564.8736842105263"/>
      <point x="581.6736842105263" y="473.41052631578947" type="curve"/>
      <point x="536.7789473684211" y="263.8315789473684" type="line" smooth="yes"/>
      <point x="514.5263157894738" y="159.9263157894737"/>
      <point x="465.66315789473686" y="91.50526315789475"/>
      <point x="339.5684210526316" y="88.86315789473684" type="curve"/>
      <point x="213.3473684210526" y="91.50526315789475"/>
      <point x="179.66315789473683" y="178.7684210526316"/>
      <point x="204.09473684210528" y="294.1578947368421" type="curve" smooth="yes"/>
      <point x="242.45263157894738" y="473.41052631578947" type="line"/>
      <point x="261.86315789473684" y="564.8736842105263"/>
      <point x="278.91578947368424" y="633.6421052631579"/>
      <point x="302.021052631579" y="713.0" type="curve"/>
      <point x="164.03157894736844" y="713.0" type="line"/>
      <point x="153.54736842105265" y="633.6421052631579"/>
      <point x="142.42105263157896" y="564.8736842105263"/>
      <point x="123.01052631578948" y="473.41052631578947" type="curve"/>
      <point x="107.83157894736841" y="402.7473684210526"/>
      <point x="90.01052631578946" y="334.8"/>
      <point x="82.42105263157895" y="298.2631578947368" type="curve" smooth="yes"/>
      <point x="45.9578947368421" y="128.3578947368421"/>
      <point x="119.70526315789475" y="-11.873684210526315"/>
    </contour>
  </outline>
</glyph>
<glyph name="V" format="2">
  <advance width="697.5578947368421"/>
  <unicode hex="0056"/>
  <anchor x="297.36842105263156" y="0.0" name="bottom"/>
  <anchor x="447.36842105263156" y="713.0" name="top"/>
  <outline>
    <contour>
      <point x="208.50526315789472" y="0.0" type="curve"/>
      <point x="387.7157894736842" y="0.0" type="line"/>
      <point x="420.7368421052632" y="72.58947368421053"/>
      <point x="465.7578947368421" y="159.35789473684213"/>
      <point x="503.2947368421053" y="226.58947368421053" type="curve"/>
      <point x="625.6210526315789" y="450.0" type="line"/>
      <point x="667.9263157894736" y="527.4105263157895"/>
      <point x="726.4631578947368" y="629.2315789473683"/>
      <point x="781.5157894736841" y="713.0" type="curve"/>
      <point x="622.1578947368421" y="713.0" type="line"/>
      <point x="577.0947368421051" y="613.7789473684211"/>
      <point x="522.2105263157895" y="501.2"/>
      <point x="471.6315789473684" y="403.15789473684214" type="curve"/>
      <point x="325.61052631578946" y="122.62105263157895" type="line"/>
      <point x="315.5052631578947" y="122.62105263157895" type="line"/>
      <point x="284.4210526315789" y="401.5684210526316" type="line"/>
      <point x="273.6842105263158" y="499.37894736842105"/>
      <point x="262.0" y="614.957894736842"/>
      <point x="255.90526315789472" y="713.0" type="curve"/>
      <point x="112.22105263157896" y="713.0" type="line"/>
      <point x="133.09473684210528" y="628.6421052631579"/>
      <point x="148.9894736842105" y="525.642105263158"/>
      <point x="158.88421052631577" y="449.41052631578947" type="curve"/>
      <point x="187.56842105263158" y="226.58947368421053" type="line"/>
      <point x="196.05263157894737" y="158.58947368421053"/>
      <point x="204.07368421052632" y="71.41052631578947"/>
    </contour>
  </outline>
</glyph>
<glyph name="W" format="2">
  <advance width="1028.5578947368422"/>
  <unicode hex="0057"/>
  <anchor x="460.13684210526316" y="0.0" name="bottom"/>
  <anchor x="610.1368421052631" y="713.0" name="top"/>
  <outline>
    <contour>
      <point x="163.38947368421054" y="0.0" type="curve"/>
      <point x="325.4315789473684" y="0.0" type="line"/>
      <point x="360.01052631578943" y="89.47368421052632"/>
      <point x="406.3052631578948" y="197.02105263157893"/>
      <point x="447.34736842105264" y="285.2631578947368" type="curve"/>
      <point x="566.1157894736842" y="543.0947368421052" type="line"/>
      <point x="576.2210526315789" y="543.0947368421052" type="line"/>
      <point x="588.8526315789474" y="285.2631578947368" type="line"/>
      <point x="592.9263157894737" y="196.2"/>
      <point x="595.5368421052632" y="90.06315789473685"/>
      <point x="595.7368421052631" y="0.0" type="curve"/>
      <point x="763.2947368421053" y="0.0" type="line"/>
      <point x="789.0105263157895" y="68.82105263157894"/>
      <point x="830.7263157894737" y="154.58947368421053"/>
      <point x="865.6736842105263" y="225.58947368421053" type="curve"/>
      <point x="975.3368421052631" y="450.0" type="line"/>
      <point x="1013.8736842105262" y="529.1789473684211"/>
      <point x="1065.284210526316" y="629.0526315789474"/>
      <point x="1115.3368421052635" y="713.0" type="curve"/>
      <point x="958.0315789473684" y="713.0" type="line"/>
      <point x="920.2736842105263" y="618.2421052631579"/>
      <point x="872.3894736842105" y="506.58947368421053"/>
      <point x="829.7578947368421" y="412.42105263157896" type="curve"/>
      <point x="707.2210526315789" y="141.68421052631578" type="line"/>
      <point x="697.1157894736842" y="141.68421052631578" type="line"/>
      <point x="686.9473684210526" y="411.6" type="line"/>
      <point x="683.1052631578947" y="509.1263157894737"/>
      <point x="680.9052631578948" y="617.063157894737"/>
      <point x="682.3473684210527" y="713.0" type="curve"/>
      <point x="534.978947368421" y="713.0" type="line"/>
      <point x="496.98947368421045" y="618.8315789473684"/>
      <point x="448.23157894736846" y="505.17894736842106"/>
      <point x="406.9578947368421" y="413.0105263157895" type="curve"/>
      <point x="284.7263157894737" y="141.68421052631578" type="line"/>
      <point x="274.62105263157895" y="141.68421052631578" type="line"/>
      <point x="265.14736842105265" y="407.4736842105263" type="line"/>
      <point x="261.53684210526313" y="503.82105263157894"/>
      <point x="260.2105263157894" y="617.4736842105265"/>
      <point x="262.47368421052636" y="713.0" type="curve"/>
      <point x="110.4" y="713.0" type="line"/>
      <point x="125.73684210526316" y="629.8210526315789"/>
      <point x="135.2736842105263" y="526.8210526315789"/>
      <point x="141.22105263157897" y="447.05263157894734" type="curve"/>
      <point x="156.06315789473686" y="225.0" type="line"/>
      <point x="161.01052631578946" y="155.58947368421053"/>
      <point x="164.31578947368422" y="71.41052631578948"/>
    </contour>
  </outline>
</glyph>
<glyph name="X" format="2">
  <advance width="699.6421052631579"/>
  <unicode hex="0058"/>
  <outline>
    <contour>
      <point x="-27.652631578947368" y="0.0" type="curve"/>
      <point x="138.29473684210524" y="0.0" type="line"/>
      <point x="177.94736842105263" y="59.32631578947369"/>
      <point x="214.57894736842107" y="109.93684210526317"/>
      <point x="254.56842105263155" y="160.44210526315788" type="curve"/>
      <point x="349.2631578947368" y="282.4526315789474" type="line"/>
      <point x="359.36842105263156" y="282.4526315789474" type="line"/>
      <point x="409.6842105263157" y="161.03157894736842" type="line"/>
      <point x="430.0105263157895" y="112.8842105263158"/>
      <point x="451.1052631578947" y="59.32631578947369"/>
      <point x="468.86315789473684" y="0.0" type="curve"/>
      <point x="623.7052631578947" y="0.0" type="line"/>
      <point x="580.936842105263" y="72.94736842105263"/>
      <point x="548.0421052631577" y="140.76842105263157"/>
      <point x="513.6105263157895" y="219.41052631578947" type="curve"/>
      <point x="445.56842105263155" y="375.2315789473684" type="line"/>
      <point x="438.28421052631575" y="340.57894736842104" type="line"/>
      <point x="571.7894736842105" y="506.37894736842105" type="line"/>
      <point x="620.0947368421054" y="566.2526315789473"/>
      <point x="679.9894736842105" y="638.3578947368421"/>
      <point x="751.8631578947367" y="713.0" type="curve"/>
      <point x="584.9157894736843" y="713.0" type="line"/>
      <point x="543.2105263157895" y="652.8000000000001"/>
      <point x="501.27368421052626" y="592.6526315789473"/>
      <point x="459.8736842105263" y="540.5052631578948" type="curve"/>
      <point x="380.61052631578946" y="438.33684210526314" type="line"/>
      <point x="370.5052631578947" y="438.33684210526314" type="line"/>
      <point x="330.6210526315789" y="539.3263157894737" type="line"/>
      <point x="310.29473684210524" y="590.8842105263158"/>
      <point x="289.8421052631579" y="651.4421052631578"/>
      <point x="272.0315789473684" y="713.0" type="curve"/>
      <point x="121.70526315789473" y="713.0" type="line"/>
      <point x="165.1157894736842" y="633.8210526315789"/>
      <point x="193.9578947368421" y="565.1789473684211"/>
      <point x="221.79999999999998" y="497.53684210526313" type="curve"/>
      <point x="282.2526315789474" y="350.89473684210526" type="line"/>
      <point x="289.3578947368421" y="383.4947368421052" type="line"/>
      <point x="147.7263157894737" y="205.56842105263158" type="line"/>
      <point x="88.06315789473685" y="130.69473684210527"/>
      <point x="33.57894736842104" y="65.46315789473685"/>
    </contour>
  </outline>
</glyph>
<glyph name="Y" format="2">
  <advance width="663.4842105263158"/>
  <unicode hex="0059"/>
  <anchor x="281.06315789473683" y="0.0" name="bottom"/>
  <anchor x="431.88421052631577" y="713.0" name="top"/>
  <anchor x="117.58947368421053" y="713.0" name="topleft"/>
  <outline>
    <contour>
      <point x="286.36842105263156" y="267.9789473684211" type="line"/>
      <point x="392.3157894736842" y="267.9789473684211" type="line"/>
      <point x="602.978947368421" y="538.2736842105263" type="line"/>
      <point x="647.1578947368422" y="595.1999999999999"/>
      <point x="694.3368421052631" y="653.8947368421053"/>
      <point x="749.4947368421053" y="713.0" type="curve"/>
      <point x="584.3157894736844" y="713.0" type="line"/>
      <point x="528.6947368421054" y="624.3684210526317"/>
      <point x="497.06315789473683" y="578.4"/>
      <point x="444.17894736842106" y="505.12631578947367" type="curve"/>
      <point x="363.9684210526316" y="394.42105263157896" type="line"/>
      <point x="354.2736842105263" y="394.42105263157896" type="line"/>
      <point x="317.62105263157895" y="508.4842105263158" type="line"/>
      <point x="294.7578947368421" y="578.9894736842106"/>
      <point x="282.7894736842105" y="622.6"/>
      <point x="261.5473684210526" y="713.0" type="curve"/>
      <point x="112.16842105263159" y="713.0" type="line"/>
      <point x="147.09473684210525" y="644.4842105263158"/>
      <point x="167.50526315789472" y="595.7894736842105"/>
      <point x="188.45263157894738" y="538.2736842105263" type="curve"/>
    </contour>
    <contour>
      <point x="212.56842105263158" y="0.0" type="curve"/>
      <point x="351.37894736842105" y="0.0" type="line"/>
      <point x="360.86315789473684" y="78.12631578947368"/>
      <point x="371.9894736842105" y="144.48421052631582"/>
      <point x="390.9894736842105" y="234.30526315789473" type="curve"/>
      <point x="419.4315789473684" y="368.2842105263158" type="line"/>
      <point x="299.1684210526316" y="368.2842105263158" type="line"/>
      <point x="270.7263157894737" y="234.30526315789473" type="line"/>
      <point x="252.3157894736842" y="145.66315789473686"/>
      <point x="235.26315789473682" y="78.12631578947368"/>
    </contour>
  </outline>
</glyph>
<glyph name="Z" format="2">
  <advance width="677.4736842105264"/>
  <unicode hex="005A"/>
  <anchor x="286.62105263157895" y="0.0" name="bottom"/>
  <anchor x="361.62105263157895" y="357.0" name="center"/>
  <anchor x="436.62105263157895" y="713.0" name="top"/>
  <outline>
    <contour>
      <point x="-7.673684210526316" y="0.0" type="line"/>
      <point x="577.378947368421" y="0.0" type="line"/>
      <point x="601.8000000000001" y="114.41052631578947" type="line"/>
      <point x="523.0631578947368" y="103.66315789473684"/>
      <point x="398.53684210526313" y="100.78947368421052"/>
      <point x="313.6736842105263" y="100.78947368421052" type="curve"/>
      <point x="136.76842105263157" y="100.78947368421052" type="line"/>
      <point x="151.2315789473684" y="56.72631578947368" type="line"/>
      <point x="490.65263157894736" y="406.86315789473684" type="line"/>
      <point x="561.1052631578948" y="480.3157894736842"/>
      <point x="632.378947368421" y="553.357894736842"/>
      <point x="703.0105263157894" y="619.242105263158" type="curve"/>
      <point x="722.7368421052631" y="713.0" type="line"/>
      <point x="151.2" y="713.0" type="line"/>
      <point x="127.36842105263156" y="597.5368421052632" type="line"/>
      <point x="225.6421052631579" y="608.7473684210527"/>
      <point x="317.3263157894737" y="612.2105263157895"/>
      <point x="397.42105263157896" y="612.2105263157895" type="curve"/>
      <point x="591.6842105263157" y="612.2105263157895" type="line"/>
      <point x="568.6842105263157" y="651.5578947368421" type="line"/>
      <point x="244.58947368421053" y="314.2842105263158" type="line"/>
      <point x="173.0842105263158" y="239.77894736842106"/>
      <point x="73.09473684210526" y="136.61052631578949"/>
      <point x="9.589473684210526" y="80.0842105263158" type="curve"/>
    </contour>
  </outline>
</glyph>
<glyph name="bracketleft" format="2">
  <advance width="386.0526315789474"/>
  <unicode hex="005B"/>
  <outline>
    <contour>
      <point x="3.210526315789477" y="-119.38947368421053" type="curve"/>
      <point x="120.90526315789475" y="-119.38947368421053" type="line"/>
      <point x="124.18947368421054" y="-100.61052631578947" type="line"/>
      <point x="133.67368421052632" y="-22.48421052631579"/>
      <point x="145.38947368421054" y="45.05263157894737"/>
      <point x="163.8" y="133.69473684210527" type="curve"/>
      <point x="243.74736842105264" y="512.8421052631579" type="line"/>
      <point x="262.5684210526316" y="603.1263157894737"/>
      <point x="279.621052631579" y="671.8947368421053"/>
      <point x="303.3157894736843" y="751.2526315789473" type="curve"/>
      <point x="307.6" y="769.4421052631579" type="line"/>
      <point x="189.90526315789475" y="769.4421052631579" type="line"/>
      <point x="178.18947368421055" y="690.6736842105263"/>
      <point x="166.47368421052633" y="620.7263157894737"/>
      <point x="147.6526315789474" y="531.0315789473684" type="curve"/>
      <point x="60.13684210526316" y="114.91578947368421" type="line"/>
      <point x="41.72631578947369" y="26.86315789473684"/>
      <point x="24.673684210526318" y="-41.26315789473684"/>
    </contour>
    <contour>
      <point x="97.1263157894737" y="-119.38947368421053" type="line"/>
      <point x="290.20000000000005" y="-119.38947368421053" type="line"/>
      <point x="309.7473684210526" y="-24.757894736842104" type="line"/>
      <point x="262.79999999999995" y="-29.452631578947365"/>
      <point x="212.85263157894735" y="-30.684210526315788"/>
      <point x="157.13684210526316" y="-30.684210526315788" type="curve"/>
      <point x="115.44210526315791" y="-30.684210526315788" type="line"/>
    </contour>
    <contour>
      <point x="258.52631578947364" y="680.7368421052631" type="line"/>
      <point x="300.09473684210525" y="680.7368421052631" type="line"/>
      <point x="366.81052631578945" y="680.7368421052631"/>
      <point x="412.34736842105264" y="678.2736842105263"/>
      <point x="454.88421052631577" y="674.8105263157894" type="curve"/>
      <point x="475.4315789473684" y="769.4421052631579" type="line"/>
      <point x="277.25263157894733" y="769.4421052631579" type="line"/>
    </contour>
  </outline>
</glyph>
<glyph name="backslash" format="2">
  <advance width="457.29473684210524"/>
  <unicode hex="005C"/>
  <outline>
    <contour>
      <point x="269.89473684210526" y="0.0" type="curve"/>
      <point x="387.0" y="0.0" type="line"/>
      <point x="365.71578947368425" y="74.0"/>
      <point x="348.12631578947367" y="137.0"/>
      <point x="328.82105263157894" y="228.0" type="curve"/>
      <point x="276.4421052631579" y="475.41052631578947" type="line"/>
      <point x="256.7263157894737" y="569.9999999999999"/>
      <point x="244.0105263157895" y="636.5894736842105"/>
      <point x="234.63157894736844" y="713.0" type="curve"/>
      <point x="118.34736842105264" y="713.0" type="line"/>
      <point x="142.22105263157894" y="636.0"/>
      <point x="157.57894736842104" y="571.5894736842106"/>
      <point x="177.29473684210527" y="474.58947368421053" type="curve"/>
      <point x="229.26315789473685" y="228.0" type="line"/>
      <point x="248.97894736842102" y="137.0"/>
      <point x="261.10526315789474" y="74.0"/>
    </contour>
  </outline>
</glyph>
<glyph name="asciicircum" format="2">
  <advance width="617.9157894736842"/>
  <unicode hex="005E"/>
  <outline>
    <contour>
      <point x="496.65263157894736" y="371.42105263157896" type="curve"/>
      <point x="589.5368421052631" y="372.8315789473684" type="line"/>
      <point x="543.8736842105263" y="477.4526315789474"/>
      <point x="501.38947368421054" y="581.8421052631578"/>
      <point x="467.06315789473683" y="686.4631578947368" type="curve"/>
      <point x="315.3052631578947" y="686.4631578947368" type="line"/>
      <point x="245.21052631578945" y="584.2526315789473"/>
      <point x="165.90526315789475" y="480.57894736842104"/>
      <point x="81.52631578947368" y="374.8315789473684" type="curve"/>
      <point x="186.97894736842105" y="374.8315789473684" type="line"/>
      <point x="253.61052631578949" y="447.69473684210527"/>
      <point x="315.7789473684211" y="520.3263157894736"/>
      <point x="377.3578947368421" y="593.1894736842105" type="curve"/>
      <point x="387.0526315789474" y="593.1894736842105" type="line"/>
      <point x="422.43157894736845" y="519.3263157894737"/>
      <point x="456.8105263157895" y="445.2842105263158"/>
    </contour>
  </outline>
</glyph>
<glyph name="underscore" format="2">
  <advance width="412.8421052631579"/>
  <unicode hex="005F"/>
  <outline>
    <contour>
      <point x="-92.49473684210525" y="-141.7263157894737" type="line"/>
      <point x="-26.926315789473684" y="-139.31578947368422"/>
      <point x="37.10526315789473" y="-138.0842105263158"/>
      <point x="88.62105263157895" y="-137.26315789473685" type="curve"/>
      <point x="162.05263157894737" y="-137.26315789473685" type="line"/>
      <point x="212.7473684210526" y="-138.0842105263158"/>
      <point x="275.9578947368421" y="-139.31578947368422"/>
      <point x="340.34736842105264" y="-141.7263157894737" type="curve"/>
      <point x="361.30526315789473" y="-43.22105263157894" type="line"/>
      <point x="295.32631578947365" y="-45.63157894736842"/>
      <point x="231.29473684210524" y="-46.86315789473684"/>
      <point x="180.18947368421053" y="-47.68421052631579" type="curve"/>
      <point x="106.7578947368421" y="-47.68421052631579" type="line"/>
      <point x="55.652631578947364" y="-46.86315789473684"/>
      <point x="-7.557894736842105" y="-45.63157894736842"/>
      <point x="-71.53684210526316" y="-43.22105263157894" type="curve"/>
    </contour>
  </outline>
</glyph>
<glyph name="a" format="2">
  <advance width="531.2413793103448"/>
  <unicode hex="0061"/>
  <anchor x="209.99999999999997" y="0.0" name="bottom"/>
  <anchor x="407.9655172413793" y="0.0" name="ogonek"/>
  <anchor x="315.99999999999994" y="497.58620689655174" name="top"/>
  <outline>
    <contour>
      <point x="156.89655172413794" y="-10.793103448275861" type="curve" smooth="yes"/>
      <point x="218.00000000000003" y="-10.793103448275861"/>
      <point x="278.13793103448285" y="27.793103448275865"/>
      <point x="315.9655172413793" y="66.65517241379312" type="curve"/>
      <point x="325.55172413793105" y="66.65517241379312" type="line"/>
      <point x="327.96551724137936" y="0.0" type="line"/>
      <point x="438.86206896551715" y="0.0" type="line"/>
      <point x="430.17241379310343" y="59.275862068965516"/>
      <point x="431.55172413793105" y="111.3448275862069"/>
      <point x="441.34482758620686" y="157.6206896551724" type="curve"/>
      <point x="452.8620689655172" y="211.0" type="line" smooth="yes"/>
      <point x="461.9655172413793" y="251.51724137931035"/>
      <point x="470.86206896551715" y="284.6206896551724"/>
      <point x="477.7586206896551" y="316.2068965517241" type="curve" smooth="yes"/>
      <point x="503.4482758620689" y="432.3793103448276"/>
      <point x="439.4137931034483" y="509.37931034482756"/>
      <point x="299.2068965517242" y="509.37931034482756" type="curve" smooth="yes"/>
      <point x="245.93103448275863" y="509.37931034482756"/>
      <point x="165.0689655172414" y="490.96551724137936"/>
      <point x="115.37931034482759" y="480.6551724137931" type="curve"/>
      <point x="97.82758620689656" y="375.3103448275862" type="line"/>
      <point x="169.6551724137931" y="400.6206896551724"/>
      <point x="245.89655172413794" y="418.2068965517241"/>
      <point x="270.3103448275862" y="418.2068965517241" type="curve" smooth="yes"/>
      <point x="346.9655172413793" y="418.2068965517241"/>
      <point x="385.8965517241379" y="383.0689655172414"/>
      <point x="371.34482758620686" y="320.0689655172414" type="curve"/>
      <point x="204.6896551724138" y="292.13793103448273" type="line" smooth="yes"/>
      <point x="120.89655172413794" y="277.9310344827586"/>
      <point x="45.172413793103445" y="251.7586206896552"/>
      <point x="25.068965517241377" y="158.75862068965517" type="curve" smooth="yes"/>
      <point x="4.96551724137931" y="67.65517241379311"/>
      <point x="58.79310344827586" y="-10.793103448275861"/>
    </contour>
    <contour>
      <point x="199.13793103448273" y="75.79310344827587" type="curve" smooth="yes"/>
      <point x="154.3103448275862" y="75.79310344827587"/>
      <point x="126.82758620689657" y="102.34482758620689"/>
      <point x="135.86206896551727" y="149.79310344827584" type="curve" smooth="yes"/>
      <point x="144.48275862068968" y="193.48275862068968"/>
      <point x="182.0" y="207.6896551724138"/>
      <point x="233.79310344827584" y="218.20689655172413" type="curve" smooth="yes"/>
      <point x="314.3448275862069" y="235.0344827586207"/>
      <point x="336.37931034482756" y="243.24137931034483"/>
      <point x="352.8965517241379" y="253.03448275862067" type="curve"/>
      <point x="333.551724137931" y="159.24137931034483" type="line"/>
      <point x="283.89655172413796" y="100.3103448275862"/>
      <point x="227.0344827586207" y="75.79310344827587"/>
    </contour>
  </outline>
</glyph>
<glyph name="b" format="2">
  <advance width="593.2842105263157"/>
  <unicode hex="0062"/>
  <outline>
    <contour>
      <point x="309.9684210526316" y="-11.873684210526315" type="curve" smooth="yes"/>
      <point x="429.5052631578948" y="-11.873684210526315"/>
      <point x="513.7578947368421" y="82.15789473684211"/>
      <point x="543.7578947368421" y="224.92631578947368" type="curve" smooth="yes"/>
      <point x="575.1684210526315" y="375.7473684210526"/>
      <point x="521.378947368421" y="509.7473684210526"/>
      <point x="377.82105263157894" y="509.7473684210526" type="curve" smooth="yes"/>
      <point x="330.2105263157895" y="509.7473684210526"/>
      <point x="272.8842105263157" y="478.9578947368421"/>
      <point x="237.29473684210527" y="442.4421052631579" type="curve"/>
      <point x="227.18947368421053" y="442.4421052631579" type="line"/>
      <point x="238.13684210526316" y="493.58947368421053" type="line"/>
      <point x="256.9578947368421" y="583.1052631578947"/>
      <point x="278.8842105263158" y="664.9789473684211"/>
      <point x="303.75789473684216" y="744.9263157894737" type="curve"/>
      <point x="162.00000000000003" y="730.2315789473685" type="line"/>
      <point x="158.62105263157895" y="653.7157894736843"/>
      <point x="146.49473684210528" y="576.1263157894737"/>
      <point x="129.31578947368422" y="493.58947368421053" type="curve"/>
      <point x="70.90526315789474" y="217.7157894736842" type="line"/>
      <point x="53.49473684210527" y="135.4842105263158"/>
      <point x="36.852631578947374" y="72.53684210526316"/>
      <point x="15.568421052631587" y="0.0" type="curve"/>
      <point x="110.66315789473684" y="0.0" type="line"/>
      <point x="139.6421052631579" y="71.73684210526316" type="line"/>
      <point x="148.5157894736842" y="71.73684210526316" type="line"/>
      <point x="186.58947368421053" y="20.96842105263158"/>
      <point x="254.07368421052632" y="-11.873684210526315"/>
    </contour>
    <contour>
      <point x="281.64210526315793" y="84.16842105263159" type="curve"/>
      <point x="238.34736842105264" y="84.98947368421054"/>
      <point x="194.1052631578947" y="109.85263157894738"/>
      <point x="166.29473684210527" y="152.86315789473684" type="curve"/>
      <point x="207.97894736842105" y="349.8" type="line"/>
      <point x="243.91578947368419" y="388.6105263157895"/>
      <point x="291.74736842105267" y="413.9368421052631"/>
      <point x="328.3789473684211" y="414.9368421052631" type="curve"/>
      <point x="420.68421052631584" y="411.9368421052631"/>
      <point x="453.3157894736843" y="330.0315789473684"/>
      <point x="433.52631578947376" y="233.85263157894738" type="curve" smooth="yes"/>
      <point x="415.68421052631584" y="148.41052631578947"/>
      <point x="366.9263157894737" y="87.57894736842105"/>
    </contour>
  </outline>
</glyph>
<glyph name="f" format="2">
  <advance width="400.2421052631579"/>
  <unicode hex="0066"/>
  <outline>
    <contour>
      <point x="49.90526315789474" y="0.0" type="curve"/>
      <point x="176.45263157894738" y="0.0" type="line"/>
      <point x="186.5263157894737" y="72.53684210526316"/>
      <point x="196.65263157894736" y="135.4842105263158"/>
      <point x="214.06315789473683" y="217.7157894736842" type="curve"/>
      <point x="268.6526315789474" y="475.89473684210526" type="line"/>
      <point x="276.1684210526316" y="497.2842105263158" type="line"/>
      <point x="271.36842105263156" y="507.0"/>
      <point x="270.74736842105256" y="537.5052631578945"/>
      <point x="275.51578947368415" y="559.578947368421" type="curve" smooth="yes"/>
      <point x="288.76842105263154" y="621.8947368421052"/>
      <point x="321.6105263157895" y="653.7052631578947"/>
      <point x="385.8736842105263" y="653.7052631578947" type="curve" smooth="yes"/>
      <point x="408.71578947368425" y="653.7052631578947"/>
      <point x="443.82105263157894" y="644.7052631578947"/>
      <point x="471.33684210526314" y="634.4736842105264" type="curve"/>
      <point x="498.98947368421057" y="729.0526315789474" type="line"/>
      <point x="464.5473684210526" y="737.6421052631579"/>
      <point x="411.41052631578947" y="746.0526315789474"/>
      <point x="381.7684210526316" y="746.0526315789474" type="curve" smooth="yes"/>
      <point x="285.2" y="746.0526315789474"/>
      <point x="203.36842105263156" y="703.4631578947368"/>
      <point x="174.67368421052632" y="569.9157894736842" type="curve" smooth="yes"/>
      <point x="152.2421052631579" y="462.70526315789476"/>
      <point x="133.6" y="355.5052631578947"/>
      <point x="115.65263157894736" y="267.7157894736842" type="curve"/>
      <point x="105.2421052631579" y="217.7157894736842" type="line"/>
      <point x="87.83157894736843" y="135.4842105263158"/>
      <point x="71.18947368421051" y="72.53684210526316"/>
    </contour>
    <contour>
      <point x="54.70526315789474" y="404.70526315789476" type="line"/>
      <point x="177.55789473684212" y="416.6842105263158" type="line"/>
      <point x="224.1473684210526" y="416.6842105263158" type="line"/>
      <point x="285.9894736842105" y="415.86315789473684"/>
      <point x="345.36842105263156" y="412.4"/>
      <point x="409.0315789473684" y="404.70526315789476" type="curve"/>
      <point x="428.7578947368421" y="497.2842105263158" type="line"/>
      <point x="74.43157894736842" y="497.2842105263158" type="line"/>
    </contour>
  </outline>
</glyph>
<glyph name="g" format="2">
  <advance width="546.7586206896551"/>
  <unicode hex="0067"/>
  <anchor x="198.2068965517241" y="-192.0" name="bottom"/>
  <anchor x="311.7586206896552" y="497.58620689655174" name="top"/>
  <outline>
    <contour>
      <point x="178.17241379310346" y="-202.79310344827587" type="curve" smooth="yes"/>
      <point x="296.1379310344828" y="-202.79310344827587"/>
      <point x="419.0" y="-159.58620689655172"/>
      <point x="441.5862068965517" y="-52.6551724137931" type="curve" smooth="yes"/>
      <point x="460.17241379310343" y="36.17241379310345"/>
      <point x="401.0" y="92.65517241379311"/>
      <point x="271.17241379310343" y="92.65517241379311" type="curve" smooth="yes"/>
      <point x="227.41379310344828" y="92.65517241379311" type="line" smooth="yes"/>
      <point x="187.44827586206898" y="92.65517241379311"/>
      <point x="159.0" y="102.3448275862069"/>
      <point x="163.20689655172413" y="124.17241379310346" type="curve" smooth="yes"/>
      <point x="166.72413793103448" y="143.0344827586207"/>
      <point x="203.82758620689657" y="154.93103448275863"/>
      <point x="269.2068965517241" y="163.34482758620692" type="curve" smooth="yes"/>
      <point x="361.0344827586207" y="175.55172413793102"/>
      <point x="445.6896551724138" y="212.86206896551727"/>
      <point x="465.6896551724138" y="319.2068965517241" type="curve" smooth="yes"/>
      <point x="475.8965517241379" y="373.6206896551724"/>
      <point x="459.7931034482758" y="421.55172413793105"/>
      <point x="410.2413793103448" y="460.7586206896552" type="curve"/>
      <point x="380.31034482758616" y="430.551724137931" type="line"/>
      <point x="440.0344827586207" y="428.551724137931"/>
      <point x="498.9655172413793" y="422.9655172413793"/>
      <point x="560.6896551724138" y="410.0" type="curve"/>
      <point x="579.3448275862069" y="498.48275862068965" type="line"/>
      <point x="413.8965517241379" y="498.48275862068965" type="line" smooth="yes"/>
      <point x="357.13793103448273" y="498.48275862068965"/>
      <point x="334.55172413793105" y="509.37931034482756"/>
      <point x="268.9310344827586" y="509.37931034482756" type="curve" smooth="yes"/>
      <point x="158.0" y="509.37931034482756"/>
      <point x="85.17241379310346" y="455.51724137931035"/>
      <point x="66.96551724137932" y="366.6896551724138" type="curve" smooth="yes"/>
      <point x="47.96551724137931" y="274.6896551724137"/>
      <point x="113.37931034482757" y="213.79310344827584"/>
      <point x="151.6551724137931" y="194.8965517241379" type="curve"/>
      <point x="151.6551724137931" y="186.31034482758622" type="line"/>
      <point x="107.55172413793105" y="175.41379310344828"/>
      <point x="70.3793103448276" y="155.31034482758622"/>
      <point x="61.37931034482759" y="113.72413793103449" type="curve" smooth="yes"/>
      <point x="51.37931034482759" y="66.93103448275862"/>
      <point x="84.27586206896552" y="41.13793103448276"/>
      <point x="97.58620689655172" y="33.24137931034483" type="curve"/>
      <point x="97.58620689655172" y="25.655172413793103" type="line"/>
      <point x="54.37931034482759" y="14.551724137931036"/>
      <point x="-5.448275862068968" y="-14.758620689655174"/>
      <point x="-16.655172413793103" y="-66.58620689655172" type="curve" smooth="yes"/>
      <point x="-36.55172413793103" y="-160.86206896551724"/>
      <point x="68.58620689655174" y="-202.79310344827587"/>
    </contour>
    <contour>
      <point x="191.6206896551724" y="-118.79310344827587" type="curve"/>
      <point x="134.86206896551724" y="-117.89655172413795"/>
      <point x="73.55172413793102" y="-98.37931034482759"/>
      <point x="82.48275862068965" y="-57.827586206896555" type="curve" smooth="yes"/>
      <point x="89.89655172413791" y="-25.3448275862069"/>
      <point x="141.82758620689657" y="-5.620689655172415"/>
      <point x="185.93103448275863" y="4.275862068965516" type="curve"/>
      <point x="228.51724137931038" y="4.275862068965516" type="line" smooth="yes"/>
      <point x="330.03448275862075" y="4.275862068965516"/>
      <point x="346.3793103448276" y="-25.655172413793103"/>
      <point x="339.8620689655172" y="-56.724137931034484" type="curve" smooth="yes"/>
      <point x="334.13793103448273" y="-83.6206896551724"/>
      <point x="288.551724137931" y="-114.31034482758622"/>
    </contour>
    <contour>
      <point x="239.62068965517238" y="244.03448275862067" type="curve"/>
      <point x="199.93103448275866" y="261.3448275862069"/>
      <point x="154.58620689655174" y="291.75862068965523"/>
      <point x="165.10344827586206" y="346.34482758620686" type="curve" smooth="yes"/>
      <point x="174.82758620689657" y="396.7586206896552"/>
      <point x="217.1034482758621" y="420.0"/>
      <point x="273.10344827586204" y="420.0" type="curve"/>
      <point x="335.2758620689656" y="420.0"/>
      <point x="378.27586206896547" y="377.13793103448273"/>
      <point x="365.6551724137931" y="320.82758620689657" type="curve" smooth="yes"/>
      <point x="352.6206896551724" y="261.8620689655172"/>
      <point x="293.2068965517241" y="248.55172413793102"/>
    </contour>
  </outline>
</glyph>
<glyph name="h" format="2">
  <advance width="580.3157894736842"/>
  <unicode hex="0068"/>
  <guideline x="87.15789473684211" y="725.9052631578948" angle="4.470799999999997"/>
  <anchor x="263.6842105263158" y="0.0" name="bottom"/>
  <anchor x="314.37894736842105" y="409.0" name="center"/>
  <anchor x="372.82105263157894" y="727.1052631578947" name="top"/>
  <outline>
    <contour>
      <point x="15.568421052631587" y="0.0" type="curve"/>
      <point x="142.1157894736842" y="0.0" type="line"/>
      <point x="152.18947368421053" y="72.53684210526316"/>
      <point x="162.31578947368422" y="135.4842105263158"/>
      <point x="178.49473684210525" y="212.37894736842105" type="curve"/>
      <point x="202.8" y="325.7789473684211" type="line"/>
      <point x="244.55789473684206" y="369.89473684210526"/>
      <point x="301.5157894736842" y="408.77894736842103"/>
      <point x="342.9368421052632" y="408.77894736842103" type="curve" smooth="yes"/>
      <point x="409.9684210526316" y="408.77894736842103"/>
      <point x="426.93684210526317" y="363.86315789473684"/>
      <point x="409.04210526315796" y="282.2105263157894" type="curve"/>
      <point x="394.9684210526316" y="212.37894736842105" type="line"/>
      <point x="378.7894736842106" y="135.4842105263158"/>
      <point x="362.5578947368421" y="72.53684210526316"/>
      <point x="342.09473684210525" y="0.0" type="curve"/>
      <point x="467.82105263157894" y="0.0" type="line"/>
      <point x="476.66315789473686" y="72.53684210526316"/>
      <point x="487.6105263157895" y="135.4842105263158"/>
      <point x="505.021052631579" y="217.7157894736842" type="curve"/>
      <point x="513.021052631579" y="256.12631578947367"/>
      <point x="522.7157894736841" y="289.33684210526314"/>
      <point x="528.7157894736841" y="317.15789473684214" type="curve" smooth="yes"/>
      <point x="554.4842105263157" y="435.87368421052633"/>
      <point x="508.0736842105264" y="509.7473684210526"/>
      <point x="399.5368421052632" y="509.7473684210526" type="curve" smooth="yes"/>
      <point x="341.38947368421054" y="509.7473684210526"/>
      <point x="273.2947368421053" y="463.88421052631577"/>
      <point x="232.7578947368421" y="423.4210526315789" type="curve"/>
      <point x="222.83157894736843" y="423.4210526315789" type="line"/>
      <point x="238.13684210526316" y="493.58947368421053" type="line"/>
      <point x="256.9578947368421" y="583.1052631578947"/>
      <point x="278.8842105263158" y="664.978947368421"/>
      <point x="303.75789473684216" y="744.9263157894737" type="curve"/>
      <point x="162.00000000000003" y="730.2315789473685" type="line"/>
      <point x="158.62105263157895" y="653.7157894736841"/>
      <point x="146.49473684210528" y="576.1263157894737"/>
      <point x="129.31578947368422" y="493.58947368421053" type="curve"/>
      <point x="70.90526315789474" y="217.7157894736842" type="line"/>
      <point x="53.49473684210527" y="135.4842105263158"/>
      <point x="36.852631578947374" y="72.53684210526316"/>
    </contour>
  </outline>
</glyph>
<glyph name="k" format="2">
  <advance width="557.4631578947368"/>
  <unicode hex="006B"/>
  <anchor x="230.36842105263156" y="0.0" name="bottom"/>
  <anchor x="383.1894736842105" y="727.1052631578947" name="top"/>
  <outline>
    <contour>
      <point x="350.58947368421053" y="0.0" type="curve"/>
      <point x="497.0105263157895" y="0.0" type="line"/>
      <point x="443.4526315789474" y="59.463157894736845"/>
      <point x="396.3578947368421" y="118.74736842105263"/>
      <point x="351.0842105263158" y="178.21052631578948" type="curve"/>
      <point x="272.86315789473684" y="284.4526315789474" type="line"/>
      <point x="288.94736842105266" y="234.25263157894736" type="line"/>
      <point x="383.47368421052636" y="320.53684210526313" type="line"/>
      <point x="448.74736842105267" y="379.58947368421053"/>
      <point x="515.1999999999999" y="438.2315789473684"/>
      <point x="586.1157894736842" y="497.2842105263158" type="curve"/>
      <point x="434.1052631578947" y="497.2842105263158" type="line"/>
      <point x="390.6842105263158" y="451.9789473684211"/>
      <point x="343.38947368421054" y="406.4947368421053"/>
      <point x="295.86315789473684" y="361.1894736842105" type="curve"/>
      <point x="217.2421052631579" y="287.34736842105264" type="line"/>
      <point x="183.95789473684212" y="287.34736842105264" type="line"/>
      <point x="168.10526315789474" y="212.54736842105262" type="line"/>
      <point x="198.67368421052632" y="212.54736842105262" type="line"/>
      <point x="260.42105263157896" y="130.98947368421054" type="line"/>
      <point x="292.5894736842106" y="87.32631578947368"/>
      <point x="323.52631578947364" y="43.66315789473684"/>
    </contour>
    <contour>
      <point x="15.568421052631587" y="0.0" type="curve"/>
      <point x="142.1157894736842" y="0.0" type="line"/>
      <point x="151.77894736842103" y="67.61052631578947"/>
      <point x="161.0842105263158" y="126.45263157894738"/>
      <point x="175.62105263157895" y="198.42105263157896" type="curve"/>
      <point x="238.13684210526316" y="493.58947368421053" type="line"/>
      <point x="256.9578947368421" y="583.1052631578947"/>
      <point x="278.8842105263158" y="664.978947368421"/>
      <point x="303.75789473684216" y="744.9263157894737" type="curve"/>
      <point x="162.00000000000003" y="730.2315789473685" type="line"/>
      <point x="158.62105263157895" y="653.7157894736841"/>
      <point x="146.49473684210528" y="576.1263157894737"/>
      <point x="129.31578947368422" y="493.58947368421053" type="curve"/>
      <point x="70.90526315789474" y="217.7157894736842" type="line"/>
      <point x="53.49473684210527" y="135.4842105263158"/>
      <point x="36.852631578947374" y="72.53684210526316"/>
    </contour>
  </outline>
</glyph>
<glyph name="m" format="2">
  <advance width="882.7473684210527"/>
  <unicode hex="006D"/>
  <anchor x="397.35789473684207" y="0.0" name="bottom"/>
  <anchor x="502.178947368421" y="497.2842105263158" name="top"/>
  <outline>
    <contour>
      <point x="20.74736842105264" y="0.0" type="curve"/>
      <point x="147.29473684210527" y="0.0" type="line"/>
      <point x="157.3684210526316" y="72.53684210526316"/>
      <point x="167.49473684210528" y="135.4842105263158"/>
      <point x="183.67368421052632" y="212.37894736842105" type="curve"/>
      <point x="207.97894736842107" y="325.7789473684211" type="line"/>
      <point x="249.7368421052632" y="369.89473684210526"/>
      <point x="303.51578947368415" y="408.77894736842103"/>
      <point x="343.75789473684205" y="408.77894736842103" type="curve" smooth="yes"/>
      <point x="402.89473684210526" y="408.77894736842103"/>
      <point x="419.8631578947368" y="363.86315789473684"/>
      <point x="401.9684210526316" y="282.2105263157894" type="curve"/>
      <point x="387.8947368421052" y="212.37894736842105" type="line"/>
      <point x="371.7157894736842" y="135.4842105263158"/>
      <point x="355.4842105263158" y="72.53684210526316"/>
      <point x="335.0210526315789" y="0.0" type="curve"/>
      <point x="460.7473684210526" y="0.0" type="line"/>
      <point x="469.58947368421053" y="72.53684210526316"/>
      <point x="480.53684210526313" y="135.4842105263158"/>
      <point x="497.9473684210526" y="217.7157894736842" type="curve"/>
      <point x="505.9473684210526" y="256.12631578947367"/>
      <point x="515.6421052631579" y="289.33684210526314"/>
      <point x="521.6421052631578" y="317.15789473684214" type="curve" smooth="yes"/>
      <point x="527.4631578947367" y="344.4421052631579"/>
      <point x="529.6421052631579" y="368.7263157894737"/>
      <point x="528.0" y="390.77894736842103" type="curve"/>
      <point x="523.7157894736843" y="393.13684210526316" type="line"/>
      <point x="520.0736842105263" y="466.38947368421054"/>
      <point x="476.8947368421053" y="509.7473684210526"/>
      <point x="399.76842105263154" y="509.7473684210526" type="curve" smooth="yes"/>
      <point x="340.1052631578948" y="509.7473684210526"/>
      <point x="268.85263157894735" y="461.42105263157896"/>
      <point x="225.21052631578948" y="416.2631578947369" type="curve"/>
      <point x="215.2842105263158" y="416.2631578947369" type="line"/>
      <point x="223.82105263157894" y="503.1578947368421" type="line"/>
      <point x="116.05263157894737" y="497.2842105263158" type="line"/>
      <point x="114.03157894736842" y="419.58947368421053"/>
      <point x="102.49473684210528" y="342.0"/>
      <point x="87.0842105263158" y="267.7157894736842" type="curve"/>
      <point x="76.0842105263158" y="217.7157894736842" type="line"/>
      <point x="58.67368421052632" y="135.4842105263158"/>
      <point x="42.03157894736843" y="72.53684210526316"/>
    </contour>
    <contour>
      <point x="644.5263157894736" y="0.0" type="curve"/>
      <point x="770.2526315789473" y="0.0" type="line"/>
      <point x="779.0947368421051" y="72.53684210526316"/>
      <point x="790.0421052631577" y="135.4842105263158"/>
      <point x="807.4526315789473" y="217.7157894736842" type="curve"/>
      <point x="815.4526315789473" y="256.12631578947367"/>
      <point x="825.1473684210525" y="289.33684210526314"/>
      <point x="831.1473684210525" y="317.15789473684214" type="curve" smooth="yes"/>
      <point x="856.9157894736841" y="435.8736842105263"/>
      <point x="810.5052631578948" y="509.7473684210526"/>
      <point x="709.2736842105263" y="509.7473684210526" type="curve" smooth="yes"/>
      <point x="649.6105263157895" y="509.7473684210526"/>
      <point x="575.8210526315789" y="459.65263157894736"/>
      <point x="530.9999999999999" y="413.3157894736842" type="curve"/>
      <point x="519.4842105263158" y="413.3157894736842" type="line"/>
      <point x="517.4842105263158" y="325.7789473684211" type="line"/>
      <point x="559.2421052631579" y="369.89473684210526"/>
      <point x="613.021052631579" y="408.77894736842103"/>
      <point x="653.2631578947368" y="408.77894736842103" type="curve" smooth="yes"/>
      <point x="712.4" y="408.77894736842103"/>
      <point x="729.3684210526316" y="363.86315789473684"/>
      <point x="711.4736842105262" y="282.2105263157894" type="curve"/>
      <point x="697.4" y="212.37894736842105" type="line"/>
      <point x="681.2210526315788" y="135.4842105263158"/>
      <point x="664.9894736842106" y="72.53684210526316"/>
    </contour>
  </outline>
</glyph>
<glyph name="n" format="2">
  <advance width="585.4947368421052"/>
  <unicode hex="006E"/>
  <anchor x="243.6421052631579" y="0.0" name="bottom"/>
  <anchor x="348.4631578947368" y="497.2842105263158" name="top"/>
  <outline>
    <contour>
      <point x="20.74736842105264" y="0.0" type="curve"/>
      <point x="147.29473684210527" y="0.0" type="line"/>
      <point x="157.3684210526316" y="72.53684210526316"/>
      <point x="167.49473684210528" y="135.4842105263158"/>
      <point x="183.67368421052632" y="212.37894736842105" type="curve"/>
      <point x="207.97894736842107" y="325.7789473684211" type="line"/>
      <point x="249.73684210526312" y="369.89473684210526"/>
      <point x="306.6947368421052" y="408.77894736842103"/>
      <point x="348.11578947368423" y="408.77894736842103" type="curve" smooth="yes"/>
      <point x="415.1473684210526" y="408.77894736842103"/>
      <point x="432.1157894736842" y="363.86315789473684"/>
      <point x="414.22105263157897" y="282.2105263157894" type="curve"/>
      <point x="400.1473684210526" y="212.37894736842105" type="line"/>
      <point x="383.9684210526316" y="135.4842105263158"/>
      <point x="367.7368421052632" y="72.53684210526316"/>
      <point x="347.2736842105263" y="0.0" type="curve"/>
      <point x="473.0" y="0.0" type="line"/>
      <point x="481.8421052631579" y="72.53684210526316"/>
      <point x="492.7894736842105" y="135.4842105263158"/>
      <point x="510.2" y="217.7157894736842" type="curve"/>
      <point x="518.1999999999999" y="256.12631578947367"/>
      <point x="527.8947368421052" y="289.33684210526314"/>
      <point x="533.8947368421052" y="317.15789473684214" type="curve" smooth="yes"/>
      <point x="559.6631578947367" y="435.87368421052633"/>
      <point x="513.2526315789473" y="509.7473684210526"/>
      <point x="404.7157894736842" y="509.7473684210526" type="curve" smooth="yes"/>
      <point x="342.4631578947368" y="509.7473684210526"/>
      <point x="269.2631578947369" y="461.42105263157896"/>
      <point x="225.21052631578948" y="416.2631578947369" type="curve"/>
      <point x="215.2842105263158" y="416.2631578947369" type="line"/>
      <point x="223.82105263157894" y="503.1578947368421" type="line"/>
      <point x="116.05263157894737" y="497.2842105263158" type="line"/>
      <point x="114.03157894736842" y="419.58947368421053"/>
      <point x="102.49473684210528" y="342.0"/>
      <point x="87.0842105263158" y="267.7157894736842" type="curve"/>
      <point x="76.0842105263158" y="217.7157894736842" type="line"/>
      <point x="58.67368421052632" y="135.4842105263158"/>
      <point x="42.03157894736843" y="72.53684210526316"/>
    </contour>
  </outline>
</glyph>
<glyph name="o" format="2">
  <advance width="597.4105263157895"/>
  <unicode hex="006F"/>
  <anchor x="246.0" y="0.0" name="bottom"/>
  <anchor x="298.41052631578947" y="248.6421052631579" name="center"/>
  <anchor x="353.65263157894736" y="0.0" name="ogonek"/>
  <anchor x="350.82105263157894" y="497.2842105263158" name="top"/>
  <anchor x="582.2" y="497.2842105263158" name="topright"/>
  <outline>
    <contour>
      <point x="274.8736842105263" y="-11.873684210526315" type="curve" smooth="yes"/>
      <point x="417.8315789473684" y="-11.873684210526315"/>
      <point x="519.421052631579" y="81.07368421052632"/>
      <point x="549.6526315789474" y="222.82105263157894" type="curve" smooth="yes"/>
      <point x="581.6526315789474" y="372.2315789473684"/>
      <point x="499.5473684210526" y="509.7473684210526"/>
      <point x="323.1263157894737" y="509.7473684210526" type="curve" smooth="yes"/>
      <point x="186.83157894736843" y="509.7473684210526"/>
      <point x="79.16842105263157" y="423.69473684210527"/>
      <point x="48.34736842105263" y="275.46315789473687" type="curve" smooth="yes"/>
      <point x="17.936842105263153" y="128.41052631578947"/>
      <point x="93.22105263157894" y="-11.873684210526315"/>
    </contour>
    <contour>
      <point x="278.5157894736842" y="79.65263157894736" type="curve"/>
      <point x="176.3684210526316" y="83.4736842105263"/>
      <point x="138.14736842105262" y="167.14736842105265"/>
      <point x="158.16842105263157" y="263.7157894736842" type="curve" smooth="yes"/>
      <point x="176.42105263157893" y="352.8"/>
      <point x="234.43157894736845" y="414.40000000000003"/>
      <point x="321.89473684210526" y="418.22105263157897" type="curve"/>
      <point x="419.2" y="413.5789473684211"/>
      <point x="460.62105263157895" y="333.2105263157895"/>
      <point x="439.8315789473684" y="234.1578947368421" type="curve" smooth="yes"/>
      <point x="421.98947368421057" y="148.4842105263158"/>
      <point x="366.157894736842" y="83.4736842105263"/>
    </contour>
  </outline>
</glyph>
<glyph name="p" format="2">
  <advance width="598.4631578947368"/>
  <unicode hex="0070"/>
  <outline>
    <contour>
      <point x="-20.842105263157887" y="-195.6421052631579" type="curve"/>
      <point x="108.7578947368421" y="-192.0" type="line"/>
      <point x="116.6" y="-119.46315789473684"/>
      <point x="126.3157894736842" y="-56.51578947368421"/>
      <point x="143.0842105263158" y="20.378947368421052" type="curve"/>
      <point x="153.44210526315788" y="66.81052631578947" type="line"/>
      <point x="161.90526315789472" y="66.81052631578947" type="line"/>
      <point x="198.33684210526317" y="19.326315789473686"/>
      <point x="262.1263157894737" y="-11.873684210526315"/>
      <point x="315.1473684210526" y="-11.873684210526315" type="curve" smooth="yes"/>
      <point x="434.6842105263158" y="-11.873684210526315"/>
      <point x="518.9368421052632" y="82.15789473684211"/>
      <point x="548.9368421052632" y="224.92631578947368" type="curve" smooth="yes"/>
      <point x="580.3473684210526" y="375.7473684210526"/>
      <point x="526.5578947368421" y="509.7473684210526"/>
      <point x="382.99999999999994" y="509.7473684210526" type="curve" smooth="yes"/>
      <point x="331.5157894736842" y="509.7473684210526"/>
      <point x="270.31578947368416" y="476.3157894736842"/>
      <point x="231.26315789473682" y="434.6947368421052" type="curve"/>
      <point x="220.7473684210526" y="434.6947368421052" type="line"/>
      <point x="227.5157894736842" y="503.1578947368421" type="line"/>
      <point x="116.05263157894737" y="497.2842105263158" type="line"/>
      <point x="114.03157894736842" y="419.58947368421053"/>
      <point x="102.49473684210528" y="342.0"/>
      <point x="87.0842105263158" y="267.7157894736842" type="curve"/>
      <point x="35.49473684210527" y="25.71578947368421" type="line"/>
      <point x="18.084210526315797" y="-56.51578947368421"/>
      <point x="0.4421052631579022" y="-123.10526315789474"/>
    </contour>
    <contour>
      <point x="286.82105263157894" y="84.16842105263159" type="curve"/>
      <point x="243.52631578947367" y="84.98947368421054"/>
      <point x="199.28421052631577" y="109.85263157894738"/>
      <point x="171.47368421052633" y="152.86315789473684" type="curve"/>
      <point x="213.1578947368421" y="349.8" type="line"/>
      <point x="249.09473684210522" y="388.6105263157895"/>
      <point x="296.9263157894737" y="413.9368421052631"/>
      <point x="333.5578947368421" y="414.9368421052631" type="curve"/>
      <point x="425.86315789473684" y="411.9368421052631"/>
      <point x="458.4947368421053" y="330.0315789473684"/>
      <point x="438.70526315789476" y="233.85263157894738" type="curve" smooth="yes"/>
      <point x="420.86315789473684" y="148.41052631578947"/>
      <point x="372.1052631578947" y="87.57894736842105"/>
    </contour>
  </outline>
</glyph>
<glyph name="q" format="2">
  <advance width="587.0526315789474"/>
  <unicode hex="0071"/>
  <outline>
    <contour>
      <point x="303.16842105263163" y="-195.6421052631579" type="curve"/>
      <point x="430.71578947368414" y="-192.0" type="line"/>
      <point x="440.7894736842105" y="-119.46315789473684"/>
      <point x="450.9157894736842" y="-56.51578947368421"/>
      <point x="468.32631578947365" y="25.71578947368421" type="curve"/>
      <point x="519.7368421052631" y="267.7157894736842" type="line"/>
      <point x="535.5578947368421" y="343.82105263157894"/>
      <point x="557.0210526315789" y="423.6421052631579"/>
      <point x="585.3578947368421" y="503.1578947368421" type="curve"/>
      <point x="476.76842105263154" y="497.2842105263158" type="line"/>
      <point x="455.76842105263154" y="430.56842105263155" type="line"/>
      <point x="445.66315789473686" y="430.56842105263155" type="line"/>
      <point x="410.3578947368421" y="476.4947368421052"/>
      <point x="344.10526315789474" y="509.7473684210526"/>
      <point x="283.7263157894737" y="509.7473684210526" type="curve" smooth="yes"/>
      <point x="164.18947368421053" y="509.7473684210526"/>
      <point x="79.93684210526315" y="415.7157894736842"/>
      <point x="49.93684210526315" y="272.9473684210526" type="curve" smooth="yes"/>
      <point x="18.52631578947368" y="122.1263157894737"/>
      <point x="72.3157894736842" y="-11.873684210526315"/>
      <point x="215.87368421052633" y="-11.873684210526315" type="curve" smooth="yes"/>
      <point x="262.12631578947367" y="-11.873684210526315"/>
      <point x="318.04210526315796" y="14.968421052631578"/>
      <point x="358.1684210526316" y="62.09473684210526" type="curve"/>
      <point x="367.4526315789474" y="62.09473684210526" type="line"/>
      <point x="358.27368421052637" y="20.378947368421052" type="line"/>
      <point x="342.0947368421053" y="-56.51578947368421"/>
      <point x="324.4526315789474" y="-123.10526315789474"/>
    </contour>
    <contour>
      <point x="265.3157894736842" y="82.93684210526317" type="curve"/>
      <point x="173.01052631578946" y="85.34736842105264"/>
      <point x="139.78947368421052" y="168.43157894736842"/>
      <point x="160.16842105263157" y="264.0210526315789" type="curve" smooth="yes"/>
      <point x="178.6" y="350.6421052631579"/>
      <point x="226.76842105263157" y="410.29473684210524"/>
      <point x="312.05263157894734" y="413.7052631578947" type="curve"/>
      <point x="357.1157894736842" y="412.29473684210524"/>
      <point x="400.7684210526316" y="389.7894736842105"/>
      <point x="429.7578947368421" y="356.2105263157895" type="curve"/>
      <point x="388.66315789473686" y="163.4" type="line"/>
      <point x="356.2631578947369" y="113.97894736842105"/>
      <point x="309.61052631578946" y="84.52631578947368"/>
    </contour>
  </outline>
</glyph>
<glyph name="r" format="2">
  <advance width="412.0631578947369"/>
  <unicode hex="0072"/>
  <anchor x="78.26315789473685" y="0.0" name="bottom"/>
  <anchor x="286.46315789473687" y="497.2842105263158" name="top"/>
  <outline>
    <contour>
      <point x="20.74736842105264" y="0.0" type="curve"/>
      <point x="147.29473684210527" y="0.0" type="line"/>
      <point x="157.3684210526316" y="72.53684210526316"/>
      <point x="167.49473684210528" y="135.4842105263158"/>
      <point x="183.67368421052632" y="212.37894736842105" type="curve"/>
      <point x="201.21052631578948" y="292.65263157894736" type="line"/>
      <point x="256.9368421052631" y="378.2631578947369"/>
      <point x="312.8526315789473" y="399.33684210526314"/>
      <point x="344.178947368421" y="399.33684210526314" type="curve" smooth="yes"/>
      <point x="361.76842105263154" y="399.33684210526314"/>
      <point x="380.58947368421053" y="395.1052631578947"/>
      <point x="409.2842105263158" y="384.69473684210527" type="curve"/>
      <point x="443.09473684210525" y="499.1578947368421" type="line"/>
      <point x="425.5052631578947" y="504.7473684210526"/>
      <point x="398.6842105263157" y="509.7473684210526"/>
      <point x="379.4315789473684" y="509.7473684210526" type="curve" smooth="yes"/>
      <point x="336.43157894736845" y="509.7473684210526"/>
      <point x="282.10526315789474" y="489.5684210526316"/>
      <point x="222.26315789473682" y="407.4210526315789" type="curve"/>
      <point x="212.33684210526314" y="407.4210526315789" type="line"/>
      <point x="223.82105263157894" y="503.1578947368421" type="line"/>
      <point x="116.05263157894737" y="497.2842105263158" type="line"/>
      <point x="114.03157894736842" y="419.58947368421053"/>
      <point x="102.49473684210528" y="342.0"/>
      <point x="87.0842105263158" y="267.7157894736842" type="curve"/>
      <point x="76.0842105263158" y="217.7157894736842" type="line"/>
      <point x="58.67368421052632" y="135.4842105263158"/>
      <point x="42.03157894736843" y="72.53684210526316"/>
    </contour>
  </outline>
</glyph>
<glyph name="u" format="2">
  <advance width="567.8842105263158"/>
  <unicode hex="0075"/>
  <anchor x="231.21052631578945" y="0.0" name="bottom"/>
  <anchor x="450.6947368421052" y="0.0" name="ogonek"/>
  <anchor x="335.6210526315789" y="497.2842105263158" name="top"/>
  <anchor x="593.8105263157895" y="497.2842105263158" name="topright"/>
  <outline>
    <contour>
      <point x="179.3157894736842" y="-11.873684210526315" type="curve" smooth="yes"/>
      <point x="238.03157894736844" y="-11.873684210526315"/>
      <point x="311.2315789473684" y="36.45263157894737"/>
      <point x="355.2842105263158" y="81.61052631578947" type="curve"/>
      <point x="365.21052631578954" y="81.61052631578947" type="line"/>
      <point x="352.5473684210526" y="0.0" type="line"/>
      <point x="453.1578947368421" y="0.0" type="line"/>
      <point x="463.2315789473684" y="72.53684210526316"/>
      <point x="472.9473684210526" y="135.4842105263158"/>
      <point x="490.35789473684207" y="217.7157894736842" type="curve"/>
      <point x="502.178947368421" y="271.82105263157894" type="line"/>
      <point x="520.8210526315789" y="360.62105263157895"/>
      <point x="537.4631578947368" y="424.7473684210526"/>
      <point x="558.9263157894736" y="497.2842105263158" type="curve"/>
      <point x="433.0210526315789" y="497.2842105263158" type="line"/>
      <point x="424.12631578947367" y="424.7473684210526"/>
      <point x="412.5894736842105" y="360.62105263157895"/>
      <point x="395.82105263157894" y="283.7263157894737" type="curve"/>
      <point x="371.6947368421052" y="170.0421052631579" type="line"/>
      <point x="329.93684210526317" y="125.92631578947369"/>
      <point x="272.9789473684211" y="87.0421052631579"/>
      <point x="235.09473684210525" y="87.0421052631579" type="curve" smooth="yes"/>
      <point x="168.06315789473683" y="87.0421052631579"/>
      <point x="151.09473684210525" y="131.95789473684212"/>
      <point x="168.57894736842104" y="213.61052631578946" type="curve"/>
      <point x="182.88421052631577" y="283.7263157894737" type="line"/>
      <point x="198.65263157894736" y="360.62105263157895"/>
      <point x="216.29473684210527" y="428.38947368421054"/>
      <point x="237.7578947368421" y="500.9263157894737" type="curve"/>
      <point x="109.62105263157893" y="497.2842105263158" type="line"/>
      <point x="100.72631578947367" y="424.7473684210526"/>
      <point x="90.83157894736843" y="361.4421052631579"/>
      <point x="71.6" y="271.82105263157894" type="curve"/>
      <point x="63.6" y="235.17894736842103"/>
      <point x="56.95789473684211" y="208.53684210526316"/>
      <point x="50.95789473684211" y="180.7157894736842" type="curve" smooth="yes"/>
      <point x="25.189473684210522" y="62.0"/>
      <point x="70.77894736842104" y="-11.873684210526315"/>
    </contour>
  </outline>
</glyph>
<glyph name="v" format="2">
  <advance width="531.7157894736843"/>
  <unicode hex="0076"/>
  <outline>
    <contour>
      <point x="149.54736842105262" y="0.0" type="curve"/>
      <point x="279.7578947368421" y="0.0" type="line"/>
      <point x="312.06315789473683" y="62.410526315789475"/>
      <point x="346.0105263157895" y="124.23157894736842"/>
      <point x="381.77894736842103" y="186.23157894736843" type="curve"/>
      <point x="433.13684210526316" y="275.0526315789474" type="line"/>
      <point x="475.3157894736842" y="348.87368421052633"/>
      <point x="519.0842105263159" y="423.87368421052633"/>
      <point x="567.3157894736842" y="497.2842105263158" type="curve"/>
      <point x="431.48421052631585" y="497.2842105263158" type="line"/>
      <point x="396.9578947368421" y="422.7578947368421"/>
      <point x="359.5578947368421" y="346.12631578947367"/>
      <point x="318.15789473684214" y="267.13684210526316" type="curve"/>
      <point x="240.71578947368423" y="118.33684210526316" type="line"/>
      <point x="230.61052631578949" y="118.33684210526316" type="line"/>
      <point x="214.38947368421054" y="267.13684210526316" type="line"/>
      <point x="205.6" y="346.12631578947367"/>
      <point x="199.04210526315788" y="423.1684210526316"/>
      <point x="194.89473684210526" y="500.9263157894737" type="curve"/>
      <point x="70.39999999999999" y="497.2842105263158" type="line"/>
      <point x="86.63157894736842" y="425.2842105263158"/>
      <point x="100.22105263157894" y="349.46315789473687"/>
      <point x="111.57894736842105" y="276.6421052631579" type="curve"/>
      <point x="125.34736842105264" y="188.23157894736843" type="line"/>
      <point x="135.1157894736842" y="127.0"/>
      <point x="143.6526315789474" y="62.410526315789475"/>
    </contour>
  </outline>
</glyph>
<glyph name="w" format="2">
  <advance width="817.8421052631579"/>
  <unicode hex="0077"/>
  <anchor x="355.13684210526316" y="0.0" name="bottom"/>
  <anchor x="459.5473684210526" y="497.2842105263158" name="top"/>
  <outline>
    <contour>
      <point x="124.54736842105262" y="0.0" type="curve"/>
      <point x="252.0631578947368" y="0.0" type="line"/>
      <point x="283.05263157894734" y="70.29473684210527"/>
      <point x="318.86315789473684" y="145.53684210526316"/>
      <point x="352.72631578947374" y="214.65263157894736" type="curve"/>
      <point x="418.27368421052637" y="348.7052631578947" type="line"/>
      <point x="427.5578947368421" y="348.7052631578947" type="line"/>
      <point x="438.1157894736842" y="217.8842105263158" type="line"/>
      <point x="443.1894736842105" y="148.53684210526316"/>
      <point x="448.4421052631579" y="69.11578947368422"/>
      <point x="450.05263157894734" y="0.0" type="curve"/>
      <point x="589.1894736842104" y="0.0" type="line"/>
      <point x="616.6736842105263" y="61.410526315789475"/>
      <point x="648.8526315789472" y="124.82105263157895"/>
      <point x="683.4421052631578" y="190.23157894736843" type="curve"/>
      <point x="729.6210526315789" y="277.2315789473684" type="line"/>
      <point x="768.6210526315789" y="350.87368421052633"/>
      <point x="807.2105263157895" y="422.87368421052633"/>
      <point x="853.6736842105263" y="497.2842105263158" type="curve"/>
      <point x="717.4315789473684" y="497.2842105263158" type="line"/>
      <point x="689.3894736842105" y="428.2421052631579"/>
      <point x="648.5789473684209" y="341.0736842105263"/>
      <point x="612.3052631578947" y="264.85263157894735" type="curve"/>
      <point x="540.7578947368421" y="114.41052631578947" type="line"/>
      <point x="531.6526315789473" y="114.41052631578947" type="line"/>
      <point x="522.1473684210526" y="263.4421052631579" type="line"/>
      <point x="517.3052631578946" y="340.66315789473686"/>
      <point x="513.2842105263157" y="422.06315789473683"/>
      <point x="512.9052631578948" y="497.2842105263158" type="curve"/>
      <point x="397.9578947368421" y="497.2842105263158" type="line"/>
      <point x="365.2" y="417.7052631578947"/>
      <point x="328.9263157894737" y="340.30526315789473"/>
      <point x="292.24210526315795" y="262.2631578947368" type="curve"/>
      <point x="222.46315789473684" y="114.41052631578947" type="line"/>
      <point x="213.3578947368421" y="114.41052631578947" type="line"/>
      <point x="203.26315789473685" y="259.90526315789475" type="line"/>
      <point x="198.42105263157893" y="336.53684210526313"/>
      <point x="193.2210526315789" y="423.1157894736842"/>
      <point x="192.8421052631579" y="500.9263157894737" type="curve"/>
      <point x="67.34736842105261" y="497.2842105263158" type="line"/>
      <point x="82.81052631578949" y="422.2842105263158"/>
      <point x="91.39999999999999" y="351.0526315789474"/>
      <point x="99.16842105263157" y="277.2315789473684" type="curve"/>
      <point x="109.11578947368422" y="188.6421052631579" type="line"/>
      <point x="115.88421052631578" y="125.23157894736842"/>
      <point x="121.65263157894736" y="62.410526315789475"/>
    </contour>
  </outline>
</glyph>
<glyph name="y" format="2">
  <advance width="534.0736842105263"/>
  <unicode hex="0079"/>
  <anchor x="364.27368421052637" y="0.0" name="bottom"/>
  <anchor x="319.8315789473684" y="497.2842105263158" name="top"/>
  <outline>
    <contour>
      <point x="23.515789473684215" y="-195.6421052631579" type="curve"/>
      <point x="160.1684210526316" y="-192.0" type="line"/>
      <point x="196.83157894736846" y="-120.0"/>
      <point x="244.59999999999997" y="-37.357894736842105"/>
      <point x="320.5473684210526" y="89.6421052631579" type="curve"/>
      <point x="404.3157894736842" y="229.46315789473684" type="line"/>
      <point x="479.0842105263158" y="354.87368421052633"/>
      <point x="516.2631578947369" y="416.2842105263158"/>
      <point x="567.263157894737" y="497.2842105263158" type="curve"/>
      <point x="432.6631578947369" y="497.2842105263158" type="line"/>
      <point x="397.1368421052631" y="419.4736842105263"/>
      <point x="359.14736842105265" y="344.66315789473686"/>
      <point x="316.74736842105267" y="265.0842105263158" type="curve"/>
      <point x="236.7157894736842" y="115.05263157894737" type="line"/>
      <point x="226.61052631578946" y="115.05263157894737" type="line"/>
      <point x="211.56842105263158" y="264.90526315789475" type="line"/>
      <point x="202.95789473684212" y="345.30526315789473"/>
      <point x="196.9894736842105" y="420.5263157894737"/>
      <point x="193.66315789473683" y="500.9263157894737" type="curve"/>
      <point x="69.16842105263156" y="497.2842105263158" type="line"/>
      <point x="85.81052631578947" y="425.87368421052633"/>
      <point x="97.98947368421052" y="349.87368421052633"/>
      <point x="108.75789473684209" y="278.46315789473687" type="curve"/>
      <point x="122.1157894736842" y="188.46315789473684" type="line"/>
      <point x="132.29473684210527" y="121.23157894736842"/>
      <point x="140.01052631578946" y="51.05263157894737"/>
      <point x="146.90526315789472" y="-17.357894736842105" type="curve"/>
      <point x="155.4736842105263" y="9.957894736842105" type="line"/>
      <point x="117.47368421052632" y="-57.14736842105263"/>
      <point x="71.3157894736842" y="-128.53684210526316"/>
    </contour>
  </outline>
</glyph>
<glyph name="z" format="2">
  <advance width="504.1684210526316"/>
  <unicode hex="007A"/>
  <anchor x="198.0842105263158" y="0.0" name="bottom"/>
  <anchor x="250.49473684210525" y="248.6421052631579" name="center"/>
  <anchor x="302.9052631578947" y="497.2842105263158" name="top"/>
  <outline>
    <contour>
      <point x="-16.621052631578948" y="0.0" type="line"/>
      <point x="418.3263157894737" y="0.0" type="line"/>
      <point x="438.46315789473687" y="94.22105263157894" type="line"/>
      <point x="372.90526315789475" y="86.06315789473685"/>
      <point x="286.0421052631579" y="82.18947368421053"/>
      <point x="234.25263157894736" y="82.18947368421053" type="curve"/>
      <point x="119.72631578947369" y="82.18947368421053" type="line"/>
      <point x="131.70526315789473" y="58.821052631578944" type="line"/>
      <point x="315.9578947368421" y="248.8421052631579" type="line"/>
      <point x="372.64210526315793" y="307.1157894736842"/>
      <point x="445.2736842105263" y="378.0526315789474"/>
      <point x="492.1157894736842" y="421.7894736842106" type="curve"/>
      <point x="507.7894736842105" y="497.2842105263158" type="line"/>
      <point x="91.07368421052631" y="497.2842105263158" type="line"/>
      <point x="70.52631578947368" y="401.0105263157895" type="line"/>
      <point x="142.0842105263158" y="410.9894736842105"/>
      <point x="230.76842105263157" y="414.6842105263158"/>
      <point x="281.9684210526316" y="414.6842105263158" type="curve"/>
      <point x="386.36842105263156" y="414.6842105263158" type="line"/>
      <point x="370.69473684210527" y="447.87368421052633" type="line"/>
      <point x="182.92631578947368" y="251.05263157894737" type="line"/>
      <point x="129.8315789473684" y="195.13684210526318"/>
      <point x="65.73684210526315" y="131.09473684210528"/>
      <point x="-2.589473684210525" y="66.10526315789474" type="curve"/>
    </contour>
  </outline>
</glyph>
<glyph name="braceleft" format="2">
  <advance width="420.4421052631579"/>
  <unicode hex="007B"/>
  <outline>
    <contour>
      <point x="239.63157894736844" y="-119.38947368421053" type="curve" smooth="yes"/>
      <point x="325.17894736842106" y="-119.38947368421053" type="line"/>
      <point x="343.9052631578947" y="-28.042105263157893" type="line"/>
      <point x="310.08421052631576" y="-30.273684210526312"/>
      <point x="283.08421052631576" y="-30.684210526315788"/>
      <point x="266.08421052631576" y="-30.684210526315788" type="curve"/>
      <point x="208.9157894736842" y="-29.042105263157893"/>
      <point x="190.1263157894737" y="6.9789473684210535"/>
      <point x="199.66315789473686" y="58.71578947368421" type="curve" smooth="yes"/>
      <point x="225.22105263157894" y="191.25263157894736" type="line" smooth="yes"/>
      <point x="239.4" y="265.30526315789473"/>
      <point x="219.22105263157894" y="296.94736842105266"/>
      <point x="168.26315789473685" y="318.41052631578947" type="curve"/>
      <point x="170.08421052631581" y="328.10526315789474" type="line"/>
      <point x="229.86315789473684" y="351.4421052631579"/>
      <point x="263.5052631578948" y="384.65263157894736"/>
      <point x="282.14736842105265" y="462.88421052631577" type="curve" smooth="yes"/>
      <point x="314.4736842105263" y="604.8736842105263" type="line" smooth="yes"/>
      <point x="326.8315789473684" y="658.378947368421"/>
      <point x="356.2105263157895" y="679.5052631578947"/>
      <point x="410.4315789473684" y="680.7368421052631" type="curve"/>
      <point x="429.2" y="680.7368421052631"/>
      <point x="457.55789473684206" y="680.3263157894736"/>
      <point x="490.09473684210525" y="678.0947368421052" type="curve"/>
      <point x="509.82105263157894" y="769.4421052631579" type="line"/>
      <point x="406.91578947368424" y="769.4421052631579" type="line" smooth="yes"/>
      <point x="301.79999999999995" y="769.4421052631579"/>
      <point x="234.02105263157895" y="727.8736842105263"/>
      <point x="213.73684210526315" y="631.4526315789474" type="curve"/>
      <point x="202.37894736842105" y="575.4315789473684"/>
      <point x="193.30526315789476" y="515.978947368421"/>
      <point x="181.53684210526316" y="459.9578947368421" type="curve"/>
      <point x="167.41052631578947" y="392.2736842105263"/>
      <point x="120.72631578947369" y="364.6842105263158"/>
      <point x="73.83157894736841" y="364.6842105263158" type="curve" smooth="yes"/>
      <point x="38.4421052631579" y="364.6842105263158" type="line"/>
      <point x="21.768421052631577" y="284.77894736842103" type="line"/>
      <point x="57.1578947368421" y="284.77894736842103" type="line" smooth="yes"/>
      <point x="104.05263157894737" y="284.77894736842103"/>
      <point x="138.73684210526318" y="257.1894736842105"/>
      <point x="124.61052631578949" y="189.50526315789475" type="curve"/>
      <point x="114.66315789473686" y="142.17894736842103"/>
      <point x="102.07368421052632" y="95.4421052631579"/>
      <point x="92.12631578947368" y="48.11578947368422" type="curve"/>
      <point x="72.43157894736842" y="-46.53684210526315"/>
      <point x="129.21052631578948" y="-119.38947368421053"/>
    </contour>
  </outline>
</glyph>
<glyph name="cent" format="2">
  <advance width="490.5052631578947"/>
  <unicode hex="00A2"/>
  <anchor x="231.02105263157893" y="0.0" name="bottom"/>
  <anchor x="330.53684210526313" y="497.2842105263158" name="top"/>
  <outline>
    <contour>
      <point x="155.6" y="-137.0" type="curve"/>
      <point x="246.4842105263158" y="-137.0" type="line"/>
      <point x="264.9684210526316" y="-20.821052631578947"/>
      <point x="287.37894736842105" y="84.0"/>
      <point x="310.37894736842105" y="192.41052631578947" type="curve"/>
      <point x="332.37894736842105" y="295.6421052631579" type="line"/>
      <point x="355.37894736842105" y="404.05263157894734"/>
      <point x="377.37894736842105" y="507.6421052631579"/>
      <point x="408.4842105263158" y="625.0526315789474" type="curve"/>
      <point x="317.59999999999997" y="625.0526315789474" type="line"/>
      <point x="298.7052631578947" y="508.05263157894734"/>
      <point x="276.7052631578947" y="403.6421052631579"/>
      <point x="253.70526315789473" y="295.6421052631579" type="curve"/>
      <point x="231.70526315789473" y="192.41052631578947" type="line"/>
      <point x="209.1157894736842" y="85.6421052631579"/>
      <point x="186.70526315789473" y="-19.589473684210525"/>
    </contour>
    <contour>
      <point x="282.33684210526314" y="-10.642105263157895" type="curve" smooth="yes"/>
      <point x="324.82105263157894" y="-10.642105263157895"/>
      <point x="375.17894736842106" y="4.484210526315789"/>
      <point x="402.17894736842106" y="16.02105263157895" type="curve"/>
      <point x="414.90526315789475" y="116.77894736842106" type="line"/>
      <point x="380.7789473684211" y="97.2421052631579"/>
      <point x="334.24210526315795" y="82.29473684210527"/>
      <point x="301.22105263157897" y="81.70526315789473" type="curve" smooth="yes"/>
      <point x="195.01052631578946" y="83.70526315789473"/>
      <point x="133.5578947368421" y="150.89473684210526"/>
      <point x="158.57894736842104" y="266.17894736842106" type="curve" smooth="yes"/>
      <point x="179.6" y="361.8736842105263"/>
      <point x="244.14736842105262" y="409.93684210526317"/>
      <point x="327.5894736842105" y="414.93684210526317" type="curve"/>
      <point x="358.021052631579" y="414.93684210526317"/>
      <point x="409.86315789473684" y="400.9894736842105"/>
      <point x="465.91578947368424" y="370.0421052631579" type="curve"/>
      <point x="494.15789473684214" y="467.8526315789474" type="line"/>
      <point x="452.9263157894737" y="485.38947368421054"/>
      <point x="387.4105263157895" y="509.33684210526314"/>
      <point x="327.76842105263154" y="509.33684210526314" type="curve" smooth="yes"/>
      <point x="180.52631578947367" y="509.33684210526314"/>
      <point x="77.57894736842105" y="415.56842105263155"/>
      <point x="48.757894736842104" y="277.5157894736842" type="curve" smooth="yes"/>
      <point x="13.294736842105259" y="106.48421052631579"/>
      <point x="108.2" y="-10.642105263157895"/>
    </contour>
  </outline>
</glyph>
<glyph name="sterling" format="2">
  <advance width="597.0631578947368"/>
  <unicode hex="00A3"/>
  <outline>
    <contour>
      <point x="6.168421052631581" y="0.0" type="line"/>
      <point x="511.70526315789476" y="0.0" type="line"/>
      <point x="535.1263157894737" y="110.17894736842105" type="line"/>
      <point x="449.41052631578947" y="100.61052631578947"/>
      <point x="374.9263157894737" y="99.78947368421052"/>
      <point x="248.90526315789472" y="99.78947368421052" type="curve"/>
      <point x="109.52631578947368" y="99.78947368421052" type="line"/>
      <point x="126.2" y="76.27368421052631" type="line"/>
      <point x="221.71578947368423" y="146.65263157894736"/>
      <point x="239.4842105263158" y="204.67368421052632"/>
      <point x="250.8421052631579" y="257.10526315789474" type="curve" smooth="yes"/>
      <point x="292.47368421052636" y="453.4736842105263" type="line" smooth="yes"/>
      <point x="313.90526315789475" y="553.9157894736842"/>
      <point x="363.46315789473687" y="599.778947368421"/>
      <point x="446.65263157894736" y="602.0105263157894" type="curve"/>
      <point x="478.0842105263158" y="602.0105263157894"/>
      <point x="531.5157894736842" y="588.063157894737"/>
      <point x="589.5684210526316" y="557.2947368421053" type="curve"/>
      <point x="622.5052631578948" y="659.8526315789474" type="line"/>
      <point x="575.9894736842106" y="676.978947368421"/>
      <point x="502.7263157894737" y="700.1052631578947"/>
      <point x="436.15789473684214" y="700.1052631578947" type="curve" smooth="yes"/>
      <point x="300.2947368421053" y="700.1052631578947"/>
      <point x="208.72631578947366" y="622.8421052631579"/>
      <point x="176.90526315789472" y="469.5052631578948" type="curve" smooth="yes"/>
      <point x="161.36842105263156" y="397.94736842105266"/>
      <point x="145.29473684210527" y="302.1578947368421"/>
      <point x="129.1157894736842" y="224.85263157894735" type="curve"/>
      <point x="119.93684210526315" y="183.2421052631579"/>
      <point x="102.81052631578949" y="125.50526315789475"/>
      <point x="19.96842105263158" y="65.17894736842105" type="curve"/>
    </contour>
    <contour>
      <point x="73.34736842105264" y="328.82105263157894" type="line"/>
      <point x="139.32631578947368" y="332.87368421052633"/>
      <point x="201.30526315789473" y="333.2842105263158"/>
      <point x="254.46315789473687" y="333.2842105263158" type="curve"/>
      <point x="290.2105263157895" y="333.2842105263158" type="line"/>
      <point x="343.36842105263156" y="333.2842105263158"/>
      <point x="404.5263157894737" y="332.87368421052633"/>
      <point x="468.5052631578947" y="328.82105263157894" type="curve"/>
      <point x="487.0" y="415.8315789473684" type="line"/>
      <point x="421.6105263157895" y="411.77894736842103"/>
      <point x="359.63157894736844" y="411.36842105263156"/>
      <point x="306.47368421052636" y="411.36842105263156" type="curve"/>
      <point x="270.72631578947374" y="411.36842105263156" type="line"/>
      <point x="217.56842105263158" y="411.36842105263156"/>
      <point x="156.41052631578947" y="411.77894736842103"/>
      <point x="91.84210526315789" y="415.8315789473684" type="curve"/>
    </contour>
  </outline>
</glyph>
<glyph name="currency" format="2">
  <advance width="634.4842105263158"/>
  <unicode hex="00A4"/>
  <outline>
    <contour>
      <point x="316.1894736842105" y="107.42105263157895" type="curve" smooth="yes"/>
      <point x="437.0210526315789" y="107.42105263157895"/>
      <point x="517.8736842105263" y="164.8842105263158"/>
      <point x="543.5684210526316" y="291.0210526315789" type="curve" smooth="yes"/>
      <point x="569.8526315789475" y="419.7473684210526"/>
      <point x="481.0" y="532.3473684210526"/>
      <point x="346.2421052631579" y="532.3473684210526" type="curve" smooth="yes"/>
      <point x="229.53684210526313" y="532.3473684210526"/>
      <point x="143.78947368421052" y="475.4736842105263"/>
      <point x="118.09473684210526" y="349.33684210526314" type="curve" smooth="yes"/>
      <point x="91.81052631578947" y="220.02105263157895"/>
      <point x="179.0736842105263" y="107.42105263157895"/>
    </contour>
    <contour>
      <point x="109.25263157894739" y="39.10526315789473" type="line"/>
      <point x="153.94736842105263" y="86.26315789473685"/>
      <point x="198.46315789473684" y="128.18947368421053"/>
      <point x="237.38947368421054" y="164.70526315789473" type="curve"/>
      <point x="170.58947368421053" y="235.96842105263158" type="line"/>
      <point x="132.07368421052632" y="199.86315789473684"/>
      <point x="86.14736842105263" y="158.75789473684208"/>
      <point x="36.578947368421055" y="117.47368421052632" type="curve"/>
    </contour>
    <contour>
      <point x="323.1157894736842" y="199.3578947368421" type="curve"/>
      <point x="248.69473684210524" y="203.0"/>
      <point x="199.8842105263158" y="263.1157894736842"/>
      <point x="214.3684210526316" y="336.30526315789473" type="curve" smooth="yes"/>
      <point x="227.4421052631579" y="404.0315789473684"/>
      <point x="277.2" y="438.41052631578947"/>
      <point x="340.9578947368421" y="441.6421052631579" type="curve"/>
      <point x="414.43157894736845" y="437.58947368421053"/>
      <point x="462.6" y="376.65263157894736"/>
      <point x="448.5263157894737" y="305.69473684210527" type="curve" smooth="yes"/>
      <point x="434.4526315789474" y="234.50526315789475"/>
      <point x="390.0" y="201.3578947368421"/>
    </contour>
    <contour>
      <point x="194.7157894736842" y="398.90526315789475" type="curve"/>
      <point x="264.1578947368421" y="463.65263157894736" type="line"/>
      <point x="227.6421052631579" y="503.1684210526316"/>
      <point x="186.53684210526313" y="548.0947368421052"/>
      <point x="145.2526315789474" y="598.0736842105264" type="curve"/>
      <point x="69.11578947368422" y="526.6315789473684" type="line"/>
      <point x="116.09473684210528" y="482.5263157894737"/>
      <point x="158.61052631578949" y="437.42105263157896"/>
    </contour>
    <contour>
      <point x="520.4105263157894" y="43.10526315789474" type="curve"/>
      <point x="596.5473684210526" y="114.54736842105264" type="line"/>
      <point x="549.5684210526316" y="158.65263157894736"/>
      <point x="507.0526315789474" y="203.7578947368421"/>
      <point x="470.9473684210526" y="242.2736842105263" type="curve"/>
      <point x="401.5052631578948" y="177.5263157894737" type="line"/>
      <point x="438.021052631579" y="138.01052631578946"/>
      <point x="479.1263157894737" y="93.0842105263158"/>
    </contour>
    <contour>
      <point x="495.0736842105263" y="405.2105263157894" type="line"/>
      <point x="533.5894736842105" y="441.31578947368416"/>
      <point x="579.5157894736842" y="482.42105263157896"/>
      <point x="629.0842105263157" y="523.7052631578948" type="curve"/>
      <point x="556.4105263157895" y="602.0736842105264" type="line"/>
      <point x="511.7157894736842" y="554.9157894736842"/>
      <point x="467.20000000000005" y="512.9894736842105"/>
      <point x="428.27368421052637" y="476.47368421052636" type="curve"/>
    </contour>
  </outline>
</glyph>
<glyph name="yen" format="2">
  <advance width="635.8421052631579"/>
  <unicode hex="00A5"/>
  <outline>
    <contour>
      <point x="270.77894736842103" y="260.0842105263158" type="line"/>
      <point x="372.0315789473684" y="260.0842105263158" type="line"/>
      <point x="571.1052631578948" y="517.5578947368421" type="line"/>
      <point x="616.8736842105263" y="576.6631578947367"/>
      <point x="661.2315789473683" y="633.9473684210526"/>
      <point x="709.978947368421" y="686.4631578947368" type="curve"/>
      <point x="556.0105263157893" y="686.4631578947368" type="line"/>
      <point x="502.7473684210526" y="600.8315789473685"/>
      <point x="474.8315789473684" y="561.4"/>
      <point x="425.7157894736842" y="493.30526315789473" type="curve"/>
      <point x="344.9157894736842" y="381.0105263157895" type="line"/>
      <point x="335.6315789473684" y="381.0105263157895" type="line"/>
      <point x="301.7473684210526" y="488.4842105263158" type="line"/>
      <point x="280.4736842105263" y="555.5263157894736"/>
      <point x="269.09473684210525" y="600.4736842105262"/>
      <point x="249.4421052631579" y="686.4631578947368" type="curve"/>
      <point x="109.86315789473684" y="686.4631578947368" type="line"/>
      <point x="149.73684210526315" y="599.8947368421053"/>
      <point x="161.50526315789472" y="567.0210526315789"/>
      <point x="179.45263157894738" y="516.3263157894736" type="curve"/>
    </contour>
    <contour>
      <point x="200.21052631578945" y="0.0" type="curve"/>
      <point x="332.27368421052637" y="0.0" type="line"/>
      <point x="339.70526315789476" y="75.12631578947368"/>
      <point x="352.8842105263158" y="139.66315789473686"/>
      <point x="370.8842105263158" y="223.48421052631576" type="curve"/>
      <point x="398.3263157894737" y="353.2315789473684" type="line"/>
      <point x="283.9894736842105" y="353.2315789473684" type="line"/>
      <point x="256.5473684210526" y="223.89473684210526" type="line"/>
      <point x="238.5473684210526" y="140.07368421052632"/>
      <point x="224.54736842105262" y="75.12631578947368"/>
    </contour>
    <contour>
      <point x="51.98947368421052" y="128.49473684210525" type="line"/>
      <point x="117.37894736842105" y="132.54736842105262"/>
      <point x="178.9473684210526" y="132.9578947368421"/>
      <point x="232.1052631578947" y="132.9578947368421" type="curve"/>
      <point x="356.06315789473683" y="132.9578947368421" type="line"/>
      <point x="409.22105263157897" y="132.9578947368421"/>
      <point x="470.7894736842105" y="132.54736842105262"/>
      <point x="535.357894736842" y="128.49473684210525" type="curve"/>
      <point x="551.2105263157895" y="205.2421052631579" type="line"/>
      <point x="485.82105263157894" y="203.2421052631579"/>
      <point x="424.2526315789474" y="202.83157894736843"/>
      <point x="371.09473684210525" y="202.83157894736843" type="curve"/>
      <point x="247.13684210526316" y="202.83157894736843" type="line"/>
      <point x="193.97894736842105" y="202.83157894736843"/>
      <point x="132.41052631578947" y="203.2421052631579"/>
      <point x="67.84210526315789" y="205.2421052631579" type="curve"/>
    </contour>
    <contour>
      <point x="83.9157894736842" y="280.66315789473686" type="line"/>
      <point x="149.48421052631576" y="282.66315789473686"/>
      <point x="211.05263157894734" y="283.0736842105263"/>
      <point x="264.2105263157895" y="283.0736842105263" type="curve"/>
      <point x="388.1684210526316" y="283.0736842105263" type="line"/>
      <point x="441.3263157894737" y="283.0736842105263"/>
      <point x="502.89473684210526" y="282.66315789473686"/>
      <point x="567.2842105263159" y="280.66315789473686" type="curve"/>
      <point x="583.7263157894737" y="357.41052631578947" type="line"/>
      <point x="517.9263157894736" y="353.35789473684207"/>
      <point x="456.3578947368421" y="352.9473684210526"/>
      <point x="403.2" y="352.9473684210526" type="curve"/>
      <point x="279.2421052631579" y="352.9473684210526" type="line"/>
      <point x="226.08421052631576" y="352.9473684210526"/>
      <point x="164.51578947368418" y="353.35789473684207"/>
      <point x="100.35789473684211" y="357.41052631578947" type="curve"/>
    </contour>
  </outline>
</glyph>
<glyph name="brokenbar" format="2">
  <advance width="271.34736842105264"/>
  <unicode hex="00A6"/>
  <outline>
    <contour>
      <point x="112.18947368421053" y="361.89473684210526" type="line"/>
      <point x="207.8736842105263" y="361.89473684210526" type="line"/>
      <point x="227.28421052631577" y="452.89473684210526" type="line"/>
      <point x="250.28421052631577" y="560.8947368421053"/>
      <point x="272.69473684210527" y="664.8947368421053"/>
      <point x="303.38947368421054" y="781.8947368421053" type="curve"/>
      <point x="195.49473684210525" y="781.8947368421053" type="line"/>
      <point x="176.18947368421053" y="664.8947368421053"/>
      <point x="154.6" y="560.8947368421053"/>
      <point x="131.6" y="452.89473684210526" type="curve"/>
    </contour>
    <contour>
      <point x="-4.50526315789473" y="-158.10526315789474" type="curve"/>
      <point x="103.38947368421053" y="-158.10526315789474" type="line"/>
      <point x="122.69473684210526" y="-41.10526315789474"/>
      <point x="144.28421052631577" y="62.89473684210526"/>
      <point x="167.28421052631577" y="170.89473684210526" type="curve"/>
      <point x="186.28421052631577" y="261.89473684210526" type="line"/>
      <point x="90.60000000000001" y="261.89473684210526" type="line"/>
      <point x="71.60000000000001" y="170.89473684210526" type="line"/>
      <point x="48.60000000000001" y="62.89473684210526"/>
      <point x="25.778947368421054" y="-41.10526315789474"/>
    </contour>
  </outline>
</glyph>
<glyph name="section" format="2">
  <advance width="559.448275862069"/>
  <unicode hex="00A7"/>
  <outline>
    <contour>
      <point x="195.3448275862069" y="-127.37931034482759" type="curve" smooth="yes"/>
      <point x="331.3793103448276" y="-127.37931034482759"/>
      <point x="403.7586206896552" y="-72.20689655172413"/>
      <point x="422.65517241379314" y="16.275862068965516" type="curve" smooth="yes"/>
      <point x="444.65517241379314" y="120.86206896551724"/>
      <point x="382.2068965517242" y="173.75862068965515"/>
      <point x="271.3448275862069" y="221.55172413793102" type="curve" smooth="yes"/>
      <point x="174.9655172413793" y="262.89655172413796"/>
      <point x="160.6551724137931" y="290.7241379310345"/>
      <point x="171.0689655172414" y="337.0" type="curve" smooth="yes"/>
      <point x="182.58620689655174" y="388.89655172413796"/>
      <point x="238.86206896551724" y="410.1724137931034"/>
      <point x="278.37931034482756" y="414.17241379310343" type="curve"/>
      <point x="233.62068965517244" y="484.51724137931035" type="line"/>
      <point x="160.44827586206895" y="475.10344827586204"/>
      <point x="78.65517241379311" y="427.62068965517244"/>
      <point x="61.06896551724138" y="346.37931034482756" type="curve" smooth="yes"/>
      <point x="42.862068965517246" y="260.448275862069"/>
      <point x="78.93103448275862" y="206.79310344827584"/>
      <point x="189.48275862068965" y="156.20689655172413" type="curve" smooth="yes"/>
      <point x="292.2413793103448" y="109.17241379310344"/>
      <point x="325.9655172413793" y="86.72413793103449"/>
      <point x="313.44827586206895" y="29.03448275862069" type="curve" smooth="yes"/>
      <point x="300.9310344827586" y="-27.862068965517242"/>
      <point x="246.55172413793105" y="-36.79310344827586"/>
      <point x="186.6896551724138" y="-38.79310344827586" type="curve"/>
      <point x="136.86206896551724" y="-38.79310344827586"/>
      <point x="66.0" y="-12.103448275862068"/>
      <point x="2.793103448275865" y="27.89655172413793" type="curve"/>
      <point x="-25.448275862068968" y="-68.86206896551722" type="line"/>
      <point x="24.931034482758612" y="-90.96551724137932"/>
      <point x="102.0" y="-127.37931034482759"/>
    </contour>
    <contour>
      <point x="366.9310344827586" y="117.0" type="line"/>
      <point x="455.2758620689655" y="130.31034482758622"/>
      <point x="514.5172413793103" y="177.8965517241379"/>
      <point x="530.3103448275863" y="256.3448275862069" type="curve" smooth="yes"/>
      <point x="549.6206896551724" y="351.9655172413793"/>
      <point x="489.86206896551727" y="404.6551724137931"/>
      <point x="379.8965517241379" y="452.44827586206895" type="curve" smooth="yes"/>
      <point x="285.3103448275862" y="493.7931034482759"/>
      <point x="268.3103448275862" y="521.0344827586206"/>
      <point x="278.7241379310345" y="568.8965517241379" type="curve" smooth="yes"/>
      <point x="291.34482758620686" y="625.1034482758621"/>
      <point x="353.9310344827586" y="635.3103448275863"/>
      <point x="387.9655172413793" y="638.2068965517242" type="curve"/>
      <point x="417.9655172413793" y="638.2068965517242"/>
      <point x="480.0689655172414" y="621.6206896551724"/>
      <point x="553.2758620689655" y="582.7241379310344" type="curve"/>
      <point x="580.4137931034483" y="676.7931034482758" type="line"/>
      <point x="530.4137931034483" y="697.103448275862"/>
      <point x="442.3793103448276" y="726.7931034482758"/>
      <point x="375.4137931034483" y="726.7931034482758" type="curve" smooth="yes"/>
      <point x="266.2068965517241" y="726.7931034482758"/>
      <point x="188.41379310344828" y="675.4137931034483"/>
      <point x="168.72413793103448" y="583.6551724137931" type="curve" smooth="yes"/>
      <point x="148.72413793103448" y="488.86206896551727"/>
      <point x="195.55172413793102" y="434.10344827586204"/>
      <point x="298.9310344827586" y="388.0" type="curve" smooth="yes"/>
      <point x="401.6896551724138" y="341.8620689655172"/>
      <point x="433.7241379310345" y="316.9310344827586"/>
      <point x="422.1034482758621" y="259.2413793103448" type="curve" smooth="yes"/>
      <point x="413.48275862068965" y="215.55172413793102"/>
      <point x="363.86206896551727" y="187.17241379310346"/>
      <point x="315.4137931034483" y="181.9655172413793" type="curve"/>
    </contour>
  </outline>
</glyph>
<glyph name="copyright" format="2">
  <advance width="811.7578947368421"/>
  <unicode hex="00A9"/>
  <outline>
    <contour>
      <point x="429.37894736842105" y="-11.873684210526315" type="curve" smooth="yes"/>
      <point x="655.0526315789474" y="-11.873684210526315"/>
      <point x="786.5368421052632" y="139.94736842105263"/>
      <point x="786.5368421052632" y="344.41052631578947" type="curve" smooth="yes"/>
      <point x="786.5368421052632" y="541.6421052631579"/>
      <point x="661.4631578947368" y="700.1052631578947"/>
      <point x="425.7368421052632" y="700.1052631578947" type="curve" smooth="yes"/>
      <point x="193.6" y="700.1052631578947"/>
      <point x="65.22105263157894" y="543.8210526315789"/>
      <point x="65.22105263157894" y="344.0" type="curve" smooth="yes"/>
      <point x="65.22105263157894" y="153.05263157894737"/>
      <point x="183.65263157894736" y="-11.873684210526315"/>
    </contour>
    <contour>
      <point x="437.6105263157895" y="155.58947368421053" type="curve" smooth="yes"/>
      <point x="479.37894736842105" y="155.58947368421053"/>
      <point x="519.8421052631579" y="168.7157894736842"/>
      <point x="547.0736842105263" y="176.66315789473683" type="curve"/>
      <point x="541.0736842105263" y="251.89473684210526" type="line"/>
      <point x="510.8210526315789" y="235.35789473684213"/>
      <point x="479.69473684210527" y="226.0"/>
      <point x="455.2631578947368" y="226.0" type="curve"/>
      <point x="379.37894736842105" y="227.58947368421053"/>
      <point x="336.58947368421053" y="271.9894736842105"/>
      <point x="336.58947368421053" y="345.82105263157894" type="curve" smooth="yes"/>
      <point x="336.58947368421053" y="420.0842105263158"/>
      <point x="379.57894736842104" y="458.53684210526313"/>
      <point x="438.58947368421053" y="460.9473684210526" type="curve"/>
      <point x="455.9473684210526" y="460.9473684210526"/>
      <point x="493.66315789473686" y="451.94736842105266"/>
      <point x="539.8421052631578" y="429.7684210526316" type="curve"/>
      <point x="546.7157894736841" y="506.6421052631579" type="line"/>
      <point x="517.4842105263158" y="517.2315789473685"/>
      <point x="471.89473684210526" y="533.0"/>
      <point x="430.37894736842105" y="533.0" type="curve" smooth="yes"/>
      <point x="315.57894736842104" y="533.0"/>
      <point x="252.22105263157894" y="451.41052631578947"/>
      <point x="252.22105263157894" y="343.7684210526316" type="curve" smooth="yes"/>
      <point x="252.22105263157894" y="236.1263157894737"/>
      <point x="319.5052631578947" y="155.58947368421053"/>
    </contour>
    <contour>
      <point x="428.9684210526316" y="53.37894736842105" type="curve"/>
      <point x="237.1263157894737" y="59.02105263157895"/>
      <point x="133.7578947368421" y="169.9157894736842"/>
      <point x="133.7578947368421" y="344.0" type="curve" smooth="yes"/>
      <point x="133.7578947368421" y="519.2421052631579"/>
      <point x="241.53684210526316" y="629.2105263157895"/>
      <point x="426.14736842105265" y="634.8526315789474" type="curve"/>
      <point x="612.1684210526316" y="629.2105263157895"/>
      <point x="718.0" y="520.0105263157894"/>
      <point x="718.0" y="344.41052631578947" type="curve" smooth="yes"/>
      <point x="718.0" y="166.16842105263157"/>
      <point x="609.5263157894736" y="59.02105263157895"/>
    </contour>
  </outline>
</glyph>
